<svg version="1" xmlns="http://www.w3.org/2000/svg" width="960" height="960" viewBox="0 0 720.000000 720.000000"><path d="M171.6 202.1c-38.4 6.7-70 24.4-95.2 53.4-17.8 20.4-32.6 51.3-36 75.5-.3 1.9-.9 5.7-1.4 8.5-.9 5-.7 38.1.3 42.1.3 1.2.8 3.9 1.1 6 1.1 6.6 5.4 21.9 8 28.5 1.5 3.4 2.6 6.8 2.6 7.5 0 .8 1.8 6.7 3.9 13.3 10.3 31.3 27.9 56.1 55.7 78.1 9.4 7.5 30.7 18.7 44.4 23.3 6.6 2.2 16.1 4.7 18.2 4.8.4 0 2.2.4 3.9.9 7.9 2.3 34.1 3.2 47.7 1.7 26.9-3.1 54.6-14.2 77.1-31.2 6.9-5.2 33.5-31.1 93.6-91.2 46.2-46.1 86-85.3 88.5-87 4.3-2.9 13.4-7.4 17.5-8.6 9.8-3 22.5-3.1 35.1-.3 7.9 1.7 20.8 9.7 28.2 17.4 7.1 7.4 8.4 10.4 7.9 17.9-2.1 32.7-29.1 58.6-61.2 58.7-15.5 0-28-4.2-39.5-13.3-2.5-1.9-4.7-3.9-5-4.3-.3-.4-16 14.7-34.8 33.5L398 471.5l4.7 4.6c3.8 3.6 13.5 11.6 15.1 12.5.1.1-2.3 2.7-5.3 5.9l-5.6 5.7 4.3 4c17.2 15.8 38.6 28.2 60.3 35.1 20.4 6.4 44.6 8.7 66.5 6.4 5.2-.6 22.7-4.3 28.5-6 6.7-2 11.5-3.9 23.5-9.5 28.6-13.2 56.1-40.4 71.4-70.8 11.9-23.6 17-44.8 17-71.4 0-10.5-1-25.6-1.9-26.9-.2-.4-.6-2.4-.9-4.6-.9-5.8-4.4-18.1-7.1-25-1.2-3.3-3.5-10.2-4.9-15.3-7.2-25.7-20.6-48.9-39.1-67.7-10.7-10.9-16-15.3-27.8-22.9-19.3-12.7-39.6-20.2-64.7-24.1-8.3-1.3-41.6-1.5-43.6-.2-.5.3-3 .8-5.4 1.2-23.2 3.2-52.1 16.3-72.5 32.8-2.7 2.2-43.5 42.4-90.5 89.3-47.5 47.3-87.1 86-89 86.9-1.9 1-4.2 2.3-5 3-2.1 1.8-12.9 5.3-19.2 6.3-22.6 3.5-46.3-6.1-59.6-24.2-3.3-4.6-3.6-5.4-3.4-11.2.5-14.1 6.5-28.9 15.8-39.3 4.6-5.1 14.5-12.7 19.4-14.8 1.4-.6 3.6-1.5 5-2.1 18-7.9 43.7-3.9 61.4 9.5l5.9 4.5 33.9-33.8 33.8-33.9-4.7-4.5c-2.7-2.5-7.2-6.4-10.1-8.7l-5.3-4.2 5.5-5.4 5.6-5.4-2.3-2.4c-10.9-11.3-32.1-25.5-48.2-32.2-6.4-2.7-20.7-7.5-24.6-8.2-1.3-.3-6-1.2-10.4-2.1-12.4-2.5-39.3-2.7-52.9-.3z"/></svg>