<svg xmlns="http://www.w3.org/2000/svg" width="32" height="32" viewBox="0 0 32 32">
    <g fill="none">
        <circle cx="16.001" cy="15.998" r="13.128" fill="#E2DAD5" transform="rotate(-76.17 16.001 15.998)"/>
        <path fill="#EFE6DF" d="M8.432 11.512l-1.304-.8c-.204-.121-.349-.323-.397-.556-.049-.232.002-.475.141-.668 1.923-2.68 4.922-4.383 8.208-4.664.238-.02.474.061.65.224.175.163.273.393.27.632V7.2c.001.42-.324.77-.744.8-2.287.223-4.37 1.41-5.728 3.264-.236.369-.724.479-1.096.248zM7.2 16H5.68c-.237-.001-.462-.102-.621-.276-.16-.175-.24-.408-.219-.644v-.304c.025-.235.147-.45.337-.591.19-.141.43-.197.663-.153l1.504.288c.433.054.743.446.696.88 0 .22-.09.43-.248.58-.16.152-.373.231-.592.22z"/>
        <path fill="#F26666" d="M8.216 16s2.592-1.6 3.776-.432c.904.896-.8 1.712-1.28.896-.1-.158-.263-.266-.448-.296-.672-.145-1.36-.201-2.048-.168zM19.744 16s2.6-1.6 3.784-.432c.904.896-.8 1.712-1.28.896-.102-.157-.264-.264-.448-.296-.675-.144-1.366-.201-2.056-.168zM6.72 14.768c.156-.4.378-.77.656-1.096.271-.334.59-.628.944-.872.37-.24.778-.41 1.208-.504.427-.078.866-.05 1.28.08-.408.02-.812.095-1.2.224-.376.133-.733.313-1.064.536-.669.472-1.281 1.02-1.824 1.632zM25.28 14.768c-.543-.615-1.155-1.166-1.824-1.64-.328-.222-.683-.402-1.056-.536-.388-.129-.792-.204-1.2-.224.414-.13.853-.158 1.28-.08.427.097.834.27 1.2.512.355.246.673.543.944.88.278.324.5.691.656 1.088zM16 20.56c.94-.01 1.875.133 2.768.424.06.02.126-.001.163-.053.036-.051.035-.12-.003-.171-.672-.951-1.763-1.517-2.928-1.517s-2.256.566-2.928 1.517c-.038.05-.04.12-.003.171.037.052.103.073.163.053.893-.291 1.828-.434 2.768-.424z"/>
    </g>
</svg>
