<svg xmlns="http://www.w3.org/2000/svg" width="21" height="21" viewBox="0 0 21 21"><g><g><path fill="#2f2f2f" d="M21 2.25v16.5a2.17 2.17 0 0 1-.656 1.594A2.17 2.17 0 0 1 18.75 21h-3.984v-8.297h2.812L18 9.516h-3.234V7.5c0-.5.093-.875.28-1.125.25-.281.673-.422 1.266-.422H18V3.141C17.344 3.047 16.531 3 15.562 3c-1.25 0-2.242.367-2.976 1.102-.734.734-1.102 1.757-1.102 3.07v2.344H8.625v3.187h2.86V21H2.25a2.17 2.17 0 0 1-1.594-.656A2.17 2.17 0 0 1 0 18.75V2.25C0 1.625.219 1.094.656.656A2.17 2.17 0 0 1 2.25 0h16.5a2.17 2.17 0 0 1 1.594.656c.437.438.656.969.656 1.594z"/></g></g></svg>