<svg xmlns="http://www.w3.org/2000/svg" width="96" height="96" viewBox="0 0 96 96">
    <g fill="none">
        <path fill="#F2A35E" d="M62.194 29.738H16.556c-1.035 0-1.875.839-1.875 1.875V67.5c0 2.34 1.897 4.237 4.238 4.237h3.056c1.48 0 2.681 1.2 2.681 2.682v9.956c-.004 3 2.348 5.475 5.344 5.625 1.473.056 2.904-.49 3.966-1.512 1.06-1.023 1.66-2.433 1.659-3.907V75.47c0-2.071 1.679-3.75 3.75-3.75 2.071 0 3.75 1.679 3.75 3.75v8.906c-.007 2.966 2.29 5.427 5.25 5.625 1.473.056 2.904-.49 3.966-1.512C53.4 87.465 54 86.055 54 84.58V74.362c0-1.48 1.2-2.68 2.681-2.68h3.169c2.297-.031 4.151-1.885 4.181-4.182V31.575c0-1.036-.84-1.875-1.875-1.875l.038.038zM6.994 29.719c-2.993 0-5.419 2.426-5.419 5.419V57.15c0 2.993 2.426 5.419 5.419 5.419 2.992 0 5.418-2.426 5.418-5.419V35.138c-.01-2.989-2.43-5.409-5.418-5.42zM71.756 29.719c-2.988.01-5.408 2.43-5.418 5.419V57.15c0 2.993 2.426 5.419 5.418 5.419 2.993 0 5.419-2.426 5.419-5.419V35.138c0-2.993-2.426-5.42-5.419-5.42zM16.875 27.056h44.85c.566.01 1.106-.235 1.47-.668.364-.433.513-1.008.405-1.563-1.478-6.966-5.885-12.957-12.094-16.444l3.75-6.918C55.5.995 55.334.419 54.881.15c-.226-.128-.493-.16-.743-.09-.25.071-.462.238-.588.465L49.8 7.481c-6.601-3.025-14.193-3.025-20.794 0L25.07.525c-.168-.301-.483-.49-.828-.496-.345-.006-.667.173-.844.468-.177.296-.183.664-.016.966l3.75 6.918c-6.205 3.487-10.606 9.48-12.075 16.444-.107.555.042 1.13.406 1.563.364.433.904.679 1.47.668h-.057zm35.756-10.312c0 .848-.516 1.611-1.303 1.929-.787.317-1.688.125-2.276-.486-.59-.611-.748-1.518-.402-2.293.345-.775 1.127-1.262 1.975-1.232 1.145.01 2.071.937 2.081 2.082h-.075zm-24.506-2.082c.853-.007 1.625.502 1.955 1.288.33.787.152 1.694-.451 2.297-.603.603-1.511.782-2.298.452-.786-.33-1.295-1.103-1.287-1.955 0-1.15.932-2.082 2.081-2.082z" transform="translate(9 3)"/>
        <path fill="#F26666" d="M17.738 71.475c.392.136.803.205 1.218.206h3.056c1.481 0 2.682 1.2 2.682 2.681v10.013C24.689 87.361 27.019 89.831 30 90c1.473.056 2.904-.49 3.966-1.512 1.06-1.023 1.66-2.433 1.659-3.907V75.47c0-2.071 1.679-3.75 3.75-3.75 2.071 0 3.75 1.679 3.75 3.75v8.906c-.007 2.966 2.29 5.427 5.25 5.625 1.473.056 2.904-.49 3.966-1.512C53.4 87.465 54 86.055 54 84.58V74.362c0-1.48 1.2-2.68 2.681-2.68h3.169c.415-.002.827-.071 1.219-.207H17.738z" transform="translate(9 3)"/>
    </g>
</svg>
