<svg xmlns="http://www.w3.org/2000/svg" width="48" height="48" fill="none" viewBox="0 0 48 48">
    <path fill="#F2A35E" d="M37.17 6H10.875C8.19 5.985 6.007 8.145 6 10.822c-.008.008-.008.016-.008.023V37.14c-.008 2.678 2.167 4.852 4.845 4.852.007 0 .015-.007.022-.007h10.553-.008c1.328 0 2.408-1.08 2.408-2.408V29.415c0-.172-.135-.3-.3-.3h-3.023v-.007c-.42.014-.772-.3-.787-.713-.008-.03-.008-.052-.008-.082v-4.148c-.022-.42.293-.773.705-.795.023-.008.045-.008.075-.008h3.038-.008c.165 0 .3-.134.3-.3V19.35c0-4.65 2.843-7.178 6.99-7.178h3.398-.008c.435-.007.788.345.795.788v3.488-.008c-.022.42-.375.75-.795.75h-2.107c-2.25 0-2.693 1.072-2.693 2.647v3.173c0 .165.128.292.3.292h4.658-.008c.413-.007.75.323.758.736 0 .044-.008.09-.015.134l-.488 4.148h-.007c-.053.398-.39.69-.795.69h-4.118c-.172 0-.3.127-.3.3v10.148-.008c-.03 1.328 1.035 2.43 2.363 2.453h5.325v-.008c2.67-.015 4.83-2.183 4.83-4.853V10.74c0-2.677-2.16-4.845-4.838-4.852L37.17 6z"/>
    <path fill="#F26666" d="M42 20.01l-6.975-6.998V16.5v-.008c-.022.42-.375.75-.795.75h-2.092c-2.25 0-2.693 1.073-2.693 2.648v3.172c0 .165.128.293.3.293h4.658-.008c.413-.008.75.322.758.735 0 .045-.008.09-.015.135l-.488 4.147h-.007c-.053.398-.39.69-.795.69H29.73c-.172 0-.3.128-.3.3V39.51v-.008c-.03 1.328 1.035 2.43 2.363 2.453h5.325v-.008c2.67-.015 4.83-2.182 4.83-4.852L42 20.01zM23.858 32.858v-3.42c0-.173-.136-.3-.3-.3H20.52l-.008-.008c-.18-.008-.36-.075-.487-.195l-.037.045 3.87 3.878z"/>
</svg>
