<svg xmlns="http://www.w3.org/2000/svg" width="32" height="32" viewBox="0 0 32 32">
    <g fill="#F26666">
        <path d="M25.975 0H4.062C2.987-.005 1.954.419 1.192 1.178.429 1.937 0 2.968 0 4.044v21.912c0 1.076.429 2.107 1.191 2.866.762.76 1.796 1.183 2.872 1.178h8.8c.532 0 1.042-.211 1.418-.588.376-.376.588-.886.588-1.418V19.53c0-.138-.112-.25-.25-.25H12.1c-.177.01-.349-.057-.474-.182s-.191-.297-.182-.474v-3.456c-.01-.177.057-.35.182-.474.125-.125.297-.192.474-.183h2.531c.138 0 .25-.111.25-.25V11.17c0-3.875 2.369-5.982 5.825-5.982h2.832c.363 0 .659.293.662.657V8.75c-.017.353-.31.629-.662.625h-1.75c-1.875 0-2.244.894-2.244 2.206v2.644c0 .138.112.25.25.25h3.881c.186-.003.363.078.484.219.121.141.173.329.141.512l-.406 3.457c-.041.331-.323.58-.656.58h-3.425c-.139 0-.25.113-.25.25v8.457c-.01.537.194 1.056.569 1.44.374.386.887.605 1.424.61h4.419C28.201 29.99 30 28.182 30 25.956V4.044C30 1.818 28.201.01 25.975 0z" transform="translate(1 1)"/>
        <path d="M30 11.675l-5.813-5.831V8.75c-.016.353-.309.629-.662.625h-1.737c-1.875 0-2.244.894-2.244 2.206v2.644c0 .138.112.25.25.25h3.881c.186-.003.363.078.484.219.121.141.173.329.141.512l-.406 3.457c-.041.331-.323.58-.656.58h-3.425c-.139 0-.25.113-.25.25v8.457c-.01.537.194 1.056.569 1.44.374.386.887.605 1.424.61h4.419C28.201 29.99 30 28.182 30 25.956V11.675zM14.881 22.381v-2.85c0-.138-.112-.25-.25-.25H12.1c-.15-.001-.294-.057-.406-.156l-.032.038 3.22 3.218z" transform="translate(1 1)"/>
    </g>
</svg>
