<svg xmlns="http://www.w3.org/2000/svg" width="62" height="62" viewBox="0 0 62 62">
    <g fill="none">
        <g transform="translate(0 3)">
            <path fill="#F7910B" d="M61.3 35.1c0 13-11.9 23.5-30.3 23.5S.7 48.1.7 35.1 12.6 2.6 31 2.6s30.3 19.5 30.3 32.5z"/>
            <path fill="#F7910B" d="M61.3 35.1c0 13-11.9 19.5-30.3 19.5S.7 48.1.7 35.1 12.6.6 31 .6s30.3 21.5 30.3 34.5z"/>
            <path fill="#F9A908" d="M31 .6c18.4 0 30.3 21.5 30.3 34.5S49.4 54.6 31 54.6"/>
            <path fill="#F9A908" d="M61.3 35.1c0 13-11.9 19.5-30.3 19.5S.7 48.1.7 35.1 12.6 2.6 31 2.6s30.3 19.5 30.3 32.5z"/>
            <path fill="#F9C55D" d="M.7 35.1C.7 22.1 12.6 2.6 31 2.6"/>
            <path fill="#F7910B" d="M31 2.6c18.4 0 30.3 19.5 30.3 32.5S49.4 58.6 31 58.6"/>
            <path fill="#EA7103" d="M31 2.6c18.4 0 30.3 19.5 30.3 32.5"/>
            <circle cx="9.3" cy="32.1" r="1" fill="#F7910B"/>
            <circle cx="4.8" cy="34.1" r="1.1" fill="#F7910B"/>
            <circle cx="7.8" cy="30.1" r="1" fill="#F7910B"/>
            <circle cx="12.4" cy="31.9" r="1" fill="#F7910B"/>
            <circle cx="51.6" cy="32.4" r="1" fill="#F9A908"/>
            <circle cx="54.1" cy="33.8" r="1" fill="#F9A908"/>
            <circle cx="48.8" cy="25" r="1" fill="#F9A908"/>
            <circle cx="48.3" cy="36.6" r="1.3" fill="#F9A908"/>
            <circle cx="55.5" cy="36.7" r="1" fill="#F9A908"/>
            <circle cx="8.3" cy="36.1" r="1" fill="#F7910B"/>
            <circle cx="9.1" cy="27.7" r="1" fill="#F7910B"/>
            <circle cx="3.8" cy="13.9" r="1.1" fill="#F9A908"/>
            <circle cx="7" cy="10.4" r="1" fill="#F9A908"/>
            <circle cx="58.2" cy="16.3" r="1" fill="#F9A908"/>
            <circle cx="57.4" cy="13.4" r="1" fill="#F9A908"/>
            <circle cx="60" cy="13.9" r="1" fill="#F9A908"/>
            <circle cx="5" cy="16.9" r="1" fill="#F9A908"/>
            <g transform="translate(15 18)">
                <circle cx="4.6" cy="5.6" r="3.5" fill="#D87703"/>
                <path fill="#D87703" d="M30.9 5.6c0 1.9-1.6 3.5-3.5 3.5s-3.5-1.6-3.5-3.5 1.6-3.5 3.5-3.5c2 0 3.5 1.6 3.5 3.5z"/>
                <circle cx="4.6" cy="4.6" r="3.5" fill="#1E4784"/>
                <path fill="#00233F" d="M4.6 1.1c1.9 0 3.5 1.6 3.5 3.5S6.5 8.1 4.6 8.1"/>
                <path fill="#1E4784" d="M30.9 4.6c0 1.9-1.6 3.5-3.5 3.5s-3.5-1.6-3.5-3.5 1.6-3.5 3.5-3.5c2 0 3.5 1.6 3.5 3.5z"/>
                <path fill="#00233F" d="M27.4 1.1c1.9 0 3.5 1.6 3.5 3.5s-1.6 3.5-3.5 3.5"/>
                <path fill="#F9A908" d="M.5 5.4C.5 3.1 2.3.3 4.6.3s4.1 2.8 4.1 5.1"/>
                <path fill="#F7910B" d="M23.3 5.4c0-2.3 1.8-5.1 4.1-5.1s4.1 2.8 4.1 5.1"/>
            </g>
            <g>
                <path fill="#F9C55D" d="M15.8 2.4c0 1.2-3.5.7-7.8.7S.2 3.7.2 2.4C.2 1.2 3.7.2 8 .2s7.8 1 7.8 2.2z" transform="translate(11 26)"/>
                <path fill="#F9A908" d="M39.8 2.4c0 1.2-3.5.7-7.8.7s-7.8.6-7.8-.7c0-1.2 3.5-2.2 7.8-2.2s7.8 1 7.8 2.2z" transform="translate(11 26)"/>
            </g>
            <g fill="#19BCA4">
                <path d="M4.3 11.1c.2.9-.1.5-1.4.7-1.4.2-2.4.9-2.6 0-.2-.9.8-1.9 2.2-2.1 1.3-.3 1.6.5 1.8 1.4zM21.8 2.1c0 1 .1.5 1.5.5s2.5.5 2.5-.5S24.7.4 23.3.4s-1.5.8-1.5 1.7z" transform="translate(18 8)"/>
            </g>
        </g>
        <path fill="#24B9ED" d="M49.1 20v-1c-.1-2.2.6-4.3 2.5-6.6 1.3-1.6 2.4-3 2.4-4.4 0-1.5-1-2.4-3.1-2.5-1.4 0-3.1.5-4.2 1.3l-1.4-4.6c1.5-.9 4.1-1.7 7.1-1.7 5.6 0 8.1 3.1 8.1 6.6 0 3.2-1.8 5.3-3.5 7.1-1.6 1.7-2 3.4-2 5.3v.5h-5.9zM48 26c0-2.2 1.6-3.9 3.8-3.9 2.3 0 3.8 1.6 3.8 3.9 0 2.2-1.5 3.9-3.8 3.9S48 28.3 48 26z"/>
        <path fill="#02243E" d="M38 38H24c-.6 0-1-.4-1-1s.4-1 1-1h14c.6 0 1 .4 1 1s-.4 1-1 1z"/>
        <g fill="#1491DD">
            <path d="M1.7 22.2c-.1 0 0 0 0 0v7.7s-.2 0 0 0c2.3 0 3.8-1.7 3.8-3.9S4 22.2 1.7 22.2zM2.2.4H1v5C3 5.6 3.8 6.6 3.8 8c0 1.4-.5 2.2-1.9 3.8-.1.1-.3.4-1 1.2v7h4v-.6c0-1.9.4-3.6 2-5.3 1.6-1.8 3.5-3.9 3.5-7.1C10.5 3.5 7.8.4 2.2.4z" transform="translate(50)"/>
        </g>
        <path fill="#F7910B" d="M38.6 38.6c0 2.6-3.3 8.1-7.4 8.1-4.1 0-7.4-5.5-7.4-8.1"/>
        <path fill="#02243E" d="M31.2 40.1c-3.5 0-6.5-.8-7.9-2.2-.4-.4-.4-1.1 0-1.6.4-.4 1.1-.4 1.6 0 1 1 3.5 1.6 6.3 1.6 1.175 0 2.316-.106 3.31-.302 1.373-.272 2.468-.718 2.99-1.298.4-.4 1.1-.4 1.6 0 .4.4.4 1.1 0 1.6-1.4 1.4-4.4 2.2-7.9 2.2z"/>
    </g>
</svg>
