<svg xmlns="http://www.w3.org/2000/svg" width="48" height="48" fill="none" viewBox="0 0 48 48">
    <path fill="#F2A35E" d="M41.43 12.51c-.8.354-1.632.635-2.483.84.943-.896 1.645-2.016 2.04-3.255.026-.078.027-.162.003-.241-.024-.08-.071-.149-.135-.2-.065-.051-.143-.082-.225-.088-.082-.005-.164.014-.235.057-1.183.703-2.461 1.23-3.795 1.567-.08.011-.16.011-.24 0-.244-.002-.479-.092-.66-.255-1.42-1.25-3.246-1.938-5.138-1.935-.818.002-1.631.123-2.415.36-1.298.394-2.465 1.133-3.376 2.139-.911 1.005-1.533 2.238-1.799 3.569-.065.337-.113.677-.142 1.02-.022.245.04.491.176.697.137.206.339.36.574.435 1.112.302 2.242.535 3.383.698-1.477.136-2.962.153-4.44.052l-.465-.052c-5.297-.602-10.145-3.26-13.5-7.403-.039-.054-.09-.098-.148-.129-.059-.03-.124-.046-.19-.046s-.131.016-.19.046-.11.075-.148.129c-.878 1.497-1.23 3.245-1.001 4.966.23 1.72 1.028 3.315 2.269 4.529-.623-.15-1.223-.382-1.785-.69-.06-.035-.13-.053-.199-.052-.07 0-.138.02-.198.055-.06.037-.108.088-.141.15-.034.06-.05.13-.047.2-.021 1.5.393 2.975 1.191 4.246.799 1.27 1.948 2.284 3.309 2.916h-.165c-.44-.002-.88-.044-1.313-.128-.069-.012-.14-.007-.206.017-.066.023-.126.063-.172.116-.046.053-.077.117-.091.186-.014.069-.01.14.012.207.433 1.335 1.22 2.527 2.276 3.452 1.056.924 2.343 1.545 3.724 1.798 2.242.353 4.53.294 6.75-.173 0 0-2.88 2.25-7.732 1.387-.456-.068-.922-.006-1.343.18-1.751.72-3.627 1.087-5.52 1.08h-.9c-.133-.001-.263.042-.368.124-.105.082-.179.197-.21.326-.033.13-.023.268.03.392.053.123.146.226.263.291 3.249 1.896 6.94 2.9 10.702 2.91 3.155.028 6.277-.632 9.15-1.935 2.554-1.19 4.832-2.9 6.69-5.017 1.773-2.019 3.161-4.345 4.096-6.863.905-2.397 1.378-4.937 1.394-7.5v-.12c-.005-.204.037-.406.123-.59.086-.185.213-.348.373-.475 1.196-.969 2.238-2.114 3.09-3.398.047-.073.07-.16.065-.247-.005-.087-.039-.17-.095-.237-.057-.066-.133-.113-.219-.132-.085-.02-.174-.011-.254.024z"/>
    <path fill="#F26666" d="M22.065 32.31s-2.88 2.25-7.733 1.387c-.455-.068-.92-.006-1.342.18-1.742.716-3.607 1.083-5.49 1.08h-.9c-.133-.001-.263.042-.368.124-.105.082-.179.197-.21.326-.033.13-.023.268.03.392.053.123.146.226.263.291 3.249 1.896 6.94 2.9 10.702 2.91 3.155.028 6.277-.632 9.15-1.935 2.554-1.19 4.832-2.9 6.69-5.017-3.982 4.327-10.792.262-10.792.262z"/>
</svg>
