<svg xmlns="http://www.w3.org/2000/svg" width="48" height="48" fill="none" viewBox="0 0 48 48">
    <path fill="#F26666" d="M30.547 7.8H17.453c-2.559.002-5.013 1.02-6.823 2.83-1.81 1.81-2.827 4.263-2.829 6.822v13.095c.002 2.56 1.02 5.014 2.83 6.824 1.81 1.81 4.263 2.827 6.822 2.829h13.095c2.56-.002 5.014-1.02 6.824-2.83 1.81-1.81 2.827-4.263 2.829-6.822V17.453c-.002-2.56-1.02-5.014-2.83-6.824-1.81-1.81-4.263-2.827-6.822-2.829z"/>
    <path fill="#F2A35E" d="M24 31.155c3.952 0 7.155-3.203 7.155-7.155 0-3.952-3.203-7.155-7.155-7.155-3.952 0-7.155 3.203-7.155 7.155 0 3.952 3.203 7.155 7.155 7.155z"/>
    <path fill="#F2A35E" d="M31.275 6h-14.55c-2.844.002-5.57 1.133-7.582 3.143-2.01 2.011-3.141 4.738-3.143 7.582v14.55c.002 2.844 1.133 5.57 3.143 7.581 2.011 2.011 4.738 3.142 7.582 3.144h14.55c2.844-.002 5.57-1.133 7.581-3.144 2.011-2.01 3.142-4.737 3.144-7.581v-14.55c-.002-2.844-1.133-5.57-3.144-7.582-2.01-2.01-4.737-3.141-7.581-3.143zm7.102 25.275c0 1.884-.748 3.69-2.08 5.022-1.332 1.332-3.138 2.08-5.022 2.08h-14.55c-1.884 0-3.69-.748-5.022-2.08-1.332-1.332-2.08-3.138-2.08-5.022v-14.55c0-1.884.748-3.69 2.08-5.022 1.332-1.332 3.138-2.08 5.022-2.08h14.55c1.884 0 3.69.748 5.022 2.08 1.332 1.332 2.08 3.138 2.08 5.022v14.55z"/>
    <path fill="#EFE6DF" d="M24 14.693c-1.841 0-3.64.545-5.171 1.568-1.53 1.023-2.724 2.477-3.428 4.177-.705 1.7-.889 3.572-.53 5.378.36 1.805 1.246 3.464 2.548 4.765 1.301 1.302 2.96 2.189 4.765 2.548 1.806.359 3.677.175 5.378-.53 1.7-.704 3.154-1.897 4.177-3.428 1.022-1.53 1.568-3.33 1.568-5.171 0-2.468-.98-4.836-2.726-6.581-1.745-1.746-4.113-2.726-6.581-2.726zm0 15c-1.126 0-2.227-.334-3.163-.96-.936-.625-1.665-1.514-2.096-2.555-.431-1.04-.544-2.184-.324-3.288.22-1.105.762-2.12 1.558-2.915.796-.796 1.81-1.338 2.914-1.558 1.105-.22 2.25-.107 3.29.324 1.04.43 1.929 1.16 2.554 2.096.625.936.96 2.037.96 3.163 0 .748-.148 1.488-.434 2.178-.286.691-.705 1.319-1.234 1.847-.528.529-1.156.948-1.847 1.234-.69.286-1.43.433-2.178.433z"/>
    <path fill="#E2DAD5" d="M34.65 14.76c0 .261-.077.516-.222.733-.145.217-.352.387-.593.486-.241.1-.507.127-.763.076-.256-.051-.49-.177-.675-.362-.185-.184-.31-.42-.362-.675-.05-.257-.024-.522.076-.763s.269-.448.486-.593c.217-.145.472-.222.733-.222.35 0 .686.14.933.387.248.247.387.583.387.933z"/>
</svg>
