<svg xmlns="http://www.w3.org/2000/svg" width="62" height="63" viewBox="0 0 62 63">
    <g fill="none">
        <ellipse cx="13.5" cy="52.403" fill="#EA7103" rx="8.8" ry="8.5" transform="rotate(-15.885 13.5 52.403)"/>
        <path fill="#F7910B" d="M61.3 34.9c0 13-11.9 23.5-30.3 23.5S.7 47.9.7 34.9 12.6 2.4 31 2.4s30.3 19.5 30.3 32.5z"/>
        <path fill="#F7910B" d="M61.3 34.9c0 13-11.9 19.5-30.3 19.5S.7 47.9.7 34.9 12.6.4 31 .4s30.3 21.5 30.3 34.5z"/>
        <path fill="#F9A908" d="M31 .4c18.4 0 30.3 21.5 30.3 34.5S49.4 54.4 31 54.4"/>
        <path fill="#F9A908" d="M61.3 34.9c0 13-11.9 19.5-30.3 19.5S.7 47.9.7 34.9 12.6 2.4 31 2.4s30.3 19.5 30.3 32.5z"/>
        <path fill="#F9C55D" d="M.7 34.9C.7 21.9 12.6 2.4 31 2.4"/>
        <path fill="#F7910B" d="M31 2.4c18.4 0 30.3 19.5 30.3 32.5S49.4 58.4 31 58.4"/>
        <path fill="#EA7103" d="M31 2.4c18.4 0 30.3 19.5 30.3 32.5"/>
        <g transform="translate(17 19)">
            <circle cx="3.6" cy="4.1" r="3.2" fill="#EA7103"/>
            <circle cx="24.4" cy="4.1" r="3.2" fill="#EA7103"/>
            <circle cx="3.6" cy="3.2" r="3.2" fill="#1E4784"/>
            <path fill="#00233F" d="M3.6 0c1.8 0 3.2 1.4 3.2 3.2 0 1.8-1.4 3.2-3.2 3.2"/>
            <circle cx="24.4" cy="3.2" r="3.2" fill="#1E4784"/>
            <path fill="#00233F" d="M24.4 0c1.8 0 3.2 1.4 3.2 3.2 0 1.8-1.4 3.2-3.2 3.2"/>
        </g>
        <g>
            <path fill="#19BCA4" d="M6.6 2.9c0 1.3-1.3.6-2.9.6-1.6 0-2.9.6-2.9-.6C.8 1.6 2.1.6 3.7.6c1.6 0 2.9 1 2.9 2.3z" transform="translate(18 8)"/>
            <path fill="#109DA0" d="M6.6 2.9c0 1.3-1.3.6-2.9.6-1.6 0-2.9.6-2.9-.6" transform="translate(18 8)"/>
        </g>
        <g>
            <path fill="#19BCA4" d="M0 2.9c0 1.3 1.3.6 2.9.6 1.6 0 2.9.6 2.9-.6C5.8 1.6 4.5.6 2.9.6 1.3.6 0 1.6 0 2.9z" transform="translate(38 11)"/>
            <path fill="#109DA0" d="M0 2.9c0 1.3 1.3.6 2.9.6 1.6 0 2.9.6 2.9-.6" transform="translate(38 11)"/>
        </g>
        <g>
            <path fill="#F9C55D" d="M15.8 2.2c0 1.2-3.5.7-7.8.7S.2 3.5.2 2.2C.2.9 3.7 0 8 0s7.8 1 7.8 2.2z" transform="translate(11 26)"/>
            <path fill="#F9A908" d="M39.8 2.2c0 1.2-3.5.7-7.8.7s-7.8.6-7.8-.7C24.2.9 27.7 0 32 0s7.8 1 7.8 2.2z" transform="translate(11 26)"/>
        </g>
        <circle cx="9.3" cy="31.9" r="1" fill="#F7910B"/>
        <circle cx="4.8" cy="33.9" r="1.1" fill="#F7910B"/>
        <circle cx="7.8" cy="29.9" r="1" fill="#F7910B"/>
        <circle cx="12.4" cy="31.7" r="1" fill="#F7910B"/>
        <circle cx="51.6" cy="32.2" r="1" fill="#F9A908"/>
        <circle cx="54.1" cy="33.6" r="1" fill="#F9A908"/>
        <circle cx="48.8" cy="24.8" r="1" fill="#F9A908"/>
        <circle cx="48.3" cy="36.4" r="1.3" fill="#F9A908"/>
        <circle cx="55.5" cy="36.5" r="1" fill="#F9A908"/>
        <circle cx="8.3" cy="35.9" r="1" fill="#F7910B"/>
        <circle cx="9.1" cy="27.5" r="1" fill="#F7910B"/>
        <circle cx="3.8" cy="13.7" r="1.1" fill="#F9A908"/>
        <circle cx="7" cy="10.2" r="1" fill="#F9A908"/>
        <circle cx="58.2" cy="16.1" r="1" fill="#F9A908"/>
        <circle cx="57.4" cy="13.2" r="1" fill="#F9A908"/>
        <path fill="#F9A908" d="M60.5 13.7c0 .3-.2.5-.5.5s-.5-.2-.5-.5.2-.5.5-.5c.2 0 .5.3.5.5z"/>
        <circle cx="5" cy="16.7" r="1" fill="#F9A908"/>
        <path fill="#02243E" d="M31.2 36.1c-3.5 0-6.5-.8-7.9-2.2-.4-.4-.4-1.1 0-1.6.4-.4 1.1-.4 1.6 0 1 1 3.5 1.6 6.3 1.6 1.175 0 2.316-.106 3.31-.302 1.373-.272 2.468-.718 2.99-1.298.4-.4 1.1-.4 1.6 0 .4.4.4 1.1 0 1.6-1.4 1.4-4.4 2.2-7.9 2.2z"/>
        <g>
            <path fill="#AAD6C3" d="M18 16.5c-7.5-.6-5.5-2.2-5.3-4.4.2-2.2-1.6-4.1 5.9-3.5 7.5.6 10.4 2.6 10.2 4.8-.1 2.2-3.3 3.7-10.8 3.1z" transform="translate(2 33)"/>
            <path fill="#AAD6C3" d="M28.8 13.4c-.2 2.2-3.3 3.7-10.9 3.1-7.5-.6-5.5-2.2-5.3-4.4" transform="translate(2 33)"/>
            <path fill="#CCF2E3" d="M15.6 8.3c-7.5-.6-5.5-2.2-5.3-4.4.2-2.2-2.7-4.2 4.9-3.6 7.5.6 11.5 2.8 11.3 4.9-.2 2.2-3.3 3.7-10.9 3.1z" transform="translate(2 33)"/>
            <path fill="#AAD6C3" d="M26.5 5.2c-.2 2.2-3.3 3.7-10.9 3.1-7.5-.6-5.5-2.2-5.3-4.4M14.9 24c-7.5-.6-5.5-2.2-5.3-4.4.2-2.2-1.6-4.1 5.9-3.5 7.5.6 10.4 2.6 10.2 4.8-.1 2.2-3.3 3.7-10.8 3.1z" transform="translate(2 33)"/>
            <path fill="#AAD6C3" d="M25.7 21c-.2 2.2-3.3 3.7-10.9 3.1-7.5-.6-5.5-2.2-5.3-4.4" transform="translate(2 33)"/>
            <path fill="#CCF2E3" d="M13 23.6C6 23.1.5 19 1 11.9 1.6 4.9 7.7-.4 14.6.1c7 .6 9.1 6.5 8.5 13.5-.5 7.1-3.1 10.6-10.1 10z" transform="translate(2 33)"/>
            <path fill="#AAD6C3" d="M13 23.6C6 23.1.5 19 1 11.9c.6-7 5.5-8.7 12.4-7.8 11.2 1.3 10-1.9 9.8 9.2-.1 7.1-3 10.9-10.2 10.3z" transform="translate(2 33)"/>
            <g>
                <path fill="#AAD6C3" d="M7.1 21.6C4.6 22 1.7 17.3.8 11.1-.2 4.9 2.6.5 5.2.1 7.7-.3 9 3.5 10 9.7c.9 6.1-.4 11.5-2.9 11.9z" transform="translate(2 33) translate(1 7)"/>
                <path fill="#CCF2E3" d="M7.1 21.6C4.6 22 1.7 17.3.8 11.1-.2 4.9 2.6.5 5.2.1" transform="translate(2 33) translate(1 7)"/>
            </g>
            <path fill="#E7F7EF" d="M21.3 4.1c-2.3-.3-4-1-4-1.6.1-.5 2-.6 4.2-.3 2.3.4 2.7.8 2.7 1.4 0 .5-.6.9-2.9.5z" transform="translate(2 33)"/>
            <path fill="#CCF2E3" d="M22.5 12.1c-2.3-.1-4.1-.7-4.1-1.2s1.9-.8 4.2-.7c2.3.1 2.8.6 2.8 1.1 0 .5-.6.9-2.9.8zM21.1 19.6c-2.3-.1-4.1-.6-4.1-1.1 0-.5 1.9-.8 4.2-.7 2.3.1 2.8.6 2.8 1.1-.1.5-.6.9-2.9.7z" transform="translate(2 33)"/>
            <path fill="#E7F7EF" d="M4.1 16.2c.1 1.9-.3 3.5-.8 3.6-.5 0-1-1.5-1.1-3.5-.1-1.9.3-2.4.8-2.4.5-.1 1 .3 1.1 2.3z" transform="translate(2 33)"/>
        </g>
    </g>
</svg>
