<svg xmlns="http://www.w3.org/2000/svg" width="66" height="58" viewBox="0 0 66 58">
    <g fill="none" transform="translate(1)">
        <ellipse cx="10.884" cy="45.694" fill="#EA7103" rx="8.8" ry="8.5" transform="rotate(-15.885 10.884 45.694)"/>
        <g transform="translate(3)">
            <path fill="#F7910B" d="M60.9 34.5C60.9 47.5 49 58 30.6 58S.3 47.5.3 34.5 12.2 2 30.6 2s30.3 19.5 30.3 32.5z"/>
            <path fill="#F7910B" d="M60.9 34.5C60.9 47.5 49 54 30.6 54S.3 47.5.3 34.5 12.2 0 30.6 0s30.3 21.5 30.3 34.5z"/>
            <path fill="#F9A908" d="M30.6 0C49 0 60.9 21.5 60.9 34.5S49 54 30.6 54"/>
            <path fill="#F9A908" d="M60.9 34.5C60.9 47.5 49 54 30.6 54S.3 47.5.3 34.5 12.2 2 30.6 2s30.3 19.5 30.3 32.5z"/>
            <path fill="#F9C55D" d="M.3 34.5C.3 21.5 12.2 2 30.6 2"/>
            <path fill="#F7910B" d="M30.6 2C49 2 60.9 21.5 60.9 34.5S49 58 30.6 58"/>
            <path fill="#EA7103" d="M30.6 2C49 2 60.9 21.5 60.9 34.5"/>
            <g transform="translate(17 18)">
                <circle cx="3.2" cy="4.7" r="3.2" fill="#EA7103"/>
                <circle cx="24" cy="4.7" r="3.2" fill="#EA7103"/>
                <circle cx="3.2" cy="3.8" r="3.2" fill="#1E4784"/>
                <path fill="#00233F" d="M3.2.6C5 .6 6.4 2 6.4 3.8 6.4 5.6 5 7 3.2 7"/>
                <circle cx="24" cy="3.8" r="3.2" fill="#1E4784"/>
                <path fill="#00233F" d="M24 .6c1.8 0 3.2 1.4 3.2 3.2C27.2 5.6 25.8 7 24 7"/>
            </g>
            <g>
                <path fill="#19BCA4" d="M6.2 2.5c0 1.3-1.3.6-2.9.6-1.6 0-2.9.6-2.9-.6C.4 1.2 1.7.2 3.3.2c1.6 0 2.9 1 2.9 2.3z" transform="translate(18 8)"/>
                <path fill="#109DA0" d="M6.2 2.5c0 1.3-1.3.6-2.9.6-1.6 0-2.9.6-2.9-.6" transform="translate(18 8)"/>
            </g>
            <g>
                <path fill="#19BCA4" d="M.6 2.5c0 1.3 1.3.6 2.9.6 1.6 0 2.9.6 2.9-.6C6.4 1.2 5.1.2 3.5.2 1.9.2.6 1.2.6 2.5z" transform="translate(37 11)"/>
                <path fill="#109DA0" d="M.6 2.5c0 1.3 1.3.6 2.9.6 1.6 0 2.9.6 2.9-.6" transform="translate(37 11)"/>
            </g>
            <g>
                <path fill="#F9C55D" d="M16.4 2.8c0 1.2-3.5.7-7.8.7S.8 4.1.8 2.8C.8 1.5 4.3.6 8.6.6s7.8 1 7.8 2.2z" transform="translate(10 25)"/>
                <path fill="#F9A908" d="M40.4 2.8c0 1.2-3.5.7-7.8.7s-7.8.6-7.8-.7c0-1.3 3.5-2.2 7.8-2.2s7.8 1 7.8 2.2z" transform="translate(10 25)"/>
            </g>
            <circle cx="8.9" cy="31.5" r="1" fill="#F7910B"/>
            <circle cx="4.4" cy="33.5" r="1.1" fill="#F7910B"/>
            <circle cx="7.4" cy="29.5" r="1" fill="#F7910B"/>
            <circle cx="12" cy="31.3" r="1" fill="#F7910B"/>
            <circle cx="51.2" cy="31.8" r="1" fill="#F9A908"/>
            <circle cx="53.7" cy="33.2" r="1" fill="#F9A908"/>
            <circle cx="48.4" cy="24.4" r="1" fill="#F9A908"/>
            <circle cx="47.9" cy="36" r="1.3" fill="#F9A908"/>
            <circle cx="55.1" cy="36.1" r="1" fill="#F9A908"/>
            <circle cx="7.9" cy="35.5" r="1" fill="#F7910B"/>
            <circle cx="8.7" cy="27.1" r="1" fill="#F7910B"/>
            <circle cx="3.4" cy="13.3" r="1.1" fill="#F9A908"/>
            <circle cx="6.6" cy="9.8" r="1" fill="#F9A908"/>
            <circle cx="57.8" cy="15.7" r="1" fill="#F9A908"/>
            <circle cx="57" cy="12.8" r="1" fill="#F9A908"/>
            <circle cx="59.6" cy="13.3" r="1" fill="#F9A908"/>
            <circle cx="4.6" cy="16.3" r="1" fill="#F9A908"/>
        </g>
        <g>
            <path fill="#CCF2E3" d="M10.5.1c-2.2-.7-6.3 6.5-8 12.2C.7 18-1.3 26 5.6 20.1c1.8-1.5 3.2 1.7 5-4 1.7-5.7 2.2-15.3-.1-16z" transform="translate(3 24)"/>
            <path fill="#AAD6C3" d="M20.2 26c-7.1 0-5.3-1.7-5.2-3.7.1-2-1.7-3.7 5.5-3.7 7.1 0 9.9 1.7 9.8 3.7 0 2.1-2.9 3.7-10.1 3.7z" transform="translate(3 24)"/>
            <path fill="#AAD6C3" d="M30.4 22.4c-.1 2-3 3.7-10.1 3.7s-5.3-1.7-5.2-3.7" transform="translate(3 24)"/>
            <path fill="#CCF2E3" d="M18.9 18.6c-7.1 0-5.2-1.6-5.2-3.7.1-2-2.7-3.8 4.5-3.7 7.1 0 10.9 1.7 10.8 3.8-.1 2-3 3.7-10.1 3.6z" transform="translate(3 24)"/>
            <path fill="#AAD6C3" d="M29 15c-.1 2-3 3.7-10.1 3.6-7.1 0-5.2-1.6-5.2-3.7M17 33.3c-7.1 0-5.3-1.7-5.2-3.7.1-2-1.7-3.7 5.5-3.7 7.1 0 9.9 1.7 9.8 3.7 0 2.1-2.9 3.7-10.1 3.7z" transform="translate(3 24)"/>
            <path fill="#AAD6C3" d="M27.1 29.7c-.1 2-3 3.7-10.1 3.7s-5.3-1.7-5.2-3.7" transform="translate(3 24)"/>
            <path fill="#CCF2E3" d="M12.3 33.3c-6.6 0-12-3.4-11.8-10C.8 16.7 6.4 11.4 13 11.4s8.8 5.3 8.5 11.9c-.3 6.6-2.6 10-9.2 10z" transform="translate(3 24)"/>
            <path fill="#AAD6C3" d="M12.3 33.3c-6.6 0-12-3.4-11.8-10 .2-6.6 6.2-9.2 12.8-8.6 6.8.6 8-2.1 8.2 8.2.1 6.6-2.4 10.4-9.2 10.4z" transform="translate(3 24)"/>
            <path fill="#E7F7EF" d="M28.2 20.3c-.9-.4-1.7-.5-1.9-.3-.1.3.5.8 1.4 1.3.9.4 1.7.5 1.9.3.1-.3-.5-.8-1.4-1.3zM26.4 12.9c-.9-.4-1.7-.5-1.9-.3-.1.3.5.8 1.4 1.3.9.4 1.7.5 1.9.3.1-.4-.5-.9-1.4-1.3zM24.8 27.8c-.9-.4-1.7-.5-1.9-.3-.1.3.5.8 1.4 1.3.9.4 1.7.5 1.9.3.1-.3-.5-.9-1.4-1.3zM14.6 13.8c-2.2 0-3.9-.3-3.9-.8s1.8-.9 3.9-.9c2.2 0 2.7.4 2.7.8-.1.5-.6.9-2.7.9zM9.8 4.7C8.4 7 6.8 8.6 6.2 8.2c-.6-.4 0-2.6 1.4-4.9C9 1 9.8.8 10.4 1.2c.6.3.8 1.2-.6 3.5z" transform="translate(3 24)"/>
        </g>
        <path fill="#02243E" d="M33.2 36.1c-3.5 0-6.5-.8-7.9-2.2-.4-.4-.4-1.1 0-1.6.4-.4 1.1-.4 1.6 0 1 1 3.5 1.6 6.3 1.6 1.175 0 2.316-.106 3.31-.302 1.373-.272 2.468-.718 2.99-1.298.4-.4 1.1-.4 1.6 0 .4.4.4 1.1 0 1.6-1.4 1.4-4.4 2.2-7.9 2.2z"/>
    </g>
</svg>
