<svg xmlns="http://www.w3.org/2000/svg" width="32" height="32" viewBox="0 0 32 32">
    <g fill="none">
        <circle cx="16" cy="16.004" r="13.128" fill="#E2DAD5" transform="rotate(-12.2 16 16.004)"/>
        <path fill="#EFE6DF" d="M8.432 11.512l-1.304-.8c-.204-.121-.349-.323-.397-.556-.049-.232.002-.475.141-.668 1.922-2.677 4.917-4.38 8.2-4.664.24-.02.476.061.652.224.177.163.277.392.276.632V7.2c.001.42-.324.77-.744.8-2.287.223-4.37 1.41-5.728 3.264-.236.369-.724.479-1.096.248zM4.864 14.776c.025-.235.147-.45.337-.591.19-.141.43-.197.663-.153l1.504.288c.424.066.72.454.672.88 0 .22-.09.43-.248.58-.16.152-.373.231-.592.22H5.68"/>
        <path fill="#F26666" d="M13.16 13.272c-.447-.515-.955-.975-1.512-1.368-.584-.429-1.243-.743-1.944-.928.208.693.538 1.344.976 1.92.243.327.51.634.8.92-.1.087-.193.18-.28.28-.318.358-.587.756-.8 1.184.479-.033.951-.125 1.408-.272.428-.143.843-.322 1.24-.536l.8-.432-.688-.768zM18.84 13.272c.447-.515.955-.975 1.512-1.368.584-.429 1.243-.743 1.944-.928-.208.693-.538 1.344-.976 1.92-.243.327-.51.634-.8.92.1.087.193.18.28.28.318.358.587.756.8 1.184-.479-.033-.951-.125-1.408-.272-.428-.143-.843-.322-1.24-.536l-.8-.432.688-.768zM16 20.864c2.107-.018 4.188.465 6.072 1.408.288.152.536-.36.36-.736-1.424-3.08-3.776-5.088-6.4-5.088-2.624 0-5.008 2.008-6.4 5.088-.176.376.072.888.36.736 1.865-.933 3.923-1.415 6.008-1.408z"/>
        <path fill="#FFF" d="M12 18.12c2.611-.768 5.389-.768 8 0-1.075-1.042-2.504-1.639-4-1.672-1.496.033-2.925.63-4 1.672z"/>
        <path fill="#F26666" d="M13.008 6.984c-.153.4-.369.773-.64 1.104-.262.344-.575.646-.928.896-.364.247-.77.424-1.2.52-.424.093-.864.076-1.28-.048.409-.031.812-.115 1.2-.248.366-.144.715-.33 1.04-.552.663-.488 1.27-1.049 1.808-1.672zM18.992 6.984c.538.623 1.145 1.184 1.808 1.672.327.223.679.408 1.048.552.388.133.791.217 1.2.248-.416.124-.856.14-1.28.048-.43-.096-.836-.273-1.2-.52-.353-.25-.666-.552-.928-.896-.274-.33-.493-.704-.648-1.104z"/>
    </g>
</svg>
