<svg xmlns="http://www.w3.org/2000/svg" width="32" height="32" viewBox="0 0 32 32">
    <g fill="none">
        <circle cx="16.004" cy="16.003" r="13.128" fill="#E2DAD5" transform="rotate(-75.57 16.004 16.003)"/>
        <path fill="#EFE6DF" d="M8.432 11.512l-1.304-.8c-.204-.121-.349-.323-.397-.556-.049-.232.002-.475.141-.668 1.922-2.677 4.917-4.38 8.2-4.664.24-.02.476.061.652.224.177.163.277.392.276.632V7.2c.001.42-.324.77-.744.8-2.287.223-4.37 1.41-5.728 3.264-.236.369-.724.479-1.096.248zM7.2 16H5.68c-.237-.001-.462-.102-.621-.276-.16-.175-.24-.408-.219-.644v-.304c.025-.235.147-.45.337-.591.19-.141.43-.197.663-.153l1.504.288c.433.054.743.446.696.88 0 .22-.09.43-.248.58-.16.152-.373.231-.592.22z"/>
        <path fill="#F26666" d="M11.048 16.456c-.93.007-1.857-.101-2.76-.32-.136 0-.248.08-.168.168.776.77 1.834 1.19 2.928 1.16 1.094.03 2.152-.39 2.928-1.16.08-.088 0-.2-.16-.168-.906.22-1.836.327-2.768.32zM20.952 16.456c-.932.007-1.862-.1-2.768-.32-.128 0-.24.08-.16.168 1.645 1.548 4.211 1.548 5.856 0 .08-.088 0-.2-.168-.168-.903.219-1.83.327-2.76.32z"/>
        <circle cx="16" cy="22.536" r="1.6" fill="#F26666"/>
        <path fill="#F26666" d="M20.8 7.256h-1.856l.8-1.272h-.376c-.22 0-.4-.18-.4-.4 0-.22.18-.4.4-.4h1.84l-.8 1.272h.392c.22 0 .4.18.4.4-.004.22-.18.396-.4.4zM25.368 6.504h-3.2l1.304-2.032h-.304c-.442 0-.8-.358-.8-.8 0-.442.358-.8.8-.8h3.2l-1.312 2.032h.304c.442 0 .8.358.8.8 0 .442-.358.8-.8.8h.008zM28.256 11.552h-3.752l1.688-2.624h-.8c-.442 0-.8-.358-.8-.8 0-.442.358-.8.8-.8h3.76L27.44 9.952h.8c.442 0 .8.358.8.8 0 .442-.358.8-.8.8h.016z"/>
    </g>
</svg>
