<svg xmlns="http://www.w3.org/2000/svg" width="21" height="21" viewBox="0 0 21 21"><g><g><path fill="#2f2f2f" d="M16.453 7.825c0 1.405-.328 2.764-.984 4.075-.719 1.405-1.703 2.514-2.953 3.325-1.407.906-3 1.359-4.782 1.359A8.708 8.708 0 0 1 3 15.225h.75c1.406 0 2.672-.437 3.797-1.311-.656 0-1.25-.195-1.781-.585a2.867 2.867 0 0 1-1.079-1.523 4.2 4.2 0 0 0 1.407-.046 3.12 3.12 0 0 1-1.782-1.078 2.978 2.978 0 0 1-.703-1.967v-.047c.438.25.907.39 1.407.422a3.03 3.03 0 0 1-1.407-2.6c0-.546.141-1.053.422-1.522A9.248 9.248 0 0 0 6.844 7.24a8.409 8.409 0 0 0 3.562.96c-.156-.687-.11-1.32.14-1.897a3.106 3.106 0 0 1 1.15-1.382 3.02 3.02 0 0 1 1.71-.515c.875 0 1.61.328 2.203.984a5.832 5.832 0 0 0 1.97-.75 3.149 3.149 0 0 1-1.36 1.687A6.272 6.272 0 0 0 18 5.858a6.816 6.816 0 0 1-1.547 1.593zM2.25 0A2.17 2.17 0 0 0 .656.656 2.17 2.17 0 0 0 0 2.25v16.5c0 .625.219 1.156.656 1.594A2.17 2.17 0 0 0 2.25 21h16.5a2.17 2.17 0 0 0 1.594-.656A2.17 2.17 0 0 0 21 18.75V2.25a2.17 2.17 0 0 0-.656-1.594A2.17 2.17 0 0 0 18.75 0z"/></g></g></svg>