<svg xmlns="http://www.w3.org/2000/svg" width="80" height="80" viewBox="0 0 80 80">
    <defs>
        <linearGradient id="prefix__a" x1="0%" x2="100%" y1=".474%" y2="99.526%">
            <stop offset="0%" stop-color="#FE8D45"/>
            <stop offset="100%" stop-color="#FF1963"/>
        </linearGradient>
        <linearGradient id="prefix__b" x1="50%" x2="81.641%" y1="45.12%" y2="87.967%">
            <stop offset="0%" stop-color="#FFF"/>
            <stop offset="100%" stop-color="#FE8D45"/>
        </linearGradient>
    </defs>
    <g fill="none" fill-rule="evenodd">
        <path fill="url(#prefix__a)" d="M17.731 77.046c20.926 7.649 52.974.084 60.584-20.914 7.61-20.998-12.505-46.361-33.43-54.01C23.958-5.525 12.377 13.319 4.767 34.318c-7.61 20.998-7.963 35.081 12.963 42.73z"/>
        <path fill="url(#prefix__b)" d="M71.585 61.286c6.862-11.719 6.114-31.905-5.278-38.928-11.392-7.023-28.507 2.15-35.369 13.869-6.862 11.719 2.817 20.884 14.209 27.907s19.576 8.87 26.438-2.848z" opacity=".394"/>
        <path fill="#FFF" fill-rule="nonzero" d="M5.99 46.128c0 3.466 2.628 5.355 5.77 5.397.862 0 2.258-.229 3.614-1.225l-.74-1.08c-1.129.852-2.402.914-2.833.914-2.547 0-4.251-1.702-4.272-4.006.02-2.264 1.667-3.947 4.14-4.005l.132-.001c.43 0 1.704.062 2.833.913l.74-1.08c-1.356-.995-2.752-1.224-3.614-1.224-3.142.042-5.77 1.93-5.77 5.397zm14.333-19.75h-1.54v24.918h1.54V26.378zM33.82 40.96h-1.54v2.055c-.904-1.557-2.362-2.284-4.066-2.284-3.101 0-5.093 2.429-5.093 5.397 0 2.968 1.992 5.397 5.093 5.397 1.704 0 3.162-.727 4.066-2.283v2.054h1.54V40.96zm-9.159 5.168c0-2.221 1.376-4.006 3.697-4.006 2.176 0 3.942 1.598 3.942 4.006 0 2.408-1.766 4.006-3.942 4.006-2.32 0-3.697-1.827-3.697-4.006zm19.019-3.155c-.39-1.578-1.787-2.242-3.121-2.242-2.054 0-3.307 1.391-3.307 3.03 0 1.414.972 2.239 2.368 2.722l1.555.517c.883.29 1.458.706 1.458 1.515 0 .996-.904 1.64-2.054 1.64s-2.115-.581-2.423-1.453l-1.355.353c.472 1.598 2.033 2.47 3.778 2.47 1.89 0 3.594-1.121 3.594-3.01 0-1.142-.637-2.22-2.444-2.823l-1.52-.498-.15-.052c-.647-.238-1.266-.652-1.266-1.443 0-.788.677-1.598 1.868-1.598.698 0 1.356.332 1.643 1.204l1.376-.332zm3.535 24.108h1.54V49.24c.904 1.557 2.362 2.284 4.066 2.284 3.101 0 5.093-2.429 5.093-5.397 0-2.968-1.992-5.397-5.093-5.397-1.704 0-3.162.727-4.066 2.284V40.96h-1.54v26.12zm9.159-20.953c0 2.221-1.376 4.006-3.696 4.006-2.177 0-3.943-1.598-3.943-4.006 0-2.408 1.766-4.006 3.943-4.006 2.32 0 3.696 1.827 3.696 4.006z"/>
    </g>
</svg>
