<svg xmlns="http://www.w3.org/2000/svg" width="32" height="32" viewBox="0 0 32 32">
    <g fill="none">
        <path fill="#F2A35E" d="M2.888 3.785l2.048 9.257 8-7.805L3.52 3.17c-.176-.035-.359.018-.486.142-.127.125-.182.302-.146.474z"/>
        <path fill="#F26666" d="M4.032 8.96L4.504 11.091 8.536 4.277 7 3.941zM11.064 4.839L9.528 4.496 5.696 10.974 6.56 11.458 7.928 10.123z"/>
        <ellipse cx="15.999" cy="15.965" fill="#E2DAD5" rx="12.826" ry="13.11" transform="rotate(-76.17 15.999 15.965)"/>
        <path fill="#EFE6DF" d="M8.432 11.582l-1.304-.78c-.204-.118-.349-.315-.397-.542-.049-.227.002-.464.141-.652C8.799 7 11.797 5.345 15.08 5.073c.236-.02.47.058.644.214.174.155.275.375.276.606v1.49c.001.411-.324.752-.744.78-2.286.215-4.37 1.37-5.728 3.177-.236.36-.724.468-1.096.242zM7.2 15.961H5.68c-.237-.001-.462-.1-.621-.27-.16-.17-.24-.398-.219-.628v-.296c.029-.232.156-.442.35-.579.195-.136.44-.187.674-.14l1.504.282c.42.085.71.464.672.882-.008.208-.102.405-.26.546-.157.14-.366.214-.58.203z"/>
        <path fill="#F26666" d="M15.928 18.38c.503.178.985.405 1.44.68.232.124.448.273.672.405.31.182.528.482.6.828.037.388-.136.766-.456.999-.248.164-.448.288-.688.421-.457.27-.94.497-1.44.68.319-.418.678-.805 1.072-1.156.176-.18.408-.359.568-.507.106-.083.163-.212.152-.344 0-.117-.064-.21-.264-.359-.2-.148-.4-.327-.592-.515-.39-.344-.746-.723-1.064-1.132z"/>
        <path fill="#F26666" d="M16.168 23.945c.184-.279.396-.54.632-.78.225-.23.463-.45.712-.656.128-.14.12-.195.056-.32-.094-.102-.182-.209-.264-.32-.11-.157-.183-.335-.216-.523.194-.017.39.004.576.063.478.111.794.554.736 1.03-.048.254-.194.48-.408.632-.279.186-.57.353-.872.5-.304.155-.623.28-.952.374zM20.48 15.922c-.633.029-1.26.136-1.864.32.325-.705 1.025-1.175 1.817-1.218.79-.042 1.54.35 1.943 1.015-.625-.116-1.261-.155-1.896-.117zM21.6 12.394c-.606-.207-1.26-.248-1.888-.117.552-.408 1.278-.514 1.928-.28.614.181 1.108.627 1.344 1.209-.394-.367-.867-.645-1.384-.812zM11.52 15.922c.633.029 1.26.136 1.864.32-.286-.735-1.01-1.22-1.816-1.218-.81-.102-1.599.304-1.968 1.015.632-.118 1.278-.157 1.92-.117zM10.4 12.394c.606-.207 1.26-.248 1.888-.117-.542-.394-1.25-.5-1.888-.28-.614.181-1.108.627-1.344 1.209.382-.362.841-.64 1.344-.812z"/>
        <path fill="#F26666" d="M27.008 22.111h-8.8c-.44 0-.36-.343-.36-.78 0-.431.358-.78.8-.78h8.36c.2.024.396-.067.504-.233.107-.165.107-.377 0-.543-.108-.166-.304-.256-.504-.232h-.104c-.06.431-.466.734-.908.676-.442-.059-.752-.455-.692-.886v-.601c0-.431.358-.78.8-.78h.872c.787-.048 1.536.335 1.944.993.408.658.408 1.483 0 2.141-.408.658-1.157 1.041-1.944.994l.032.031z"/>
        <path fill="#F2A35E" d="M20.88 22.119L20.104 22.119 19.328 20.558 20.104 20.558zM23.936 22.119L23.16 22.119 22.376 20.558 23.152 20.558zM26.984 22.119L26.216 22.119 25.432 20.558 26.208 20.558z"/>
        <path fill="#F26666" d="M3.256 5.448L3.728 7.579 6.008 3.723 4.48 3.387z"/>
        <path fill="#F2A35E" d="M22.6 5.198c0 .388.322.702.72.702.398 0 .72-.314.72-.702 0-.388-.322-.702-.72-.702-.398 0-.72.314-.72.702z"/>
        <circle cx="20.472" cy="7.056" r="1" fill="#F2A35E"/>
        <path fill="#F2A35E" d="M22.984 9.53c0 .077-.064.14-.144.14-.037 0-.073-.015-.1-.041-.025-.027-.038-.063-.036-.1 0-.073.06-.132.136-.132.077 0 .14.058.144.133zM4.8 19.559c0 .285-.176.541-.446.65-.27.108-.58.046-.786-.156-.205-.203-.265-.506-.15-.768.113-.262.378-.432.67-.428.395.004.712.317.712.702zM8.376 21.62c.004.246.21.444.464.444.23-.03.403-.221.403-.448s-.172-.42-.403-.45c-.256 0-.464.204-.464.454zM4.536 23.337c0 .431.268.82.677.982.41.163.88.068 1.189-.24.31-.309.396-.77.22-1.165-.176-.396-.58-.648-1.022-.639-.591.013-1.064.484-1.064 1.062zM7.648 26.747c.004.196.168.352.368.352.199 0 .36-.158.36-.352 0-.195-.16-.354-.36-.359-.201.004-.364.163-.368.36zM12.544 25.257c0 .168.104.319.264.382.16.064.342.027.463-.093.12-.12.155-.299.086-.453-.068-.154-.225-.253-.397-.25-.112 0-.219.044-.297.122-.078.077-.121.183-.119.292zM22.6 26.786c-.003.285.17.544.439.655.269.111.58.053.787-.147.208-.2.27-.503.16-.767-.111-.263-.374-.435-.666-.435-.395 0-.716.31-.72.694zM26.4 9.49c-.028.248.091.488.307.62.216.133.49.133.706 0 .216-.132.335-.372.307-.62.028-.246-.091-.487-.307-.62-.216-.131-.49-.131-.706 0-.216.133-.335.374-.307.62z"/>
    </g>
</svg>
