<svg xmlns="http://www.w3.org/2000/svg" width="14" height="13" viewBox="0 0 14 13"><g><g><path fill="#2f2f2f" d="M12.632 1.333a3.616 3.616 0 0 1 1.176 1.714c.219.679.25 1.361.096 2.049a3.533 3.533 0 0 1-.998 1.78l-5.277 5.356a.873.873 0 0 1-1.258 0L1.094 6.903a3.688 3.688 0 0 1-.998-1.807 3.822 3.822 0 0 1 .096-2.049c.219-.678.61-1.25 1.176-1.714A3.491 3.491 0 0 1 3.036.557 3.756 3.756 0 0 1 4.867.69c.602.196 1.13.526 1.586.99L7 2.217l.547-.536a3.886 3.886 0 0 1 1.586-.99 3.756 3.756 0 0 1 1.831-.134c.62.107 1.176.366 1.668.776z"/></g></g></svg>