<svg xmlns="http://www.w3.org/2000/svg" width="40" height="40" fill="none" viewBox="0 0 40 40">
    <path fill="#E05B06" fill-rule="evenodd" d="M0 19.912C0 30.767 8.938 39.57 19.967 39.57c11.027 0 19.967-8.802 19.967-19.657 0-10.854-8.94-19.654-19.967-19.654C8.938.258 0 9.058 0 19.912zM13.348 36.5c-6.73-2.596-11.5-9.042-11.5-16.587 0-9.84 8.101-17.813 18.095-17.813 9.994 0 18.096 7.973 18.096 17.813 0 9.837-8.102 17.812-18.096 17.812-1.867 0-3.665-.278-5.357-.796.736-1.183 1.84-3.122 2.248-4.669.22-.834 1.127-4.234 1.127-4.234.59 1.108 2.314 2.047 4.149 2.047 5.456 0 9.389-4.941 9.389-11.08 0-5.885-4.879-10.289-11.156-10.289-7.808 0-11.955 5.162-11.955 10.781 0 2.61 1.411 5.866 3.67 6.901.344.156.528.087.607-.24l.167-.666c.113-.454.254-1.018.336-1.353.043-.18.021-.334-.126-.511-.749-.893-1.345-2.535-1.345-4.066 0-3.928 3.022-7.73 8.17-7.73 4.446 0 7.557 2.981 7.557 7.246 0 4.82-2.472 8.158-5.689 8.158-1.775 0-3.105-1.444-2.68-3.219.185-.765.432-1.552.672-2.317.425-1.352.828-2.637.828-3.613 0-1.369-.747-2.51-2.288-2.51-1.818 0-3.275 1.849-3.275 4.327 0 1.576.541 2.644.541 2.644s-1.794 7.463-2.121 8.852c-.364 1.541-.223 3.704-.064 5.112z" clip-rule="evenodd"/>
</svg>
