<svg xmlns="http://www.w3.org/2000/svg" width="24" height="24" fill="none" viewBox="0 0 24 24">
    <path fill="#F4A3B1" fill-rule="evenodd" d="M12 24c6.627 0 12-5.12 12-11.436C24 6.25 18.627 1.13 12 1.13S0 6.249 0 12.564C0 18.88 5.373 24 12 24zm0-6.404c2.916 0 5.28-2.253 5.28-5.032S14.916 7.533 12 7.533c-2.916 0-5.28 2.252-5.28 5.031 0 2.78 2.364 5.032 5.28 5.032z" clip-rule="evenodd"/>
    <path fill="#EFE6DF" d="M10.816 8.933c.705.517 1.663.517 2.368 0l4.763-3.497c1.202-.883 1.05-2.729-.336-3.283C13.454.491 10.326.456 6.281 2.135c-1.357.564-1.485 2.378-.3 3.248l4.835 3.55z"/>
    <path fill="#EC4E53" d="M10.816 7.533c.705.517 1.663.517 2.368 0l4.273-3.137c1.202-.883 1.049-2.731-.34-3.275C13.34-.355 10.451-.386 6.775 1.104c-1.362.552-1.49 2.368-.305 3.238l4.345 3.19z"/>
</svg>
