<svg xmlns="http://www.w3.org/2000/svg" width="40" height="40" fill="none" viewBox="0 0 40 40">
    <path fill="#E05B06" fill-rule="evenodd" d="M20 0C8.954 0 0 8.954 0 20s8.954 20 20 20 20-8.954 20-20S31.046 0 20 0zm-4.397 9.398c1.138-.052 1.501-.065 4.398-.065h-.003c2.897 0 3.26.013 4.397.065 1.136.052 1.912.232 2.592.495.702.273 1.295.637 1.889 1.23.593.593.957 1.188 1.23 1.89.263.678.443 1.453.496 2.589.051 1.138.065 1.501.065 4.398s-.014 3.26-.065 4.398c-.053 1.135-.233 1.91-.495 2.588-.274.702-.638 1.297-1.232 1.89-.592.593-1.186.958-1.888 1.23-.678.265-1.454.444-2.59.496-1.138.052-1.5.065-4.397.065-2.897 0-3.26-.013-4.398-.065-1.136-.052-1.91-.231-2.59-.495-.7-.273-1.296-.638-1.888-1.231-.594-.593-.958-1.188-1.23-1.89-.264-.678-.444-1.453-.496-2.589-.052-1.137-.065-1.5-.065-4.397 0-2.897.014-3.26.065-4.398.05-1.136.23-1.91.495-2.59.273-.7.638-1.296 1.231-1.889.593-.593 1.188-.957 1.89-1.23.678-.263 1.453-.443 2.589-.495z" clip-rule="evenodd"/>
    <path fill="#E05B06" fill-rule="evenodd" d="M19.044 11.256h.957c2.848 0 3.186.01 4.31.06 1.04.048 1.605.222 1.98.368.498.194.853.425 1.226.798.374.373.605.729.799 1.227.146.375.32.94.367 1.98.051 1.124.062 1.462.062 4.309 0 2.846-.01 3.184-.062 4.309-.047 1.04-.221 1.604-.367 1.98-.194.497-.425.852-.799 1.225-.373.373-.727.604-1.225.798-.376.146-.94.32-1.98.367-1.125.051-1.463.063-4.311.063s-3.186-.012-4.31-.063c-1.04-.048-1.605-.221-1.98-.367-.499-.194-.854-.425-1.228-.798-.373-.374-.604-.728-.798-1.226-.146-.376-.32-.94-.367-1.98-.051-1.125-.061-1.463-.061-4.311 0-2.849.01-3.184.06-4.309.048-1.04.222-1.604.368-1.98.194-.498.425-.854.798-1.227.374-.373.73-.604 1.227-.798.376-.147.94-.32 1.98-.368.985-.045 1.366-.058 3.354-.06v.003zm6.65 1.77c-.706 0-1.28.573-1.28 1.28 0 .707.574 1.28 1.28 1.28.707 0 1.28-.573 1.28-1.28 0-.706-.573-1.28-1.28-1.28zM14.525 20c0-3.025 2.452-5.478 5.477-5.478 3.025 0 5.477 2.453 5.477 5.478S23.026 25.477 20 25.477c-3.025 0-5.478-2.452-5.478-5.477z" clip-rule="evenodd"/>
    <path fill="#E05B06" d="M20.001 16.445c1.964 0 3.556 1.591 3.556 3.555 0 1.964-1.592 3.556-3.556 3.556S16.445 21.964 16.445 20s1.592-3.555 3.556-3.555z"/>
</svg>
