<svg xmlns="http://www.w3.org/2000/svg" width="32" height="32" viewBox="0 0 32 32">
    <g fill="#F26666">
        <path d="M29.525 2.925c-.667.295-1.36.529-2.069.7.786-.747 1.37-1.68 1.7-2.712.043-.134 0-.28-.11-.368-.11-.088-.263-.098-.383-.026-.986.586-2.051 1.026-3.163 1.306-.066.01-.134.01-.2 0-.203-.001-.399-.077-.55-.212C23.567.57 22.045-.002 20.469 0c-.682.002-1.36.103-2.013.3-2.204.67-3.861 2.497-4.312 4.756-.055.281-.094.565-.119.85-.038.422.222.814.625.944.927.252 1.868.446 2.819.581-1.23.114-2.468.128-3.7.044l-.388-.044C8.967 6.93 4.927 4.714 2.131 1.263c-.064-.092-.17-.147-.281-.147-.112 0-.217.055-.281.146C.062 3.83.498 7.094 2.625 9.175c-.519-.125-1.02-.319-1.488-.575-.102-.06-.229-.058-.33.003-.101.061-.162.172-.157.29-.036 2.556 1.433 4.893 3.75 5.97h-.138c-.367-.002-.733-.037-1.093-.107-.117-.021-.237.02-.315.11-.079.09-.104.215-.067.328.736 2.266 2.656 3.947 5 4.375 1.869.294 3.775.245 5.625-.144 0 0-2.4 1.875-6.443 1.156-.38-.057-.768-.005-1.119.15-1.46.6-3.022.906-4.6.9H.5c-.228-.003-.429.153-.481.375-.058.223.042.457.244.569C2.97 24.155 6.046 24.992 9.18 25c2.629.024 5.231-.527 7.625-1.613 2.128-.992 4.027-2.416 5.575-4.18 1.477-1.683 2.634-3.62 3.413-5.72.755-1.997 1.148-4.114 1.162-6.25v-.1c-.009-.344.144-.672.413-.887.997-.807 1.865-1.762 2.575-2.831.082-.125.072-.29-.025-.404-.097-.114-.257-.15-.394-.09z" transform="translate(1 4)"/>
        <path d="M13.387 19.425s-2.4 1.875-6.443 1.156c-.38-.057-.768-.005-1.119.15-1.451.597-3.006.903-4.575.9H.5c-.228-.003-.429.153-.481.375-.058.223.042.457.244.569C2.97 24.155 6.046 24.992 9.18 25c2.629.024 5.231-.527 7.625-1.613 2.128-.992 4.027-2.416 5.575-4.18-3.319 3.605-8.994.218-8.994.218z" transform="translate(1 4)"/>
    </g>
</svg>
