<svg xmlns="http://www.w3.org/2000/svg" width="32" height="32" viewBox="0 0 32 32">
    <g fill="none" fill-rule="evenodd">
        <g stroke="#F26666" stroke-linecap="round" stroke-linejoin="round" stroke-width="1.5">
            <path d="M12.5 11.875h6.25c.69 0 1.25.56 1.25 1.25v5c0 .69-.56 1.25-1.25 1.25h-5c-.69 0-1.25-.56-1.25-1.25v-6.25c0-7.5 1.25-8.75 5-11.25M0 11.875h6.25c.69 0 1.25.56 1.25 1.25v5c0 .69-.56 1.25-1.25 1.25h-5c-.69 0-1.25-.56-1.25-1.25v-6.25c0-7.5 1.25-8.75 5-11.25" transform="translate(1 1) translate(5 5)"/>
        </g>
        <path d="M0 0L30 0 30 30 0 30z" transform="translate(1 1)"/>
    </g>
</svg>
