<svg xmlns="http://www.w3.org/2000/svg" width="48" height="48" fill="none" viewBox="0 0 48 48">
    <path fill="#EC4E53" fill-rule="evenodd" d="M24 2.667c11.782 0 21.333 9.55 21.333 21.333 0 5.658-2.247 11.084-6.248 15.085-4 4-9.427 6.248-15.085 6.248-11.782 0-21.333-9.55-21.333-21.333 0-11.782 9.55-21.333 21.333-21.333zM24.573 32c-.725.741-.725 1.926 0 2.667.35.35.825.547 1.32.547.495 0 .97-.197 1.32-.547l10.52-10.56L27.24 13.56c-.736-.736-1.93-.736-2.667 0-.736.736-.736 1.93 0 2.667l5.907 5.906H11.813c-1.03 0-1.866.836-1.866 1.867 0 1.031.835 1.867 1.866 1.867h18.854L24.573 32z" clip-rule="evenodd"/>
</svg>
