<svg xmlns="http://www.w3.org/2000/svg" width="32" height="32" viewBox="0 0 32 32">
    <g fill="none" transform="translate(1 1)">
        <path fill="#F26666" d="M27.288 0H2.712C1.214 0 0 1.214 0 2.712v24.576C0 28.786 1.214 30 2.712 30h24.576C28.786 30 30 28.786 30 27.288V2.712C30 1.214 28.786 0 27.288 0z"/>
        <path fill="#F26666" d="M26.594 13.625l-1.382-1.381-4.33-1.457h-7.17L8.645 5.72l-4.269 2.8v5.893l.406 12.182c2.176 2.174 5.124 3.398 8.2 3.406h14.307C28.786 30 30 28.786 30 27.288v-5.413c.008-3.094-1.218-6.063-3.406-8.25z"/>
        <rect width="4.944" height="15.669" x="4.344" y="11.025" fill="#FFF" rx="1.26"/>
        <path fill="#FFF" d="M6.813 9.694c-1.293.002-2.46-.774-2.956-1.967-.496-1.194-.224-2.568.689-3.483.913-.915 2.287-1.19 3.481-.695C9.221 4.043 10 5.208 10 6.5c-.003 1.762-1.431 3.19-3.194 3.194h.006zM26.875 25.969c0 .4-.325.725-.725.725H22.5c-.4 0-.725-.325-.725-.725v-6.594c0-.988.288-4.319-2.581-4.319-2.219 0-2.669 2.281-2.763 3.307v7.625c0 .4-.324.725-.725.725h-3.468c-.194.001-.38-.074-.517-.21-.138-.137-.215-.322-.215-.515V11.75c0-.193.077-.379.215-.515.137-.136.323-.212.517-.21h3.487c.4 0 .725.325.725.725v.262c-.003.14.081.267.212.317.13.05.278.014.37-.091.818-.857 2.018-1.45 4.074-1.45 5.769 0 5.769 5.393 5.769 8.362v6.819z"/>
    </g>
</svg>
