<svg xmlns="http://www.w3.org/2000/svg" width="21" height="21" viewBox="0 0 21 21"><g><g><path fill="#2f2f2f" d="M14.906 18v-4.875c0-.813-.078-1.406-.234-1.781-.219-.594-.688-.89-1.406-.89-.72 0-1.235.265-1.547.796-.219.406-.328 1-.328 1.781V18H8.297V7.969h3v1.36h.047c.218-.438.562-.798 1.031-1.079.562-.344 1.203-.516 1.922-.516 1.437 0 2.453.453 3.047 1.36.437.718.656 1.86.656 3.422V18zM3.516 6.07A1.772 1.772 0 0 1 3 4.805c0-.485.172-.907.516-1.266C3.859 3.179 4.28 3 4.78 3c.5 0 .93.18 1.29.539.359.36.538.781.538 1.266 0 .484-.18.906-.539 1.265-.36.36-.789.54-1.289.54-.5 0-.922-.18-1.265-.54zM3.234 7.97h3.141V18h-3.14zM1.5 0C1.094 0 .742.148.445.445A1.442 1.442 0 0 0 0 1.5v18c0 .406.148.758.445 1.055.297.297.649.445 1.055.445h18c.406 0 .758-.148 1.055-.445.297-.297.445-.649.445-1.055v-18c0-.406-.148-.758-.445-1.055A1.442 1.442 0 0 0 19.5 0z"/></g></g></svg>