<svg xmlns="http://www.w3.org/2000/svg" width="62" height="62" viewBox="0 0 62 62">
    <g fill="none">
        <g transform="translate(1 3)">
            <path fill="#F7910B" d="M60.8 35.4c0 13-11.9 23.5-30.3 23.5S.2 48.4.2 35.4 12.1 2.9 30.5 2.9s30.3 19.5 30.3 32.5z"/>
            <path fill="#F7910B" d="M60.8 35.4c0 13-11.9 19.5-30.3 19.5S.2 48.4.2 35.4 12.1.9 30.5.9s30.3 21.5 30.3 34.5z"/>
            <path fill="#F9A908" d="M30.5.9c18.4 0 30.3 21.5 30.3 34.5S48.9 54.9 30.5 54.9"/>
            <path fill="#F9A908" d="M60.8 35.4c0 13-11.9 19.5-30.3 19.5S.2 48.4.2 35.4 12.1 2.9 30.5 2.9s30.3 19.5 30.3 32.5z"/>
            <path fill="#F9C55D" d="M.2 35.4c0-13 11.9-32.5 30.3-32.5"/>
            <path fill="#F7910B" d="M30.5 2.9c18.4 0 30.3 19.5 30.3 32.5S48.9 58.9 30.5 58.9"/>
            <path fill="#EA7103" d="M30.5 2.9c18.4 0 30.3 19.5 30.3 32.5"/>
            <circle cx="8.8" cy="32.3" r="1" fill="#F7910B"/>
            <circle cx="4.3" cy="34.3" r="1.1" fill="#F7910B"/>
            <circle cx="7.3" cy="30.3" r="1" fill="#F7910B"/>
            <circle cx="11.9" cy="32.2" r="1" fill="#F7910B"/>
            <circle cx="57" cy="35.2" r="1" fill="#F9A908"/>
            <circle cx="53.6" cy="34.1" r="1" fill="#F9A908"/>
            <circle cx="57.7" cy="41.1" r="1" fill="#F9A908"/>
            <circle cx="53.9" cy="44.9" r="1.3" fill="#F9A908"/>
            <circle cx="55" cy="37" r="1" fill="#F9A908"/>
            <circle cx="7.8" cy="36.4" r="1" fill="#F7910B"/>
            <circle cx="8.6" cy="28" r="1" fill="#F7910B"/>
            <circle cx="3.3" cy="14.2" r="1.1" fill="#F9A908"/>
            <circle cx="6.5" cy="10.7" r="1" fill="#F9A908"/>
            <circle cx="57.7" cy="16.6" r="1" fill="#F9A908"/>
            <circle cx="54.5" cy="5.7" r="1" fill="#F9A908"/>
            <circle cx="59.5" cy="14.2" r="1" fill="#F9A908"/>
            <circle cx="4.5" cy="17.2" r="1" fill="#F9A908"/>
            <g transform="translate(22 33)">
                <circle cx="4.4" cy="5" r="3.5" fill="#D87703"/>
                <circle cx="27.3" cy="5" r="3.5" fill="#D87703"/>
                <circle cx="4.4" cy="4" r="3.5" fill="#1E4784"/>
                <path fill="#00233F" d="M4.4.5C6.3.5 7.9 2.1 7.9 4S6.3 7.5 4.4 7.5"/>
                <circle cx="27.3" cy="4" r="3.5" fill="#1E4784"/>
                <path fill="#00233F" d="M27.3.5c1.9 0 3.5 1.6 3.5 3.5s-1.6 3.5-3.5 3.5"/>
            </g>
            <g>
                <path fill="#19BCA4" d="M9.8 1c-1.6.8-2.7 2-2.3 2.8L13.4 1c-.3-.7-1.9-.7-3.6 0zM29.9 1c-1.7-.6-3.3-.4-3.6.5l6.2 2.1c.2-.9-.9-2-2.6-2.6z" transform="translate(18 24)"/>
                <path fill="#109DA0" d="M10.7 2.8c1.6-.8 3.1-1 2.8-1.8L7.6 3.8c.3.8 1.5-.2 3.1-1zM29.2 2.9c1.7.6 3 1.5 3.2.6l-6.2-2.1c-.2.9 1.3.9 3 1.5z" transform="translate(18 24)"/>
                <path fill="#F9C55D" d="M7.9 15.8c-4.3 0-7.8 1-7.8 2.2 0 1.2 3.5.7 7.8.7s7.8.6 7.8-.7c0-1.3-3.5-2.2-7.8-2.2z" transform="translate(18 24)"/>
                <path fill="#F9A908" d="M31.9 15.8c-4.3 0-7.8 1-7.8 2.2 0 1.2 3.5.7 7.8.7s7.8.6 7.8-.7c0-1.3-3.5-2.2-7.8-2.2z" transform="translate(18 24)"/>
            </g>
        </g>
        <circle cx="17.1" cy="17" r="16.9" fill="#E54C3C"/>
        <path fill="#C12B1B" d="M17.1.1C26.4.1 34 7.7 34 17c0 9.3-7.6 16.9-16.9 16.9"/>
        <path fill="#890606" d="M29 5.1c6.6 6.6 6.6 17.3 0 23.9-6.6 6.6-17.3 6.6-23.9 0"/>
        <circle cx="17.1" cy="17" r="13.8" fill="#EEFCFF"/>
        <path fill="#DEF0F9" d="M17.1 3.2c7.6 0 13.8 6.2 13.8 13.8 0 7.6-6.2 13.8-13.8 13.8"/>
        <circle cx="17.1" cy="17" r="1.4" fill="#19D893"/>
        <path fill="#04AF76" d="M18 16.1c.5.5.5 1.4 0 1.9s-1.4.5-1.9 0"/>
        <g fill="#04AF76">
            <g>
                <path d="M1.3 3.3c0 .1-.1.3-.3.3-.1 0-.3-.1-.3-.3v-3C.7.2.8 0 1 0c.1 0 .3.1.3.3v3zM1.3 23.7c0 .1-.1.3-.3.3-.1 0-.3-.1-.3-.3v-3c0-.1.1-.3.3-.3.1 0 .3.1.3.3v3z" transform="translate(5 5) translate(11)"/>
            </g>
            <g>
                <path d="M20.8 1.3c-.1 0-.3-.1-.3-.3 0-.1.1-.3.3-.3h3c.1 0 .3.1.3.3 0 .1-.1.3-.3.3h-3zM.4 1.3C.3 1.3.1 1.2.1 1 .1.9.2.7.4.7h3c.1 0 .3.1.3.3 0 .1-.1.3-.3.3h-3z" transform="translate(5 5) translate(0 11)"/>
            </g>
        </g>
        <g fill="#04AF76">
            <path d="M15.4 3c-.1.1-.3.1-.4 0-.1-.1-.1-.3 0-.4L17.1.5c.1-.1.3-.1.4 0 .1.1.1.3 0 .4L15.4 3zM1 17.4c-.1.1-.3.1-.4 0-.1-.1-.1-.3 0-.4l2.1-2.1c.1-.1.3-.1.4 0 .1.1.1.3 0 .4L1 17.4z" transform="translate(8 8)"/>
            <g>
                <path d="M15 15.3c-.1-.1-.1-.3 0-.4.1-.1.3-.1.4 0l2.1 2.1c.1.1.1.3 0 .4-.1.1-.3.1-.4 0L15 15.3zM.7 1C.6.9.6.7.7.6c.1-.1.3-.1.4 0l2.1 2.1c.1.1.1.3 0 .4-.1.1-.3.1-.4 0L.7 1z" transform="translate(8 8)"/>
            </g>
        </g>
        <path fill="#19D893" d="M17.5 16.3c0 .2-.2.4-.4.4s-.4-.2-.4-.4V10c0-.2.2-.4.4-.4s.4.2.4.4v6.3z"/>
        <path fill="#04AF76" d="M17.4 17.4c-.1 0-.2-.2-.2-.4s.1-.4.2-.4h3.7c.1 0 .2.2.2.4s-.1.4-.2.4h-3.7z"/>
        <circle cx="38.7" cy="17" r="1.1" fill="#890606"/>
        <circle cx="44.5" cy="17" r="1.1" fill="#C12B1B"/>
        <circle cx="50.2" cy="17" r="1.1" fill="#890606"/>
        <circle cx="56" cy="17" r="1.1" fill="#C12B1B"/>
        <g>
            <path fill="#ED7E11" d="M24.8 3.1c0 2.6-5.3 4.7-11.9 4.7C6.3 7.8 1 5.7 1 3.1" transform="translate(25 48)"/>
            <path fill="#02243E" d="M13.1 4.4c-4.9 0-9.8-.7-12-2.1C.6 2 .4 1.3.7.8 1 .3 1.7.1 2.2.4 6 2.7 20.2 2.7 24 .4c.5-.3 1.2-.2 1.5.4.3.6.2 1.2-.4 1.5-2.2 1.4-7.1 2.1-12 2.1z" transform="translate(25 48)"/>
        </g>
    </g>
</svg>
