<svg xmlns="http://www.w3.org/2000/svg" width="32" height="32" viewBox="0 0 32 32">
    <g fill="none">
        <ellipse cx="15.995" cy="15.964" fill="#E2DAD5" rx="12.826" ry="13.111" transform="rotate(-76.45 15.995 15.964)"/>
        <path fill="#F2A35E" d="M19.4 28.316c1.046-.267 2.054-.66 3-1.17v-11.27l-3-1.047v13.487zM9.6 27.145c.944.51 1.949.903 2.992 1.171V14.83L9.6 15.875v11.27z"/>
        <path fill="#EFE6DF" d="M8.432 11.582l-1.304-.78c-.204-.118-.349-.315-.397-.542-.049-.227.002-.464.141-.652C8.799 7 11.797 5.345 15.08 5.073c.236-.02.47.058.644.214.174.155.275.375.276.606v1.49c.001.411-.324.752-.744.78-2.286.215-4.37 1.37-5.728 3.177-.236.36-.724.468-1.096.242zM7.2 15.961H5.68c-.237-.001-.462-.1-.621-.27-.16-.17-.24-.398-.219-.628v-.296c.029-.232.156-.442.35-.579.195-.136.44-.187.674-.14l1.504.282c.42.085.71.464.672.882-.008.208-.102.405-.26.546-.157.14-.366.214-.58.203z"/>
        <path fill="#F26666" d="M20.376 15.36c-.694-.081-1.394-.081-2.088 0 .5-.698 1.358-1.065 2.223-.95.865.116 1.591.693 1.881 1.496-.645-.267-1.322-.45-2.016-.546zM21.784 12.386c-.606-.207-1.26-.247-1.888-.117.553-.406 1.28-.51 1.928-.273.628.17 1.138.618 1.376 1.21-.399-.38-.884-.66-1.416-.82zM11.624 15.36c.694-.081 1.394-.081 2.088 0-.47-.734-1.352-1.112-2.224-.952-.88.062-1.63.645-1.888 1.467.649-.257 1.33-.43 2.024-.515zM10.216 12.386c.606-.207 1.26-.247 1.888-.117-.553-.406-1.28-.51-1.928-.273-.613.18-1.106.627-1.336 1.21.387-.374.858-.655 1.376-.82zM16 23.703c-1.202 0-2.176-.95-2.176-2.123V20.45c.004-1.17.977-2.115 2.176-2.115 1.199 0 2.172.945 2.176 2.115v1.131c0 1.173-.974 2.123-2.176 2.123z"/>
        <path fill="#FFF" d="M13.976 19.692c1.299.51 2.75.51 4.048 0-.322-.818-1.126-1.357-2.024-1.357-.898 0-1.702.54-2.024 1.357z"/>
        <path fill="#EFE6DF" d="M16 18.685c.773.003 1.487.407 1.872 1.061l.152-.054c-.322-.818-1.126-1.357-2.024-1.357-.898 0-1.702.54-2.024 1.357l.152.054c.385-.654 1.099-1.058 1.872-1.061z"/>
    </g>
</svg>
