<svg xmlns="http://www.w3.org/2000/svg" width="190" height="64" viewBox="0 0 190 64">
    <g fill="none" fill-rule="evenodd">
        <rect width="190" height="64" fill="#000" rx="12"/>
        <path fill="#FFF" d="M73.584 46.793H70.35l-1.772-5.53H62.42l-1.687 5.53h-3.15l6.102-18.827h3.768l6.131 18.827zm10.038-13.854c1.612 0 2.958.632 4.035 1.898 1.079 1.268 1.617 2.934 1.617 5.001 0 2.309-.628 4.134-1.884 5.474-1.125 1.192-2.522 1.788-4.19 1.788-1.8 0-3.093-.642-3.88-1.927h-.057v7.152h-3.037V37.686c0-1.451-.038-2.94-.112-4.469h2.67l.17 2.152h.056c1.013-1.621 2.55-2.43 4.612-2.43zm15.72 0c1.61 0 2.956.632 4.036 1.898 1.075 1.268 1.615 2.934 1.615 5.001 0 2.309-.628 4.134-1.886 5.474-1.123 1.192-2.52 1.788-4.188 1.788-1.8 0-3.093-.642-3.88-1.927h-.057v7.152h-3.036V37.686c0-1.451-.038-2.94-.112-4.469h2.67l.17 2.152h.056c1.011-1.621 2.548-2.43 4.612-2.43zm41.782 0c2.005 0 3.619.662 4.836 1.984 1.165 1.284 1.746 2.94 1.746 4.97 0 2.087-.6 3.8-1.8 5.14-1.257 1.38-2.926 2.067-5.007 2.067-2.005 0-3.602-.66-4.792-1.982-1.191-1.321-1.786-2.99-1.786-5 0-2.103.612-3.827 1.841-5.166 1.226-1.341 2.881-2.012 4.962-2.012zm-23.589-5.25c1.725 0 3.158.3 4.301.895l-.759 2.459c-1.068-.577-2.275-.866-3.627-.866-1.068 0-1.903.262-2.5.782-.506.466-.76 1.033-.76 1.705 0 .744.29 1.36.87 1.843.506.448 1.424.931 2.757 1.453 1.631.653 2.829 1.415 3.6 2.29.767.87 1.15 1.962 1.15 3.263 0 1.602-.56 2.905-1.683 3.91-1.235 1.1-2.954 1.649-5.163 1.649-2.04 0-3.674-.39-4.912-1.173l.704-2.514c1.333.8 2.795 1.202 4.389 1.202 1.144 0 2.034-.257 2.673-.77.637-.511.954-1.199.954-2.056 0-.764-.262-1.408-.787-1.93-.523-.522-1.396-1.007-2.615-1.456-3.318-1.23-4.976-3.03-4.976-5.398 0-1.548.581-2.817 1.745-3.805 1.159-.988 2.705-1.482 4.64-1.482zm11.724 2.146v3.38h3.347v2.266h-3.347v6.591c0 1.677.59 2.514 1.772 2.514.542 0 .992-.047 1.348-.14l.085 2.29c-.599.223-1.386.334-2.362.334-1.199 0-2.136-.363-2.812-1.089-.674-.727-1.013-1.947-1.013-3.66v-6.843h-1.994v-2.264h1.994V30.73l2.982-.894zm36.218 3.078c1.97 0 3.46.726 4.473 2.177.802 1.153 1.205 2.58 1.205 4.273 0 .54-.035.996-.11 1.368h-9.11c.036 1.341.476 2.367 1.322 3.074.767.632 1.76.95 2.98.95 1.348 0 2.578-.214 3.685-.643l.475 2.094c-1.293.56-2.82.839-4.581.839-2.12 0-3.783-.62-4.993-1.858-1.208-1.238-1.813-2.9-1.813-4.985 0-2.047.562-3.752 1.689-5.112 1.18-1.451 2.773-2.177 4.778-2.177zm-8.66.026c.28 0 .534.02.759.055v2.876c-.3-.055-.621-.084-.957-.084-1.068 0-1.894.4-2.475 1.203-.506.707-.76 1.601-.76 2.68v7.124h-3.034l.028-9.3c0-1.565-.038-2.99-.114-4.274h2.645l.11 2.597h.085c.32-.893.826-1.611 1.518-2.15.677-.486 1.407-.727 2.195-.727zm-15.801 2.206c-1.22 0-2.148.542-2.785 1.625-.545.897-.814 1.987-.814 3.278 0 1.252.269 2.325.814 3.22.657 1.083 1.574 1.624 2.758 1.624 1.159 0 2.069-.552 2.725-1.653.56-.912.842-1.997.842-3.248 0-1.252-.27-2.326-.815-3.221-.636-1.084-1.546-1.625-2.725-1.625zm-58.378.194c-.75 0-1.43.25-2.038.74-.61.495-1.009 1.142-1.195 1.943-.094.373-.141.679-.141.92v2.263c0 .987.305 1.82.914 2.501.61.68 1.402 1.02 2.376 1.02 1.143 0 2.033-.438 2.67-1.313.638-.876.957-2.03.957-3.464 0-1.322-.299-2.411-.9-3.269-.657-.894-1.538-1.34-2.643-1.34zm15.718 0c-.75 0-1.43.25-2.04.74-.609.495-1.006 1.142-1.193 1.943-.092.373-.14.679-.14.92v2.263c0 .987.304 1.82.91 2.501.61.68 1.402 1.02 2.38 1.02 1.143 0 2.033-.438 2.67-1.313.638-.876.957-2.03.957-3.464 0-1.322-.3-2.411-.902-3.269-.656-.894-1.535-1.34-2.642-1.34zm-32.87-4.86c.47 1.862.787 3.045.956 3.547l1.602 4.917h-5.088l1.574-4.917c.413-1.563.713-2.746.9-3.546zm99.765 4.525c-.993 0-1.8.409-2.417 1.23-.506.652-.806 1.434-.899 2.345h6.325c.02-.893-.178-1.665-.59-2.317-.525-.84-1.333-1.258-2.42-1.258zM72.152 14.422c.985 0 1.777.324 2.377.974.57.63.856 1.446.856 2.442 0 1.025-.295 1.866-.885 2.525-.618.678-1.437 1.016-2.46 1.016-.985 0-1.77-.324-2.355-.975-.584-.65-.876-1.469-.876-2.456 0-1.033.3-1.88.904-2.538.604-.658 1.416-.988 2.439-.988zm31.827 0c.987 0 1.777.324 2.378.974.57.63.856 1.446.856 2.442 0 1.025-.295 1.866-.884 2.525-.618.678-1.439 1.016-2.46 1.016-.987 0-1.771-.324-2.355-.975-.584-.65-.876-1.469-.876-2.456 0-1.033.3-1.88.904-2.538.604-.658 1.416-.988 2.437-.988zm7.726 0c1.754 0 2.635.92 2.635 2.76v2.455c0 .666.032 1.197.096 1.59h-1.34l-.11-.768h-.042c-.459.613-1.112.92-1.961.92-.634 0-1.147-.203-1.533-.604-.35-.365-.525-.82-.525-1.359 0-.814.342-1.436 1.03-1.866.686-.43 1.652-.64 2.895-.63v-.125c0-.879-.464-1.317-1.394-1.317-.663 0-1.246.165-1.75.494l-.304-.974c.624-.383 1.394-.576 2.303-.576zm11.16-2.924v7.933c0 .649.017 1.247.052 1.796h-1.324l-.07-1.07h-.041c-.423.814-1.144 1.222-2.156 1.222-.81 0-1.483-.316-2.017-.947-.534-.63-.8-1.45-.8-2.456 0-1.08.289-1.953.87-2.621.562-.623 1.252-.934 2.072-.934.901 0 1.532.301 1.891.905h.029v-3.828h1.494zm9.586 2.924c.984 0 1.777.324 2.375.974.57.63.856 1.446.856 2.442 0 1.025-.295 1.866-.884 2.525-.618.678-1.436 1.016-2.46 1.016-.984 0-1.769-.324-2.355-.975-.584-.65-.876-1.469-.876-2.456 0-1.033.3-1.88.904-2.538.604-.658 1.416-.988 2.44-.988zm19.656-1.525v1.66h1.643v1.112h-1.642v3.24c0 .823.292 1.235.87 1.235.268 0 .49-.023.666-.07l.038 1.125c-.295.11-.682.166-1.16.166-.589 0-1.047-.179-1.38-.535-.332-.357-.498-.957-.498-1.798v-3.363h-.98v-1.11h.98v-1.223l1.463-.439zm14.904 1.513c.965 0 1.699.356 2.194 1.07.4.565.599 1.265.599 2.097 0 .266-.02.49-.056.672h-4.476c.02.66.233 1.162.648 1.51.379.311.867.467 1.465.467.663 0 1.266-.105 1.81-.316l.234 1.03c-.637.275-1.386.412-2.253.412-1.04 0-1.858-.304-2.45-.913-.596-.608-.891-1.424-.891-2.449 0-1.005.275-1.843.829-2.51.578-.714 1.36-1.07 2.347-1.07zM61.958 11.908c1.63 0 2.86.353 3.688 1.057.929.797 1.394 1.936 1.394 3.418 0 1.665-.502 2.919-1.506 3.76-.93.777-2.252 1.166-3.964 1.166-.849 0-1.575-.036-2.183-.11v-9.098c.793-.127 1.648-.193 2.57-.193zm30.017 2.51c.626 0 1.147.201 1.562.604.515.494.773 1.231.773 2.21v3.995h-1.492v-3.82c0-1.177-.45-1.765-1.353-1.765-.443 0-.8.161-1.078.485-.275.324-.415.706-.415 1.143v3.956H88.48v-4.762c0-.586-.019-1.221-.054-1.909h1.311l.07 1.043h.041c.174-.324.433-.591.774-.805.404-.249.857-.375 1.353-.375zm-13.595.14l.759 3.17c.183.75.334 1.465.455 2.141h.027c.111-.557.295-1.267.554-2.126l.953-3.183h1.216l.913 3.115c.221.76.4 1.491.539 2.196h.04c.102-.687.254-1.418.457-2.196l.814-3.115h1.466v-.002l-2.1 6.67h-1.368l-.87-2.897c-.221-.723-.4-1.441-.54-2.154h-.027c-.13.733-.31 1.45-.54 2.154l-.924 2.896H78.82l-1.975-6.669h1.534zm20.046-3.06v9.73h-1.491v-9.73h1.491zm42.947 2.92c.625 0 1.147.201 1.561.604.517.494.773 1.231.773 2.21v3.995h-1.49v-3.82c0-1.177-.45-1.765-1.355-1.765-.443 0-.8.161-1.077.485-.276.324-.414.706-.414 1.143v3.956h-1.494v-4.762c0-.586-.017-1.221-.053-1.909h1.31l.07 1.043h.041c.176-.324.435-.591.774-.805.406-.249.857-.375 1.354-.375zm15.94-2.92v4.02h.03c.47-.732 1.143-1.097 2.016-1.097.618 0 1.13.2 1.535.604.506.502.76 1.25.76 2.237v3.965h-1.495v-3.791c0-1.196-.45-1.794-1.351-1.794-.692 0-1.165.347-1.424 1.04-.045.145-.07.324-.07.533v4.01h-1.491v-9.727h1.49zm-24.918 4.007c-.598 0-1.054.266-1.368.798-.268.44-.4.976-.4 1.61 0 .615.133 1.143.4 1.583.323.532.773.798 1.354.798.57 0 1.018-.27 1.34-.812.275-.449.414-.98.414-1.596 0-.616-.133-1.143-.4-1.583-.314-.532-.759-.798-1.34-.798zm-21.978 3.746c0 .348.094.608.287.782.192.174.437.26.729.26.327 0 .634-.103.913-.308.28-.206.453-.468.517-.79.015-.071.024-.16.024-.26v-1.028c-1.646-.028-2.47.42-2.47 1.344zm-6.49-3.746c-.602 0-1.058.266-1.37.798-.267.44-.4.976-.4 1.61 0 .615.134 1.143.4 1.583.324.532.774.798 1.355.798.57 0 1.015-.27 1.337-.812.278-.449.415-.98.415-1.596 0-.616-.134-1.143-.4-1.583-.312-.532-.76-.798-1.338-.798zm-31.83 0c-.599 0-1.055.266-1.368.798-.268.44-.4.976-.4 1.61 0 .615.134 1.143.4 1.583.323.532.773.798 1.354.798.57 0 1.017-.27 1.339-.812.276-.449.414-.98.414-1.596 0-.616-.133-1.143-.4-1.583-.313-.532-.759-.798-1.338-.798zm47.694.069c-.557 0-.992.22-1.313.66-.317.44-.478 1-.478 1.687 0 .66.152 1.194.458 1.606.324.438.76.658 1.305.658.49 0 .881-.183 1.179-.55.288-.337.429-.745.429-1.22v-1.112c0-.193-.015-.348-.042-.467-.084-.357-.264-.656-.54-.898-.277-.242-.612-.364-.998-.364zm-57.71-2.498c-.47 0-.87.03-1.202.096v6.916c.184.029.52.041 1.009.041 1.142 0 2.023-.315 2.644-.946.621-.63.935-1.55.935-2.759 0-1.08-.288-1.907-.863-2.484-.576-.576-1.416-.864-2.523-.864zm104.822 2.36c-.487 0-.885.202-1.188.605-.248.321-.395.704-.443 1.153h3.107c.012-.44-.086-.82-.289-1.139-.259-.412-.653-.618-1.187-.618zM29.932 21.936c1.44 0 4.18-1.973 7.005-1.678 1.182.034 4.546.463 6.716 3.605-.175.104-4.007 2.34-3.965 6.936.047 5.508 4.853 7.33 4.912 7.35-.029.128-.753 2.627-2.555 5.166-1.506 2.234-3.083 4.419-5.588 4.459-2.433.055-3.252-1.422-6.042-1.422-2.817 0-3.689 1.382-6.023 1.477-2.386.087-4.208-2.385-5.768-4.6-3.118-4.522-5.546-12.742-2.291-18.337 1.577-2.743 4.453-4.51 7.526-4.557 2.389-.048 4.605 1.601 6.073 1.601zm7.035-10.483c.239 2.151-.62 4.272-1.876 5.83-1.31 1.535-3.405 2.708-5.446 2.557-.267-2.07.767-4.272 1.925-5.615 1.308-1.525 3.58-2.693 5.397-2.772z"/>
    </g>
</svg>
