<svg xmlns="http://www.w3.org/2000/svg" width="18" height="17" viewBox="0 0 18 17">
    <path fill="#F76161" d="M9 16.125c.305 0 .574-.117.809-.352l6.785-7.03c.656-.657 1.084-1.436 1.283-2.339.2-.902.158-1.799-.123-2.69-.281-.89-.785-1.64-1.512-2.25C15.61.927 14.895.587 14.098.446c-.797-.14-1.582-.082-2.356.176-.773.258-1.453.692-2.039 1.3L9 2.626l-.703-.703C7.71 1.312 7.03.879 6.257.622 5.485.362 4.7.304 3.903.444c-.797.14-1.511.48-2.144 1.02-.727.61-1.23 1.36-1.512 2.25-.281.89-.322 1.787-.123 2.69.2.902.627 1.693 1.283 2.372l6.785 6.996c.235.235.504.352.809.352z"/>
</svg>
