<svg xmlns="http://www.w3.org/2000/svg" width="32" height="32" viewBox="0 0 32 32">
    <g fill="none">
        <path fill="#F2A35E" d="M24.243 0H3.792c-1.004-.005-1.969.39-2.68 1.1C.4 1.807 0 2.77 0 3.773v20.452c0 1.004.4 1.966 1.112 2.675.711.708 1.676 1.104 2.68 1.099h8.213c.497 0 .973-.197 1.324-.548.351-.352.548-.828.548-1.325V18.23c0-.129-.104-.233-.233-.233h-2.35c-.166.008-.326-.053-.443-.17-.117-.117-.179-.278-.17-.443v-3.225c-.009-.165.053-.326.17-.443.117-.117.277-.178.442-.17h2.363c.129 0 .233-.104.233-.233v-2.888c0-3.616 2.211-5.582 5.437-5.582h2.642c.34 0 .615.273.619.612v2.713c-.016.329-.29.587-.619.583h-1.633c-1.75 0-2.094.834-2.094 2.06v2.467c0 .129.104.233.233.233h3.623c.173-.003.339.072.452.204.112.132.16.307.131.479l-.38 3.225c-.037.31-.3.542-.612.543h-3.196c-.13 0-.234.104-.234.233v7.893c-.009.5.182.985.532 1.344.35.36.828.564 1.33.569h4.123C26.321 27.99 28 26.303 28 24.226V3.774C28 1.697 26.32.01 24.243 0z" transform="translate(2 2)"/>
        <path fill="#F26666" d="M28 10.897l-5.425-5.443v2.713c-.016.329-.289.587-.618.583h-1.622c-1.75 0-2.094.834-2.094 2.06v2.467c0 .129.104.233.233.233h3.623c.173-.003.339.072.452.204.112.132.16.307.131.479l-.38 3.225c-.037.31-.3.542-.612.543h-3.196c-.13 0-.234.104-.234.233v7.893c-.009.5.182.985.532 1.344.35.36.828.564 1.33.569h4.123C26.321 27.99 28 26.303 28 24.226v-13.33zM13.89 20.89v-2.66c0-.13-.105-.234-.234-.234h-2.363c-.14-.002-.274-.054-.379-.146l-.029.035 3.004 3.004z" transform="translate(2 2)"/>
    </g>
</svg>
