<svg xmlns="http://www.w3.org/2000/svg" width="227" height="20" viewBox="0 0 227 20">
    <g fill="none" fill-rule="evenodd">
        <path fill="#2C2C2C" fill-rule="nonzero" d="M158 3h-9.49c-.171 0-.31.139-.31.31v15.4c0 .171.139.31.31.31H158c.171 0 .31-.139.31-.31v-2.16c0-.171-.139-.31-.31-.31h-6.91v-3.71h5.52c.171 0 .31-.139.31-.31v-2.14c0-.171-.139-.31-.31-.31h-5.52v-4H158c.171 0 .31-.139.31-.31V3.28c-.015-.16-.15-.28-.31-.28zM177.17 3.11c-.057-.088-.155-.14-.26-.14h-2.64c-.12 0-.23.07-.28.18L170.86 10l-3.13-6.89c-.05-.11-.16-.18-.28-.18h-2.66c-.105 0-.203.055-.26.144-.057.089-.064.2-.02.296L169.34 14v4.74c0 .171.139.31.31.31h2.41c.082 0 .161-.033.22-.09.057-.059.09-.138.09-.22V14l4.82-10.6c.042-.094.034-.203-.02-.29zM10 16.14H2.88V3.28C2.865 3.12 2.73 3 2.57 3H.31c-.16 0-.295.12-.31.28v15.43c.01.163.146.29.31.29H10c.082 0 .161-.033.22-.09.057-.059.09-.138.09-.22v-2.24c0-.082-.033-.161-.09-.22-.059-.057-.138-.09-.22-.09z"/>
        <rect width="2.88" height="16.05" x="16.95" y="2.97" fill="#2C2C2C" fill-rule="nonzero" rx=".31"/>
        <path fill="#2C2C2C" fill-rule="nonzero" d="M38.35 3h-9.48c-.171 0-.31.139-.31.31v15.4c0 .171.139.31.31.31h2.27c.171 0 .31-.139.31-.31v-6.18H37c.082 0 .161-.033.22-.09.057-.059.09-.138.09-.22v-2.14c0-.082-.033-.161-.09-.22-.059-.057-.138-.09-.22-.09h-5.56v-4h6.91c.171 0 .31-.139.31-.31V3.28c-.015-.16-.15-.28-.31-.28zM54.51 3H45c-.171 0-.31.139-.31.31v15.4c.01.163.146.29.31.29h9.49c.171 0 .31-.139.31-.31v-2.14c0-.171-.139-.31-.31-.31h-6.9v-3.71h5.52c.171 0 .31-.139.31-.31v-2.14c0-.171-.139-.31-.31-.31h-5.52v-4h6.91c.171 0 .31-.139.31-.31V3.28c-.015-.156-.144-.276-.3-.28zM99.09 3c-.121-.043-.256-.008-.34.09l-7.14 6.77-7.15-6.79c-.085-.094-.219-.127-.338-.083-.119.044-.199.156-.202.283v15.44c0 .171.139.31.31.31h2.27c.171 0 .31-.139.31-.31V9.54l4.6 4.18c.06.064.143.1.23.1.087 0 .17-.036.23-.1l4.54-4.12v9.11c0 .171.139.31.31.31H99c.171 0 .31-.139.31-.31V3.28c-.007-.13-.095-.242-.22-.28zM119.62 5.3c-.733-.73-1.598-1.314-2.55-1.72-2.002-.839-4.258-.839-6.26 0-.952.406-1.817.99-2.55 1.72-.732.734-1.318 1.599-1.73 2.55-.85 2-.85 4.26 0 6.26.412.951.998 1.816 1.73 2.55.732.73 1.598 1.315 2.55 1.72 2.002.839 4.258.839 6.26 0 1.926-.81 3.46-2.344 4.27-4.27.839-2.002.839-4.258 0-6.26-.406-.952-.99-1.817-1.72-2.55zm-.81 5.7c.006 1.295-.51 2.539-1.43 3.45-.453.428-.982.767-1.56 1-1.213.504-2.577.504-3.79 0-.578-.233-1.107-.572-1.56-1-.936-.904-1.466-2.149-1.47-3.45-.006-.653.124-1.3.38-1.9.499-1.181 1.439-2.121 2.62-2.62.604-.255 1.254-.385 1.91-.38.65-.003 1.292.126 1.89.38 1.174.496 2.11 1.428 2.61 2.6.266.605.402 1.26.4 1.92zM140.49 3h-2.27c-.171 0-.31.139-.31.31v9l-8.64-9.19c-.087-.088-.219-.116-.334-.07-.116.046-.193.156-.196.28v15.38c.008.146.116.267.26.29h2.27c.171 0 .31-.139.31-.31v-8.61l8.65 8.84c.058.058.138.09.22.09h.12c.113-.047.188-.157.19-.28V3.28c-.013-.145-.125-.262-.27-.28zM62.86 13.08l.46-.79h2l.46.79h.82l-2-3.51H64l-2 3.51h.86zm2-1.55h-1.11l.55-1 .56 1zM68.54 13.08L68.54 10.8 70.48 13.08 71.16 13.08 71.16 9.57 70.39 9.57 70.39 11.85 68.44 9.57 67.77 9.57 67.77 13.08zM75 13.08c.47.021.925-.16 1.254-.495.328-.336.498-.796.466-1.265.029-.467-.142-.924-.47-1.258-.328-.334-.782-.513-1.25-.492h-2v3.51h2zm-1.18-2.74H75c.264-.013.52.09.701.282.181.193.269.455.239.718.029.273-.067.544-.262.738-.194.195-.465.29-.738.262h-1.15l.03-2zM184.75 11.92c.3-.178.486-.5.49-.85.014-.308-.125-.603-.37-.79-.335-.236-.742-.346-1.15-.31-.318-.004-.637.023-.95.08h-.1v4.06h.11c.266.018.534.018.8 0 .513.05 1.026-.093 1.44-.4.24-.226.373-.541.37-.87-.027-.401-.273-.755-.64-.92zm-.15 1c0 .53-.48.64-.88.64h-.3v-1.28h.29c.29 0 .89.06.89.63v.01zm-1.18-1.26v-1h.32c.73 0 .73.39.73.51 0 .32-.28.53-.72.53l-.33-.04zM189.21 10L188.57 11.22 188.32 11.72 188.04 11.14 187.46 10 186.6 10 187.92 12.41 187.92 14.16 188.68 14.16 188.68 12.4 190.08 9.99z"/>
        <path fill="#233D6E" d="M205.6 15.4l-.05.05c-.73.816-1.765 1.297-2.86 1.33-1.001.023-1.968-.37-2.667-1.087-.7-.717-1.07-1.692-1.023-2.693-.05-1 .316-1.975 1.012-2.695.695-.72 1.657-1.12 2.658-1.105 1.097.035 2.13.52 2.86 1.34l.05.05L207 8.92c-1.005-1.282-2.55-2.022-4.18-2-1.592-.031-3.137.536-4.33 1.59-1.255 1.151-1.955 2.787-1.92 4.49-.062 1.7.607 3.346 1.84 4.52 1.192 1.056 2.738 1.623 4.33 1.59 1.63.022 3.175-.718 4.18-2l-1.32-1.71"/>
        <path fill="#233D6E" fill-rule="nonzero" d="M208.35 7.07H210.76999999999998V18.87H208.35z"/>
        <path fill="#233D6E" d="M220.24 16.3c-.529.354-1.144.558-1.78.59-.78 0-1.14-.41-1.14-1.33V9.3h2.46V7.08h-2.46V3.4l-2.37 1.27v2.4h-2V9.3h2V16c-.087.772.153 1.546.662 2.133.51.587 1.241.934 2.018.957.751.036 1.496-.152 2.14-.54l.58-2.28-.14.09"/>
        <path fill="#233D6E" fill-rule="nonzero" d="M222.24 7.07H224.66V18.87H222.24z"/>
        <path fill="#CB2229" d="M226.32 5c-2.312-3.125-5.962-4.978-9.85-5-3.821.024-7.397 1.885-9.61 5l-.11.16h2.78c1.792-1.908 4.293-2.99 6.91-2.99s5.118 1.082 6.91 2.99h3l-.03-.16"/>
    </g>
</svg>
