<svg xmlns="http://www.w3.org/2000/svg" width="141" height="128" viewBox="0 0 141 128">
    <defs>
        <linearGradient id="prefix__a" x1="0%" x2="100%" y1="1.527%" y2="98.473%">
            <stop offset="0%" stop-color="#FE8D45"/>
            <stop offset="100%" stop-color="#FF1963"/>
        </linearGradient>
    </defs>
    <g fill="none" fill-rule="evenodd">
        <path fill="url(#prefix__a)" d="M28.821 123.314c34.024 12.302 86.132.135 98.505-33.642C139.7 55.895 106.995 15.098 72.971 2.795 38.947-9.507 20.117 20.804 7.743 54.581-4.63 88.358-5.203 111.01 28.821 123.314z"/>
        <g fill-rule="nonzero">
            <g transform="translate(77 66) translate(2 3)">
                <path fill="#F7910B" d="M61.4 35.4c0 13-11.9 23.5-30.3 23.5S.7 48.4.7 35.4 12.6 2.9 31.1 2.9s30.3 19.5 30.3 32.5z"/>
                <path fill="#F7910B" d="M61.4 35.4c0 13-11.9 19.5-30.3 19.5S.7 48.4.7 35.4 12.6.9 31.1.9s30.3 21.5 30.3 34.5z"/>
                <path fill="#F9A908" d="M31.1.9c18.4 0 30.3 21.5 30.3 34.5S49.5 54.9 31.1 54.9"/>
                <path fill="#F9A908" d="M61.4 35.4c0 13-11.9 19.5-30.3 19.5S.7 48.4.7 35.4 12.6 2.9 31.1 2.9s30.3 19.5 30.3 32.5z"/>
                <path fill="#F9C55D" d="M.7 35.4C.7 22.4 12.6 2.9 31 2.9"/>
                <path fill="#F7910B" d="M31.1 2.9c18.4 0 30.3 19.5 30.3 32.5S49.5 58.9 31.1 58.9"/>
                <path fill="#EA7103" d="M31.1 2.9c18.4 0 30.3 19.5 30.3 32.5"/>
                <g>
                    <path fill="#ED7E11" d="M24.8 3.1c0 2.6-5.3 4.7-11.9 4.7C6.3 7.8 1 5.7 1 3.1" transform="translate(24 42)"/>
                    <path fill="#02243E" d="M13.1 4.4c-4.9 0-9.8-.7-12-2.1C.6 2 .4 1.3.7.8 1 .3 1.7.1 2.2.4 6 2.7 20.2 2.7 24 .4c.5-.3 1.2-.2 1.5.4.3.6.2 1.2-.4 1.5-2.2 1.4-7.1 2.1-12 2.1z" transform="translate(24 42)"/>
                </g>
                <circle cx="9.4" cy="32.4" r="1" fill="#F7910B"/>
                <circle cx="4.9" cy="34.4" r="1.1" fill="#F7910B"/>
                <circle cx="7.9" cy="30.4" r="1" fill="#F7910B"/>
                <circle cx="12.5" cy="32.2" r="1" fill="#F7910B"/>
                <circle cx="57.6" cy="35.3" r="1" fill="#F9A908"/>
                <circle cx="54.1" cy="34.1" r="1" fill="#F9A908"/>
                <circle cx="58.3" cy="41.1" r="1" fill="#F9A908"/>
                <circle cx="54.5" cy="44.9" r="1.3" fill="#F9A908"/>
                <circle cx="55.5" cy="37" r="1" fill="#F9A908"/>
                <circle cx="8.4" cy="36.4" r="1" fill="#F7910B"/>
                <circle cx="9.1" cy="28" r="1" fill="#F7910B"/>
                <circle cx="3.9" cy="14.2" r="1.1" fill="#F9A908"/>
                <circle cx="7.1" cy="10.7" r="1" fill="#F9A908"/>
                <circle cx="58.3" cy="16.6" r="1" fill="#F9A908"/>
                <circle cx="57.5" cy="13.7" r="1" fill="#F9A908"/>
                <circle cx="60" cy="14.2" r="1" fill="#F9A908"/>
                <circle cx="5.1" cy="17.2" r="1" fill="#F9A908"/>
                <g transform="translate(23 29)">
                    <circle cx="4" cy="5.3" r="3.5" fill="#D87703"/>
                    <circle cx="26.8" cy="5.3" r="3.5" fill="#D87703"/>
                    <circle cx="4" cy="4.3" r="3.5" fill="#1E4784"/>
                    <path fill="#00233F" d="M4 .8c1.9 0 3.5 1.6 3.5 3.5S5.9 7.8 4 7.8"/>
                    <circle cx="26.8" cy="4.3" r="3.5" fill="#1E4784"/>
                    <path fill="#00233F" d="M26.8.8c1.9 0 3.5 1.6 3.5 3.5s-1.6 3.5-3.5 3.5"/>
                </g>
                <g>
                    <path fill="#19BCA4" d="M10.8.5c-1.8.1-3.2.8-3.2 1.7l6.5-.3c0-.9-1.5-1.5-3.3-1.4zM30.1.5c-1.8-.1-3.3.6-3.3 1.4l6.5.3c.1-.9-1.4-1.7-3.2-1.7z" transform="translate(18 12)"/>
                    <path fill="#109DA0" d="M10.9 2.5c1.8-.1 3.3.3 3.3-.6l-6.5.3c0 .8 1.4.3 3.2.3zM30 2.5c1.8.1 3.3.6 3.3-.3l-6.5-.3c0 .9 1.4.5 3.2.6z" transform="translate(18 12)"/>
                    <path fill="#F9C55D" d="M8.5 24.2c-4.3 0-7.8 1-7.8 2.2 0 1.2 3.5.7 7.8.7s7.8.6 7.8-.7c0-1.2-3.5-2.2-7.8-2.2z" transform="translate(18 12)"/>
                    <path fill="#F9A908" d="M32.4 24.2c-4.3 0-7.8 1-7.8 2.2 0 1.2 3.5.7 7.8.7s7.8.6 7.8-.7c0-1.2-3.4-2.2-7.8-2.2z" transform="translate(18 12)"/>
                </g>
            </g>
            <g>
                <path fill="#FFF" d="M26.3 11.4c0-6-5.8-10.8-12.9-10.8C6.3.6.5 5.4.5 11.4c0 1.6.4 3.1 1.1 4.5L7 23v3.1c0 3 2.9 5.4 6.5 5.4s6.5-2.4 6.5-5.4V23l5.2-7.1c.7-1.4 1.1-2.9 1.1-4.5z" transform="translate(77 66) translate(4 6)"/>
                <path fill="#F9F3DC" d="M13.5 31.5c3.6 0 6.5-2.4 6.5-5.4V23l5.2-7.1c.7-1.4 1.1-2.9 1.1-4.5 0-6-5.8-10.8-12.9-10.8" transform="translate(77 66) translate(4 6)"/>
                <path fill="#6D6DB2" d="M8.9 29.3v4.3c0 .9.7 1.7 1.7 1.7h5.8c.9 0 1.7-.7 1.7-1.7v-4.3H8.9z" transform="translate(77 66) translate(4 6)"/>
                <path fill="#4C4C8C" d="M16.4 35.3c.9 0 1.7-.7 1.7-1.7v-4.3H9" transform="translate(77 66) translate(4 6)"/>
                <path fill="#7777BF" d="M17.9 30.8c0 .2-.1.3-.3.3H9.3c-.2 0-.3-.1-.3-.3 0-.2.1-.3.3-.3h8.3c.2-.1.3.1.3.3zM17.9 32.3c0 .2-.1.3-.3.3H9.3c-.2 0-.3-.1-.3-.3 0-.2.1-.3.3-.3h8.3c.2 0 .3.2.3.3zM17.9 33.9c0 .2-.1.3-.3.3H9.3c-.2 0-.3-.1-.3-.3 0-.2.1-.3.3-.3h8.3c.2 0 .3.1.3.3z" transform="translate(77 66) translate(4 6)"/>
            </g>
            <g fill="#F9C55D" transform="translate(77 66) translate(11 18)">
                <circle cx="1.7" cy="2.1" r="1.2"/>
                <circle cx="6.5" cy="2.1" r="1.2"/>
                <circle cx="11.3" cy="2.1" r="1.2"/>
            </g>
            <path fill="#FFF" d="M18.5 3c0 .6-.5 1-1 1-.6 0-1-.5-1-1V1.1c0-.6.5-1 1-1 .6 0 1 .5 1 1V3z" transform="translate(77 66)"/>
            <g fill="#FFF">
                <path d="M7.7 5.8c.4.4.4 1.1 0 1.5-.4.4-1.1.4-1.5 0L4.9 5.9c-.4-.4-.4-1.1 0-1.5.4-.4 1.1-.4 1.5 0l1.3 1.4zM3.8 10.2c.5.2.8.8.6 1.3-.2.5-.8.8-1.3.6l-1.8-.6c-.5-.2-.8-.8-.6-1.3.2-.5.8-.8 1.3-.6l1.8.6zM13.1 3.3c.2.5 0 1.1-.6 1.3-.5.2-1.1 0-1.3-.6l-.7-1.8c-.2-.5 0-1.1.6-1.3.5-.2 1.1 0 1.3.6l.7 1.8z" transform="translate(77 66)"/>
                <g>
                    <path d="M6.3 5.8c-.4.4-.4 1.1 0 1.5.4.4 1.1.4 1.5 0l1.4-1.4c.4-.4.4-1.1 0-1.5-.4-.4-1.1-.4-1.5 0L6.3 5.8zM10.2 10.2c-.5.2-.8.8-.6 1.3.2.5.8.8 1.3.6l1.8-.6c.5-.2.8-.8.6-1.3-.2-.5-.8-.8-1.3-.6l-1.8.6zM.8 3.3c-.2.5 0 1.1.6 1.3.5.2 1.1 0 1.3-.6l.7-1.8c.2-.5 0-1.1-.6-1.3-.5-.2-1.1 0-1.3.6L.8 3.3z" transform="translate(77 66) translate(21)"/>
                </g>
            </g>
        </g>
    </g>
</svg>
