<svg xmlns="http://www.w3.org/2000/svg" width="160" height="160" viewBox="0 0 160 160">
    <g fill="none" fill-rule="evenodd">
        <path d="M0 0H160V160H0z"/>
        <path fill="#F76161" fill-rule="nonzero" d="M20 78.692c0 8.195 6.281 12.66 13.79 12.759 2.06 0 5.398-.54 8.636-2.895l-1.766-2.552c-2.7 2.012-5.742 2.16-6.772 2.16-6.085 0-10.158-4.025-10.208-9.472.049-5.353 3.983-9.332 9.895-9.467l.313-.004c1.03 0 4.073.147 6.772 2.16l1.766-2.553c-3.238-2.355-6.575-2.895-8.636-2.895C26.28 66.031 20 70.497 20 78.692zM52.208 32h-3.68v58.911h3.68V32zm32.258 34.473h-3.68v4.858c-2.16-3.68-5.644-5.398-9.717-5.398-7.41 0-12.17 5.742-12.17 12.759s4.76 12.759 12.17 12.759c4.073 0 7.557-1.718 9.716-5.398v4.858h3.68V66.473zM62.579 78.692c0-5.25 3.288-9.471 8.833-9.471 5.202 0 9.422 3.779 9.422 9.471 0 5.693-4.22 9.471-9.422 9.471-5.545 0-8.833-4.318-8.833-9.471zm44.428-7.46c-.933-3.729-4.27-5.299-7.46-5.299-4.907 0-7.9 3.288-7.9 7.165 0 3.342 2.322 5.29 5.657 6.433l3.716 1.222c2.11.687 3.484 1.669 3.484 3.582 0 2.356-2.16 3.877-4.907 3.877-2.749 0-5.055-1.374-5.791-3.435l-3.239.834c1.129 3.779 4.858 5.84 9.03 5.84 4.514 0 8.587-2.65 8.587-7.116 0-2.699-1.521-5.25-5.84-6.673l-3.63-1.178-.358-.123c-1.548-.563-3.029-1.542-3.029-3.41 0-1.865 1.62-3.78 4.466-3.78 1.668 0 3.239.786 3.926 2.847l3.288-.785zm7.426 56.996h3.68V86.053c2.16 3.68 5.644 5.398 9.717 5.398 7.41 0 12.17-5.742 12.17-12.759s-4.76-12.759-12.17-12.759c-4.073 0-7.557 1.718-9.717 5.398v-4.858h-3.68v61.755zm21.887-49.536c0 5.25-3.288 9.471-8.834 9.471-5.201 0-9.422-3.778-9.422-9.471 0-5.692 4.22-9.471 9.422-9.471 5.546 0 8.834 4.318 8.834 9.471z"/>
    </g>
</svg>
