<svg xmlns="http://www.w3.org/2000/svg" width="132" height="128" viewBox="0 0 132 128">
    <defs>
        <linearGradient id="cmtlj7422a" x1="0%" x2="100%" y1="1.527%" y2="98.473%">
            <stop offset="0%" stop-color="#FE8D45"/>
            <stop offset="100%" stop-color="#FF1963"/>
        </linearGradient>
    </defs>
    <g fill="none" fill-rule="evenodd">
        <g>
            <g>
                <g>
                    <g fill="url(#cmtlj7422a)" transform="translate(-106 -2680) translate(0 2441) translate(106 239)">
                        <path d="M28.804 123.242c34.004 12.296 86.082.136 98.449-33.622 12.366-33.757-20.32-74.531-54.324-86.827C38.925-9.502 20.105 20.792 7.739 54.55-4.628 88.307-5.2 110.947 28.804 123.242z"/>
                    </g>
                    <g fill-rule="nonzero">
                        <g>
                            <g transform="translate(-106 -2680) translate(0 2441) translate(106 239) translate(68 65) translate(0 3) translate(1)">
                                <path fill="#F7910B" d="M61.3 34.5C61.3 47.5 49.4 58 31 58S.7 47.5.7 34.5 12.6 2 31 2s30.3 19.5 30.3 32.5z"/>
                                <path fill="#F7910B" d="M61.3 34.5C61.3 47.5 49.4 54 31 54S.7 47.5.7 34.5 12.6 0 31 0s30.3 21.5 30.3 34.5z"/>
                                <path fill="#F9A908" d="M31 0c18.4 0 30.3 21.5 30.3 34.5S49.4 54 31 54"/>
                                <path fill="#F9A908" d="M61.3 34.5C61.3 47.5 49.4 54 31 54S.7 47.5.7 34.5 12.6 2 31 2s30.3 19.5 30.3 32.5z"/>
                                <path fill="#F9C55D" d="M.7 34.5C.7 21.5 12.6 2 31 2"/>
                                <path fill="#F7910B" d="M31 2c18.4 0 30.3 19.5 30.3 32.5S49.4 58 31 58"/>
                                <path fill="#EA7103" d="M31 2c18.4 0 30.3 19.5 30.3 32.5"/>
                                <g>
                                    <path fill="#F9C55D" d="M15.8 2.3c0 1.2-3.5.7-7.8.7S.2 3.6.2 2.3C.2 1.1 3.7.1 8 .1s7.8 1 7.8 2.2z" transform="translate(11 30)"/>
                                    <path fill="#F9A908" d="M39.8 2.3c0 1.2-3.5.7-7.8.7s-7.8.6-7.8-.7c0-1.2 3.5-2.2 7.8-2.2s7.8 1 7.8 2.2z" transform="translate(11 30)"/>
                                </g>
                                <circle cx="9.3" cy="31.5" r="1" fill="#F7910B"/>
                                <circle cx="4.8" cy="33.5" r="1.1" fill="#F7910B"/>
                                <circle cx="7.8" cy="29.5" r="1" fill="#F7910B"/>
                                <circle cx="12.4" cy="31.3" r="1" fill="#F7910B"/>
                                <circle cx="51.6" cy="31.8" r="1" fill="#F9A908"/>
                                <circle cx="54.1" cy="33.2" r="1" fill="#F9A908"/>
                                <circle cx="48.8" cy="24.4" r="1" fill="#F9A908"/>
                                <circle cx="48.3" cy="36" r="1.3" fill="#F9A908"/>
                                <circle cx="55.5" cy="36.1" r="1" fill="#F9A908"/>
                                <circle cx="8.3" cy="35.5" r="1" fill="#F7910B"/>
                                <circle cx="9.1" cy="27.1" r="1" fill="#F7910B"/>
                                <circle cx="3.8" cy="13.3" r="1.1" fill="#F9A908"/>
                                <circle cx="7" cy="9.8" r="1" fill="#F9A908"/>
                                <circle cx="58.2" cy="15.7" r="1" fill="#F9A908"/>
                                <circle cx="57.4" cy="12.8" r="1" fill="#F9A908"/>
                                <circle cx="60" cy="13.3" r="1" fill="#F9A908"/>
                                <circle cx="5" cy="16.3" r="1" fill="#F9A908"/>
                                <g transform="translate(8 12)">
                                    <circle cx="11.7" cy="11.6" r="9.3" fill="#FFF"/>
                                    <path fill="#756A49" d="M11.7 22.5c-6.1 0-11-4.9-11-11s4.9-11 11-11 11 4.9 11 11-5 11-11 11zm0-18.6C7.5 3.9 4 7.3 4 11.6c0 4.3 3.4 7.7 7.7 7.7 4.2 0 7.7-3.4 7.7-7.7 0-4.3-3.5-7.7-7.7-7.7z"/>
                                    <g>
                                        <path fill="#FFF" d="M20.7 11.6c0 5.2-4.2 9.3-9.3 9.3-5.2 0-9.3-4.2-9.3-9.3 0-5.1 4.2-9.3 9.3-9.3 5.1-.1 9.3 4.1 9.3 9.3z" transform="translate(23)"/>
                                        <path fill="#756A49" d="M11.3 22.5c-6.1 0-11-4.9-11-11s4.9-11 11-11 11 4.9 11 11-4.9 11-11 11zm0-18.6c-4.2 0-7.7 3.4-7.7 7.7 0 4.3 3.4 7.7 7.7 7.7 4.2 0 7.7-3.4 7.7-7.7 0-4.3-3.4-7.7-7.7-7.7z" transform="translate(23)"/>
                                    </g>
                                    <g transform="translate(8 7)">
                                        <circle cx="3.6" cy="5.1" r="3.5" fill="#CECDCC"/>
                                        <circle cx="26.4" cy="5.1" r="3.5" fill="#CECDCC"/>
                                        <circle cx="3.6" cy="4.1" r="3.5" fill="#1E4784"/>
                                        <path fill="#00233F" d="M3.6.6c1.9 0 3.5 1.6 3.5 3.5S5.5 7.6 3.6 7.6"/>
                                        <circle cx="26.4" cy="4.1" r="3.5" fill="#1E4784"/>
                                        <path fill="#00233F" d="M26.4.6c1.9 0 3.5 1.6 3.5 3.5s-1.6 3.5-3.5 3.5"/>
                                    </g>
                                </g>
                            </g>
                            <g>
                                <g>
                                    <path fill="#FFF" d="M2 1.5L11 1.5" transform="translate(-106 -2680) translate(0 2441) translate(106 239) translate(68 65) translate(0 3) translate(0 24)"/>
                                    <path fill="#756A49" d="M11 3H2C1.2 3 .5 2.3.5 1.5S1.2 0 2 0h9c.8 0 1.5.7 1.5 1.5S11.8 3 11 3z" transform="translate(-106 -2680) translate(0 2441) translate(106 239) translate(68 65) translate(0 3) translate(0 24)"/>
                                </g>
                                <g>
                                    <path fill="#FFF" d="M2 1.5L11 1.5" transform="translate(-106 -2680) translate(0 2441) translate(106 239) translate(68 65) translate(0 3) translate(0 24) translate(51)"/>
                                    <path fill="#756A49" d="M11 3H2C1.2 3 .5 2.3.5 1.5S1.2 0 2 0h9c.8 0 1.5.7 1.5 1.5S11.8 3 11 3z" transform="translate(-106 -2680) translate(0 2441) translate(106 239) translate(68 65) translate(0 3) translate(0 24) translate(51)"/>
                                </g>
                            </g>
                            <g fill="#109DA0">
                                <path d="M7 2.9c0 .6-1.5.2-3.2 0C2 2.7.6 2.9.6 2.3S1.4 0 3.2.2C4.9.4 7.1 2.4 7 2.9zM23 3.7c0 .6 1.5.2 3.2 0 1.8-.2 3.2 0 3.2-.6-.1-.6-.8-2.3-2.6-2.1-1.7.2-3.9 2.2-3.8 2.7z" transform="translate(-106 -2680) translate(0 2441) translate(106 239) translate(68 65) translate(0 3) translate(17 7)"/>
                            </g>
                            <g>
                                <path fill="#F7910B" d="M15.4 2c0 2.6-3.3 4.7-7.4 4.7C3.9 6.7.6 4.6.6 2" transform="translate(-106 -2680) translate(0 2441) translate(106 239) translate(68 65) translate(0 3) translate(24 36)"/>
                                <path fill="#02243E" d="M10 2H6c-.6 0-1-.4-1-1s.4-1 1-1h4c.6 0 1 .4 1 1s-.4 1-1 1z" transform="translate(-106 -2680) translate(0 2441) translate(106 239) translate(68 65) translate(0 3) translate(24 36)"/>
                            </g>
                        </g>
                    </g>
                </g>
            </g>
        </g>
    </g>
</svg>
