<svg xmlns="http://www.w3.org/2000/svg" width="131" height="129" viewBox="0 0 131 129">
    <defs>
        <linearGradient id="prefix__a" x1="0%" x2="100%" y1="1.527%" y2="98.473%">
            <stop offset="0%" stop-color="#FE8D45"/>
            <stop offset="100%" stop-color="#FF1963"/>
        </linearGradient>
    </defs>
    <g fill="none" fill-rule="evenodd">
        <path fill="url(#prefix__a)" d="M28.804 123.242c34.004 12.296 86.082.136 98.449-33.622 12.366-33.757-20.32-74.531-54.324-86.827C38.925-9.502 20.105 20.792 7.739 54.55-4.628 88.307-5.2 110.947 28.804 123.242z"/>
        <g fill-rule="nonzero" transform="translate(69 65)">
            <path fill="#F7910B" d="M61.3 39.9c0 13-11.9 23.5-30.3 23.5S.7 52.9.7 39.9 12.6 7.4 31 7.4s30.3 19.5 30.3 32.5z"/>
            <path fill="#F7910B" d="M61.3 39.9c0 13-11.9 19.5-30.3 19.5S.7 52.9.7 39.9 12.6 5.4 31 5.4s30.3 21.5 30.3 34.5z"/>
            <path fill="#F9A908" d="M31 5.4c18.4 0 30.3 21.5 30.3 34.5S49.4 59.4 31 59.4"/>
            <path fill="#F9A908" d="M61.3 39.9c0 13-11.9 19.5-30.3 19.5S.7 52.9.7 39.9 12.6 7.4 31 7.4s30.3 19.5 30.3 32.5z"/>
            <path fill="#F9C55D" d="M.7 39.9C.7 26.9 12.6 7.4 31 7.4"/>
            <path fill="#F7910B" d="M31 7.4c18.4 0 30.3 19.5 30.3 32.5S49.4 63.4 31 63.4"/>
            <path fill="#EA7103" d="M31 7.4c18.4 0 30.3 19.5 30.3 32.5"/>
            <path fill="#19BCA4" d="M24.7 23c.3.8-1.2.9-2.9 1.5s-2.9 1.5-3.2.7c-.3-.8.8-2 2.5-2.6 1.6-.6 3.3-.5 3.6.4zM37.3 18.4c0 .9 1.4.5 3.3.6 1.8.1 3.3.6 3.3-.3 0-.9-1.4-1.6-3.2-1.7-1.9-.1-3.4.5-3.4 1.4z"/>
            <path fill="#109DA0" d="M24.7 23c.3.8-1.2.9-2.9 1.5s-2.9 1.5-3.2.7M37.3 18.4c0 .9 1.4.5 3.3.6 1.8.1 3.3.6 3.3-.3"/>
            <circle cx="9.3" cy="36.9" r="1" fill="#F7910B"/>
            <circle cx="4.8" cy="38.9" r="1.1" fill="#F7910B"/>
            <circle cx="7.8" cy="34.9" r="1" fill="#F7910B"/>
            <circle cx="12.4" cy="36.7" r="1" fill="#F7910B"/>
            <circle cx="51.6" cy="37.2" r="1" fill="#F9A908"/>
            <circle cx="54.1" cy="38.6" r="1" fill="#F9A908"/>
            <circle cx="48.8" cy="29.8" r="1" fill="#F9A908"/>
            <circle cx="43.9" cy="28.7" r="1.3" fill="#F9A908"/>
            <circle cx="55.5" cy="41.5" r="1" fill="#F9A908"/>
            <circle cx="8.3" cy="40.9" r="1" fill="#F7910B"/>
            <circle cx="9.1" cy="32.5" r="1" fill="#F7910B"/>
            <circle cx="3.8" cy="18.7" r="1.1" fill="#F9A908"/>
            <circle cx="7" cy="15.2" r="1" fill="#F9A908"/>
            <circle cx="58.2" cy="21.1" r="1" fill="#F9A908"/>
            <circle cx="57.4" cy="18.2" r="1" fill="#F9A908"/>
            <path fill="#F9A908" d="M60.5 18.7c0 .3-.2.5-.5.5s-.5-.2-.5-.5.2-.5.5-.5c.2 0 .5.3.5.5z"/>
            <circle cx="5" cy="21.7" r="1" fill="#F9A908"/>
            <g>
                <path fill="#CE3674" d="M22 1.3C9.9 1.3.1 2.7.1 4.3.1 6 9.9 9 22 9c12.1 0 21.9-3 21.9-4.7 0-1.7-9.8-3-21.9-3zm0 4.1c-6.8 0-12.3-.8-12.3-1.7C9.7 2.8 15.2 2 22 2c6.8 0 12.3.8 12.3 1.7 0 .9-5.5 1.7-12.3 1.7z" transform="translate(9)"/>
                <path fill="#EA5C93" d="M22 .6C9.9.6.1 2 .1 3.6c0 1.7 9.8 3 21.9 3 12.1 0 21.9-1.4 21.9-3S34.1.6 22 .6zm0 4.1C15.2 4.7 9.7 4 9.7 3c0-.9 5.5-1.7 12.3-1.7 6.8 0 12.3.8 12.3 1.7 0 1-5.5 1.7-12.3 1.7z" transform="translate(9)"/>
            </g>
            <g>
                <g>
                    <path fill="#F9C55D" d="M17.4 2.6c0 1.3-3.8.7-8.6.7-4.7 0-8.6.6-8.6-.7C.2 1.3 4 .2 8.8.2s8.6 1.1 8.6 2.4z" transform="translate(9 35) translate(0 5)"/>
                    <path fill="#F9A908" d="M43.8 2.6c0 1.3-3.8.7-8.6.7-4.7 0-8.6.6-8.6-.7 0-1.3 3.8-2.4 8.6-2.4 4.7 0 8.6 1.1 8.6 2.4z" transform="translate(9 35) translate(0 5)"/>
                </g>
                <g>
                    <path fill="#1E4784" d="M1.7.4c.4 0 .8.2 1.2.5C4.3 2.3 6.6 2.3 8 .9c.6-.6 1.7-.7 2.3 0 .6.6.7 1.7 0 2.3-2.7 2.7-7.1 2.7-9.8 0-.6-.6-.7-1.7 0-2.3.4-.3.8-.5 1.2-.5z" transform="translate(9 35) translate(5)"/>
                    <path fill="#02243E" d="M.6 3.2C0 2.6-.1 1.5.6.9.9.6 1.3.4 1.8.4c.4 0 .8.2 1.2.5 1.4 1.4 3.7 1.4 5.1 0 .6-.6 1.7-.7 2.3 0 .6.6.7 1.7 0 2.3" transform="translate(9 35) translate(5)"/>
                    <g>
                        <path fill="#1E4784" d="M9.3.4c-.4 0-.8.2-1.2.5C6.7 2.3 4.4 2.3 3 .9 2.4.3 1.3.2.7.9c-.6.6-.7 1.7 0 2.3 2.7 2.7 7.1 2.7 9.8 0 .6-.6.6-1.7 0-2.3-.4-.3-.8-.5-1.2-.5z" transform="translate(9 35) translate(5) translate(23)"/>
                        <path fill="#02243E" d="M10.4 3.2c.6-.6.6-1.7 0-2.3-.3-.3-.7-.5-1.2-.5-.4 0-.8.2-1.2.5-1.4 1.4-3.7 1.4-5.1 0C2.3.3 1.2.2.6.9c-.6.6-.7 1.7 0 2.3" transform="translate(9 35) translate(5) translate(23)"/>
                    </g>
                </g>
            </g>
            <g>
                <path fill="#F7910B" d="M24.4 7.1c0 2.6-3.3 7.3-7.4 7.3-4.1 0-7.4-4.7-7.4-7.3" transform="translate(14 42)"/>
                <g fill="#02243E">
                    <path d="M2 5C1.4 5 .9 4.5.9 3.9c0-.6.5-1.1 1.1-1.1.9 0 1.6-.7 1.6-1.6C3.6.6 4.1.1 4.7.1c.6 0 1.1.5 1.1 1.1C5.7 3.3 4 5 2 5zM32 5c-2.1 0-3.8-1.7-3.8-3.8 0-.6.5-1.1 1.1-1.1.6 0 1.1.5 1.1 1.1 0 .9.7 1.6 1.6 1.6.6 0 1.1.5 1.1 1.1 0 .6-.5 1.1-1.1 1.1z" transform="translate(14 42)"/>
                </g>
                <path fill="#02243E" d="M17 9.9C12 9.9 6.9 8 3.1 4.1c-.4-.4-.4-1.1 0-1.6.4-.4 1.1-.4 1.6 0 6.8 6.8 17.9 6.8 24.8 0 .4-.4 1.1-.4 1.6 0 .4.4.4 1.1 0 1.6C27.1 8 22 9.9 17 9.9z" transform="translate(14 42)"/>
            </g>
            <path fill="#12AD79" d="M5.5 4.9c0-.4.3-.7.7-.7.4 0 .8.3.8.7"/>
            <circle cx="14" cy="9.9" r="1.2" fill="#12AD79"/>
            <circle cx="6.9" cy="10.5" r="3.2" fill="#12AD79"/>
            <path fill="#12AD79" d="M46.8 9c.2 0 .4.2.4.4s-.2.4-.4.4"/>
            <circle cx="51.5" cy="9.3" r="1" fill="#12AD79"/>
            <path fill="#12AD79" d="M53.1 13c0-.5.4-1 1-1 .5 0 1 .4 1 1"/>
            <circle cx="56.7" cy="7.4" r="1.8" fill="#12AD79"/>
            <circle cx="58.7" cy="13.5" r="1" fill="#12AD79"/>
        </g>
    </g>
</svg>
