<svg xmlns="http://www.w3.org/2000/svg" width="133" height="128" viewBox="0 0 133 128">
    <defs>
        <linearGradient id="prefix__a" x1="0%" x2="100%" y1="1.986%" y2="98.014%">
            <stop offset="0%" stop-color="#FE8D45"/>
            <stop offset="100%" stop-color="#FF1963"/>
        </linearGradient>
    </defs>
    <g fill="none" fill-rule="evenodd">
        <path fill="url(#prefix__a)" d="M28.804 122.658c34.004 12.237 86.082.135 98.449-33.463 12.366-33.597-20.32-74.178-54.324-86.415C38.925-9.457 20.105 20.693 7.739 54.29-4.628 87.889-5.2 110.422 28.804 122.659z"/>
        <g fill-rule="nonzero" transform="translate(66.968 64)">
            <path fill="#F7910B" d="M65.319 39.8c0 13-12.68 23.5-32.287 23.5C13.426 63.3.746 52.8.746 39.8S13.426 7.3 33.032 7.3C52.64 7.3 65.32 26.9 65.32 39.8z"/>
            <path fill="#F7910B" d="M65.319 39.8c0 13-12.68 19.5-32.287 19.5C13.426 59.3.746 52.8.746 39.8S13.426 5.3 33.032 5.3C52.64 5.3 65.32 26.9 65.32 39.8z"/>
            <path fill="#F9A908" d="M33.032 5.3C52.64 5.3 65.32 26.8 65.32 39.8s-12.68 19.5-32.287 19.5"/>
            <path fill="#F9A908" d="M65.319 39.8c0 13-12.68 19.5-32.287 19.5C13.426 59.3.746 52.8.746 39.8S13.426 7.3 33.032 7.3C52.64 7.3 65.32 26.9 65.32 39.8z"/>
            <path fill="#F9C55D" d="M.746 39.8c0-13 12.68-32.5 32.286-32.5"/>
            <path fill="#F7910B" d="M33.032 7.3C52.64 7.3 65.32 26.8 65.32 39.8s-12.68 23.5-32.287 23.5"/>
            <path fill="#EA7103" d="M33.032 7.3C52.64 7.3 65.32 26.8 65.32 39.8"/>
            <path fill="#19BCA4" d="M26.32 1.4c.319.8-1.28.9-3.09 1.5-1.812.6-3.091 1.5-3.41.7-.32-.8.852-2 2.663-2.6C24.188.4 26 .6 26.32 1.4zM39.745 2.7c0 .9 1.492.5 3.517.6 1.918.1 3.516.6 3.516-.3 0-.9-1.492-1.6-3.41-1.7-2.024-.2-3.623.5-3.623 1.4z"/>
            <path fill="#109DA0" d="M26.32 1.4c.319.8-1.28.9-3.09 1.5-1.812.6-3.091 1.5-3.41.7M39.745 2.7c0 .9 1.492.5 3.517.6 1.918.1 3.516.6 3.516-.3"/>
            <circle cx="9.91" cy="36.8" r="1" fill="#F7910B"/>
            <ellipse cx="5.115" cy="38.8" fill="#F7910B" rx="1.172" ry="1.1"/>
            <circle cx="8.311" cy="34.8" r="1" fill="#F7910B"/>
            <circle cx="13.213" cy="36.6" r="1" fill="#F7910B"/>
            <circle cx="54.983" cy="37.2" r="1" fill="#F9A908"/>
            <circle cx="57.647" cy="38.6" r="1" fill="#F9A908"/>
            <circle cx="51.999" cy="29.7" r="1" fill="#F9A908"/>
            <ellipse cx="46.778" cy="28.7" fill="#F9A908" rx="1.385" ry="1.3"/>
            <circle cx="59.138" cy="41.4" r="1" fill="#F9A908"/>
            <circle cx="8.844" cy="40.8" r="1" fill="#F7910B"/>
            <circle cx="9.697" cy="32.4" r="1" fill="#F7910B"/>
            <ellipse cx="4.049" cy="18.7" fill="#F9A908" rx="1.172" ry="1.1"/>
            <circle cx="7.459" cy="15.1" r="1" fill="#F9A908"/>
            <circle cx="62.015" cy="21.1" r="1" fill="#F9A908"/>
            <circle cx="61.163" cy="18.1" r="1" fill="#F9A908"/>
            <path fill="#F9A908" d="M64.466 18.7c0 .3-.213.5-.533.5-.32 0-.532-.2-.532-.5s.213-.5.532-.5c.214 0 .533.2.533.5z"/>
            <circle cx="5.328" cy="21.6" r="1" fill="#F9A908"/>
            <g>
                <g>
                    <path fill="#F9C55D" d="M18.54 2.9c0 1.3-4.048.7-9.163.7-5.008 0-9.164.6-9.164-.7 0-1.3 4.05-2.4 9.164-2.4 5.115-.1 9.164 1 9.164 2.4z" transform="translate(9.59 19) translate(0 5)"/>
                    <path fill="#F9A908" d="M46.671 2.9c0 1.3-4.049.7-9.163.7-5.009 0-9.164.6-9.164-.7 0-1.3 4.049-2.4 9.164-2.4 5.008-.1 9.163 1 9.163 2.4z" transform="translate(9.59 19) translate(0 5)"/>
                </g>
                <g>
                    <path fill="#1E4784" d="M1.811.7c.427 0 .853.2 1.28.5 1.49 1.4 3.942 1.4 5.433 0 .64-.6 1.812-.7 2.451 0 .64.6.746 1.7 0 2.3C8.098 6.2 3.41 6.2.533 3.5c-.64-.6-.746-1.7 0-2.3C.959.8 1.385.7 1.81.7z" transform="translate(9.59 19) translate(5.328)"/>
                    <path fill="#02243E" d="M.64 3.5C0 2.9-.108 1.8.64 1.2.958.9 1.384.7 1.917.7c.426 0 .852.2 1.279.5 1.491 1.4 3.942 1.4 5.434 0 .64-.6 1.811-.7 2.45 0 .64.6.747 1.7 0 2.3" transform="translate(9.59 19) translate(5.328)"/>
                    <g>
                        <path fill="#1E4784" d="M9.91.7c-.427 0-.853.2-1.279.5-1.492 1.4-3.943 1.4-5.434 0-.64-.6-1.812-.7-2.451 0-.64.6-.746 1.7 0 2.3 2.877 2.7 7.565 2.7 10.442 0 .64-.6.64-1.7 0-2.3-.426-.4-.852-.5-1.278-.5z" transform="translate(9.59 19) translate(5.328) translate(24.508)"/>
                        <path fill="#02243E" d="M11.082 3.5c.64-.6.64-1.7 0-2.3-.32-.3-.746-.5-1.279-.5-.426 0-.852.2-1.279.5-1.491 1.4-3.942 1.4-5.434 0C2.45.6 1.28.5.64 1.2c-.64.6-.747 1.7 0 2.3" transform="translate(9.59 19) translate(5.328) translate(24.508)"/>
                    </g>
                </g>
            </g>
            <g>
                <path fill="#F7910B" d="M26 7.4c0 2.6-3.517 7.3-7.886 7.3-4.368 0-7.885-4.7-7.885-7.3" transform="translate(14.918 26)"/>
                <g fill="#02243E">
                    <path d="M2.131 5.3C1.491 5.3.96 4.8.96 4.2c0-.6.533-1.1 1.172-1.1.96 0 1.705-.7 1.705-1.6 0-.6.533-1.1 1.172-1.1.64 0 1.172.5 1.172 1.1-.106 2.1-1.918 3.8-4.049 3.8zM34.098 5.3c-2.238 0-4.05-1.7-4.05-3.8 0-.6.533-1.1 1.173-1.1s1.172.5 1.172 1.1c0 .9.746 1.6 1.705 1.6.64 0 1.172.5 1.172 1.1 0 .6-.533 1.1-1.172 1.1z" transform="translate(14.918 26)"/>
                </g>
                <path fill="#02243E" d="M18.114 10.2c-5.327 0-10.762-1.9-14.81-5.8-.427-.4-.427-1.1 0-1.6.425-.4 1.171-.4 1.704 0 7.246 6.8 19.074 6.8 26.426 0 .426-.4 1.172-.4 1.705 0 .426.4.426 1.1 0 1.6-4.262 3.9-9.697 5.8-15.025 5.8z" transform="translate(14.918 26)"/>
            </g>
            <ellipse cx="14.918" cy="9.8" fill="#F9A908" rx="1.279" ry="1.2"/>
            <ellipse cx="7.352" cy="10.5" fill="#F9A908" rx="3.41" ry="3.2"/>
            <path fill="#F9A908" d="M49.868 9c.213 0 .426.2.426.4s-.213.4-.426.4"/>
            <circle cx="54.876" cy="9.2" r="1" fill="#F9A908"/>
            <path fill="#F9A908" d="M56.581 13c0-.5.426-1 1.066-1 .532 0 1.065.4 1.065 1"/>
            <ellipse cx="60.417" cy="7.3" fill="#F9A908" rx="1.918" ry="1.8"/>
            <circle cx="62.548" cy="13.4" r="1" fill="#F9A908"/>
            <path fill="#8E6649" d="M.746 40c.32 13.5 12.893 23.3 32.286 23.3S65 53.5 65.32 40H.746z"/>
            <path fill="#774313" d="M33.032 63.3c19.393 0 32.074-9.8 32.287-23.3H1.066"/>
            <g fill="#774313">
                <path d="M.107 4.2L4.475 0 16.836 2.6zM33.991 4.2L29.516 0 17.262 2.6z" transform="translate(15.983 38)"/>
            </g>
            <g>
                <path fill="#FFEBC7" d="M17.049 1.5c0 .3-.213.5-.533.5H4.795c-.32 0-.533-.2-.533-.5s.213-.5.533-.5h11.721c.32 0 .533.2.533.5z" transform="translate(22.377 41)"/>
                <g fill="#F9C55D" transform="translate(22.377 41)">
                    <circle cx=".852" cy="1.7" r="1"/>
                    <circle cx="20.459" cy="1.7" r="1"/>
                </g>
            </g>
            <g fill="#F9C55D" transform="translate(28.77 8)">
                <circle cx="6.287" cy="4.6" r="1"/>
                <path d="M8.524 4.7c0-2.2-1.918-4-4.262-4C1.918.7 0 2.5 0 4.7s1.918 4 4.262 4c2.344 0 4.262-1.8 4.262-4zM1.28 4.6c0-.4.32-.7.746-.7s.745.3.745.7c0 .4-.32.7-.745.7-.427 0-.746-.4-.746-.7zm2.983.1c-.32-.9-.64-1.8-1.918-1.8C1.28 2.9.426 3.7.426 4.7c0-2 1.705-3.6 3.836-3.6s3.836 1.6 3.836 3.6c0 1-.852 1.8-1.918 1.8-1.278 0-1.598-.9-1.918-1.8z"/>
            </g>
        </g>
    </g>
</svg>
