<svg xmlns="http://www.w3.org/2000/svg" width="32" height="32" viewBox="0 0 32 32">
    <g fill="none">
        <path fill="#F2A35E" d="M28.54 2.828c-.644.284-1.313.51-1.999.676.76-.722 1.324-1.624 1.643-2.622.042-.13 0-.27-.107-.355-.106-.085-.253-.095-.37-.026-.953.567-1.982.992-3.057 1.263-.064.01-.13.01-.193 0-.197-.001-.386-.074-.532-.205C22.782.552 21.31-.002 19.786 0c-.659.002-1.314.1-1.945.29-2.13.647-3.733 2.414-4.169 4.598-.052.271-.09.546-.115.821-.036.408.215.787.605.913.895.243 1.805.43 2.724.562-1.189.11-2.385.123-3.576.042l-.375-.042C8.668 6.699 4.763 4.557 2.06 1.22c-.062-.088-.163-.14-.272-.14-.108 0-.21.052-.272.14C.06 3.702.481 6.857 2.538 8.87c-.502-.122-.986-.309-1.438-.557-.1-.057-.222-.056-.32.003-.098.06-.156.167-.152.281-.034 2.47 1.385 4.73 3.625 5.77H4.12c-.354-.001-.708-.036-1.057-.103-.113-.02-.229.02-.304.107-.076.087-.1.207-.064.316.71 2.191 2.567 3.815 4.833 4.23 1.806.284 3.648.237 5.437-.14 0 0-2.32 1.813-6.229 1.118-.366-.055-.742-.005-1.081.145-1.41.58-2.922.876-4.447.87H.483c-.22-.003-.414.148-.465.363-.056.215.041.441.236.55 2.617 1.527 5.591 2.336 8.621 2.344 2.541.022 5.057-.51 7.371-1.56 2.057-.958 3.893-2.335 5.39-4.041 1.427-1.626 2.545-3.5 3.298-5.528.73-1.931 1.11-3.977 1.124-6.042V6.9c-.009-.333.139-.65.398-.858.964-.78 1.804-1.704 2.49-2.737.079-.121.07-.28-.024-.39-.094-.11-.249-.146-.381-.087z" transform="translate(2 4)"/>
        <path fill="#F26666" d="M12.941 18.777s-2.32 1.813-6.229 1.118c-.367-.055-.742-.005-1.081.145-1.403.577-2.906.872-4.423.87H.483c-.22-.003-.414.148-.465.363-.056.215.041.441.236.55 2.617 1.527 5.591 2.336 8.621 2.344 2.541.022 5.057-.51 7.371-1.56 2.057-.958 3.893-2.335 5.39-4.041-3.209 3.486-8.695.212-8.695.212z" transform="translate(2 4)"/>
    </g>
</svg>
