<svg xmlns="http://www.w3.org/2000/svg" width="32" height="32" viewBox="0 0 32 32">
    <g fill="none" transform="translate(1 1)">
        <path fill="#F26666" d="M20.456 1.5H9.544c-4.441.003-8.04 3.603-8.044 8.044v10.912c.003 4.441 3.603 8.04 8.044 8.044h10.912c4.441-.003 8.04-3.603 8.044-8.044V9.544c-.003-4.441-3.603-8.04-8.044-8.044z"/>
        <circle cx="15" cy="15" r="5.963" fill="#F2A35E"/>
        <path fill="#F2A35E" d="M21.063 0H8.938C4.003.003.002 4.003 0 8.938v12.124C.003 25.997 4.003 29.998 8.938 30h12.124c4.935-.003 8.935-4.003 8.938-8.938V8.938C29.997 4.003 25.997.004 21.062 0zm5.918 21.063c0 3.268-2.65 5.918-5.919 5.918H8.938c-3.268 0-5.918-2.65-5.918-5.919V8.938c0-3.268 2.65-5.918 5.918-5.918h12.126c3.268 0 5.918 2.65 5.918 5.918v12.126z"/>
        <path fill="#EFE6DF" d="M15 7.244c-4.284 0-7.756 3.472-7.756 7.756 0 4.284 3.472 7.756 7.756 7.756 4.284 0 7.756-3.472 7.756-7.756 0-4.284-3.472-7.756-7.756-7.756zm0 12.5c-2.62 0-4.744-2.124-4.744-4.744 0-2.62 2.124-4.744 4.744-4.744 2.62 0 4.744 2.124 4.744 4.744 0 1.258-.5 2.465-1.39 3.354-.89.89-2.096 1.39-3.354 1.39z"/>
        <path fill="#E2DAD5" d="M23.875 7.3c0 .608-.492 1.1-1.1 1.1-.608 0-1.1-.492-1.1-1.1 0-.608.492-1.1 1.1-1.1.292 0 .572.116.778.322.206.206.322.486.322.778z"/>
    </g>
</svg>
