<svg xmlns="http://www.w3.org/2000/svg" width="1024" height="150" fill="none" viewBox="0 0 1024 150">
    <path fill="#fff" d="M0 16C0 7.163 7.163 0 16 0h994c8.84 0 16 7.163 16 16v134H0V16z"/>
    <g opacity=".8">
        <mask id="5ea6pe40sa" width="445" height="150" x="0" y="0" maskUnits="userSpaceOnUse">
            <path fill="#fff" d="M0 0H445V150H0z"/>
        </mask>
        <g mask="url(#5ea6pe40sa)">
            <path fill="#E2DAD5" d="M96.013 20.298c-.032.628-.523 1.135-1.149 1.185-.634 0-1.148-.516-1.148-1.151C93.555 13.178 92.855 6.048 91.62-1h-5.102c1.498 7.7 2.312 15.519 2.433 23.363-.017.635-.516 1.15-1.149 1.185-.634 0-1.149-.515-1.149-1.151-.16-7.856-.996-15.685-2.5-23.397h-6.149c2.118 10.155 3.148 20.506 3.075 30.88 0 5.113-.237 10.158-.676 14.729 3.818-11.41 9.291-18.487 15.44-18.487 1.169.044 2.317.32 3.379.812V3.03c0-1.074-.429-2.104-1.19-2.86C97.272-.589 96.24-1.01 95.168-1h-1.284c1.273 7.031 1.985 14.153 2.129 21.298z"/>
            <path fill="#E2DAD5" d="M77.06 85.105c-.055 10.434 1.01 20.843 3.175 31.049h4.629c-2.632-10.135-3.904-20.577-3.784-31.05 0-27.967 7.838-49.84 17.872-49.84h.338v-5.79c-1.016-.637-2.18-.999-3.378-1.05-10.237.068-18.852 25.97-18.852 56.68zM49.727 3.03v5.146c3.582 2.506 6.15 11.14 6.15 21.806 0 10.665-2.569 19.333-6.15 21.839v8.059c.311.128.644.197.98.203 4.764 0 9.865-12.088 9.865-30.101 0-17.235-4.696-29.018-9.257-30-.96.724-1.544 1.844-1.588 3.047z"/>
            <path fill="#E2DAD5" d="M89.222 85.105c-.333 10.596 1.448 21.151 5.237 31.049h.777c2.112.004 3.861-1.645 3.986-3.759-3.378-5.485-5.54-15.541-5.54-27.29 0-11.75 2.23-21.907 5.608-27.359v-10.53c-5.27 3.792-10.068 18.047-10.068 37.889z"/>
            <path fill="#E2DAD5" d="M83.141 85.105c-.11 10.48 1.209 20.926 3.92 31.049h5.37c-3.619-9.939-5.338-20.472-5.067-31.05 0-20.315 5.068-36.601 11.926-40.089v-7.652h-.338c-8.581-.068-15.811 21.84-15.811 47.742z"/>
            <path fill="#E2DAD5" d="M99.29 109.043V61.166c-2.903 7.635-4.27 15.771-4.02 23.939-.253 8.167 1.113 16.304 4.02 23.938zM53.85 93.231c.066-.273.33-.45.607-.406.153.009.295.078.397.192.101.115.153.265.144.417-.304 7.583-.033 15.178.81 22.72h5.068c-.905-7.616-1.199-15.293-.878-22.957.008-.309.143-.6.374-.806.23-.205.535-.305.842-.277.621.036 1.1.562 1.081 1.185-.278 7.631.027 15.271.913 22.855h5.439c-1.077-8.18-1.45-16.439-1.115-24.683.036-.642.576-1.137 1.216-1.118.305.018.59.156.793.385.203.228.307.529.288.834-.309 8.213.087 16.437 1.183 24.582h6.757c-2.13-10.21-3.173-20.618-3.108-31.049 0-5.113.236-10.158.675-14.729-3.817 11.41-9.29 18.487-15.44 18.487-3.75 0-7.263-2.64-10.135-7.246v30.474c0 2.225 1.8 4.029 4.02 4.029h1.014c-.913-7.593-1.23-15.246-.946-22.889z"/>
            <path fill="#E2DAD5" d="M59.998 86.56c10.136 0 18.785-25.936 18.785-56.68C78.83 19.504 77.776 9.153 75.64-1h-4.63c2.619 10.08 3.88 20.465 3.751 30.88 0 28.002-7.838 49.909-17.839 49.909-2.894-.2-5.542-1.708-7.196-4.097v1.286c2.973 6.027 6.52 9.583 10.271 9.583z"/>
            <path fill="#E2DAD5" d="M53.815 68.852c6.183 0 12.805-15.677 12.805-38.972.313-10.53-1.431-21.02-5.136-30.88H53.41c5.068 3.386 8.75 15.61 8.75 30.812 0 17.776-5 31.726-11.453 31.726-.326.033-.654.033-.98 0v5.113c1.002 1.268 2.481 2.064 4.088 2.201z"/>
            <path fill="#E2DAD5" d="M56.923 77.69c8.548 0 15.778-21.874 15.778-47.81C72.794 19.46 71.498 9.076 68.85-1h-5.372c3.573 9.89 5.268 20.364 5 30.88 0 22.889-6.453 40.8-14.663 40.8-1.497-.05-2.935-.598-4.088-1.557v3.149c2.163 3.42 4.629 5.417 7.197 5.417zM54.491 29.88c0-9.988-2.196-17.336-4.764-20.045v40.09c2.703-2.675 4.764-10.022 4.764-20.045z"/>
            <path fill="#F2A35E" d="M53.511 147c-.254-6.185-1.532-12.284-3.784-18.047V147h3.784zM59.626 147c-.207-8.619-1.922-17.134-5.067-25.158h-.777c-2.125-.002-3.88 1.666-3.987 3.793 3.343 6.634 5.167 13.934 5.338 21.365h4.493zM65.674 147c-.278-8.501-1.525-16.941-3.716-25.158h-5.372c3.003 8.059 4.658 16.559 4.899 25.158h4.189zM71.79 147c-.259-8.46-1.276-16.88-3.042-25.158h-4.594c2.138 8.225 3.35 16.663 3.615 25.158h4.02zM81.384 146.39c-.045.163-.125.314-.236.44H99.29v-21.094c0-2.244-1.815-4.063-4.054-4.063h-.98c.885 7.618 1.19 15.292.912 22.957-.034.309-.297.543-.608.541-.309-.034-.542-.297-.54-.609.232-7.645-.118-15.297-1.048-22.889h-5.067c.905 7.628 1.199 15.316.878 22.99-.017.306-.155.592-.384.795-.228.204-.528.307-.832.289-.305-.017-.59-.156-.793-.385-.203-.228-.307-.529-.288-.834.277-7.631-.028-15.271-.913-22.855H80.27c1.078 8.192 1.45 16.461 1.115 24.717zM79.458 147c-.136-.16-.209-.365-.203-.576.31-8.213-.086-16.437-1.182-24.582h-6.757c1.674 8.286 2.601 16.706 2.77 25.158h5.372z"/>
            <path fill="#F26666" d="M-2.842 125.533c0-.642.509-1.167 1.148-1.185.635 0 1.15.515 1.15 1.151.14 7.154.84 14.287 2.094 21.331h5.068c-1.48-7.703-2.293-15.519-2.433-23.363.032-.628.523-1.134 1.149-1.185.64 0 1.164.51 1.182 1.152.13 7.914.967 15.801 2.5 23.566h6.25c-2.1-10.157-3.13-20.507-3.074-30.88 0-5.113.27-10.158.676-14.729-3.818 11.411-9.257 18.487-15.44 18.487-1.169-.044-2.317-.32-3.379-.812v23.905c-.001 2.16 1.698 3.938 3.852 4.029h1.284c-1.238-7.091-1.915-14.269-2.027-21.467z"/>
            <path fill="#F26666" d="M16.078 60.726c.054-10.434-1.01-20.843-3.176-31.05H8.273c2.661 10.131 3.945 20.575 3.818 31.05 0 27.968-7.872 49.875-17.872 49.875h-.338v5.925c1.013.645 2.18 1.007 3.378 1.05 10.237-.169 18.819-26.14 18.819-56.85zM43.41 142.801v-5.045c-3.379-2.505-6.15-11.139-6.15-21.805s2.602-19.334 6.15-21.84v-8.058c-.31-.135-.643-.204-.98-.203-4.764 0-9.832 12.088-9.832 30.101 0 17.234 4.663 29.017 9.224 29.999.988-.746 1.575-1.909 1.588-3.149z"/>
            <path fill="#F26666" d="M3.949 60.726C4.282 50.13 2.5 39.574-1.288 29.676h-.81c-2.107.014-3.846 1.653-3.987 3.76 3.378 5.484 5.574 15.54 5.574 27.29s-2.23 21.941-5.608 27.359v10.53C-.883 94.823 3.949 80.568 3.949 60.726z"/>
            <path fill="#F26666" d="M9.996 60.726c.103-10.478-1.204-20.921-3.885-31.05H.705c3.62 9.94 5.34 20.473 5.068 31.05 0 20.316-5.034 36.602-11.892 40.09v7.652h.338c8.547.068 15.777-21.84 15.777-47.742zM39.322 52.6c-.066.274-.31.467-.592.467-.28 0-.525-.193-.59-.467.316-7.642.01-15.297-.913-22.89h-5.068c.889 7.618 1.193 15.293.912 22.957-.097.57-.589.986-1.165.986-.576 0-1.069-.416-1.166-.986.317-7.63.012-15.274-.912-22.855h-5.44c1.055 8.137 1.394 16.352 1.014 24.548 0 .412-.219.792-.574.997-.356.206-.793.206-1.149 0-.355-.205-.574-.585-.574-.997.338-8.243-.024-16.5-1.081-24.683h-6.757c2.118 10.211 3.149 20.62 3.074 31.049 0 5.113-.236 10.158-.642 14.729 3.818-11.41 9.257-18.487 15.406-18.487 3.75 0 7.264 2.64 10.136 7.246V33.74c0-2.225-1.8-4.03-4.02-4.03h-.98c.938 7.592 1.3 15.244 1.08 22.89z"/>
            <path fill="#F26666" d="M33.14 59.27c-10.137 0-18.752 25.936-18.752 56.681-.076 10.433.977 20.844 3.142 31.049h4.494c-2.618-10.08-3.88-20.465-3.75-30.88 0-27.968 7.838-49.909 17.872-49.909 2.884.206 5.519 1.713 7.162 4.097v-1.286c-2.871-6.197-6.385-9.752-10.169-9.752z"/>
            <path fill="#F26666" d="M39.322 76.978c-6.183 0-12.805 15.678-12.805 38.973-.344 10.59 1.413 21.144 5.17 31.049h8.04c-5.067-3.386-8.75-15.609-8.75-30.812 0-17.776 5.034-31.727 11.453-31.727.326-.035.654-.035.98 0v-5.18c-.977-1.312-2.462-2.149-4.088-2.303z"/>
            <path fill="#F26666" d="M36.247 68.141c-8.581 0-15.811 21.873-15.811 47.81-.115 10.478 1.192 20.923 3.885 31.049h5.372c-3.602-9.884-5.31-20.361-5.034-30.88 0-22.889 6.453-40.631 14.663-40.631 1.504.044 2.948.606 4.088 1.591v-3.149c-2.163-3.792-4.494-5.79-7.163-5.79zM38.646 115.951c0 10.157 2.23 17.336 4.764 20.044v-40.09c-2.534 2.676-4.764 10.023-4.764 20.046z"/>
            <path fill="#EFE6DF" d="M39.626-1c.253 6.184 1.532 12.283 3.784 18.047V-1h-3.784zM33.51-1c.208 8.619 1.923 17.134 5.068 25.158h.811c2.112-.031 3.846-1.68 3.987-3.793C40.016 13.737 38.19 6.433 38.038-1H33.51zM27.463-1c.278 8.5 1.524 16.941 3.716 25.158h5.406C33.565 16.104 31.91 7.6 31.686-1h-4.223zM21.348-1c.258 8.46 1.276 16.88 3.04 25.158h4.63C26.86 15.937 25.647 7.496 25.401-1h-4.054zM11.888-.56c0-.17 0-.305.203-.44H-6.12v21.095c-.01 1.074.41 2.108 1.165 2.87.755.764 1.783 1.193 2.855 1.193h.98C-2.004 16.54-2.31 8.865-2.032 1.2c.066-.274.31-.467.592-.467.28 0 .525.193.59.467-.315 7.642-.01 15.297.913 22.889h5.068C4.223 16.462 3.918 8.775 4.219 1.1c.017-.306.155-.592.383-.796.229-.203.528-.307.833-.288.64.036 1.134.577 1.115 1.219-.317 7.63-.012 15.274.912 22.855h5.44c-1.06-8.171-1.398-16.42-1.014-24.65zM13.881-1c.121.168.192.368.203.576-.299 8.212.097 16.436 1.183 24.582h6.756c-1.732-8.28-2.716-16.7-2.939-25.158h-5.203z"/>
            <path fill="#F2A35E" d="M152.027 20.298c-.031.628-.523 1.135-1.148 1.185-.635 0-1.149-.516-1.149-1.152-.141-7.154-.841-14.286-2.095-21.331h-5.169c1.498 7.7 2.312 15.519 2.433 23.363 0 .642-.509 1.167-1.149 1.185-.634 0-1.149-.515-1.149-1.151-.16-7.857-.996-15.685-2.5-23.397h-6.047c2.088 10.158 3.107 20.508 3.04 30.88 0 5.113-.236 10.158-.641 14.729 3.817-11.41 9.257-18.488 15.406-18.488 1.168.045 2.317.321 3.378.813V3.03c0-2.225-1.8-4.029-4.02-4.029h-1.284c1.251 7.034 1.951 14.155 2.094 21.298z"/>
            <path fill="#F2A35E" d="M133.108 85.105c-.055 10.434 1.01 20.843 3.175 31.049h4.595c-2.631-10.135-3.904-20.577-3.784-31.05 0-27.967 7.838-49.84 17.873-49.84h.337v-5.79c-1.016-.637-2.18-.999-3.378-1.05-10.237.068-18.818 25.97-18.818 56.68zM105.742 3.03v5.146c3.581 2.506 6.149 11.14 6.149 21.806 0 10.665-2.568 19.333-6.149 21.839v8.059c.321.132.666.2 1.013.203 4.73 0 9.832-12.088 9.832-30.101 0-17.235-4.662-29.018-9.257-30-.961.724-1.544 1.844-1.588 3.047z"/>
            <path fill="#F2A35E" d="M145.237 85.105c-.333 10.596 1.447 21.151 5.236 31.049h.811c2.107.003 3.845-1.65 3.953-3.759-3.378-5.485-5.541-15.541-5.541-27.29 0-11.75 2.23-21.907 5.609-27.359v-10.53c-5.237 3.792-10.068 18.047-10.068 37.889z"/>
            <path fill="#F2A35E" d="M139.088 85.105c-.093 10.479 1.225 20.923 3.919 31.049h5.372c-3.62-9.939-5.339-20.472-5.068-31.05 0-20.315 5.068-36.601 11.926-40.089v-7.652h-.338c-8.514-.068-15.811 21.84-15.811 47.742z"/>
            <path fill="#F2A35E" d="M155.305 109.043V61.166c-2.89 7.638-4.245 15.774-3.987 23.939-.261 8.165 1.094 16.301 3.987 23.938zM109.863 93.231c.08-.264.335-.434.608-.406.156-.001.305.065.409.182.103.117.151.272.132.427-.225 7.589.125 15.184 1.047 22.72h5.068c-.905-7.616-1.199-15.293-.878-22.957.008-.309.143-.6.373-.806.231-.205.536-.305.843-.277.302.008.587.14.791.363.204.223.308.52.29.822-.278 7.631.027 15.271.912 22.855h5.44c-1.077-8.18-1.45-16.439-1.115-24.683.036-.642.575-1.137 1.216-1.118.305.018.59.156.793.385.203.228.307.529.288.834-.309 8.213.087 16.437 1.183 24.582h6.757c-2.131-10.21-3.173-20.618-3.109-31.049 0-5.113.271-10.158.676-14.729-3.818 11.41-9.257 18.487-15.44 18.487-3.75 0-7.23-2.64-10.135-7.246v30.474c0 1.075.428 2.105 1.189 2.861.761.757 1.793 1.177 2.865 1.168h.98c-.973-7.588-1.368-15.24-1.183-22.889z"/>
            <path fill="#F2A35E" d="M116.013 86.56c10.135 0 18.784-25.936 18.784-56.68.048-10.376-1.006-20.727-3.142-30.88h-4.629c2.631 10.078 3.903 20.463 3.784 30.88 0 28.002-7.872 49.909-17.872 49.909-2.892-.21-5.535-1.715-7.196-4.097v1.287c2.939 6.026 6.52 9.582 10.271 9.582z"/>
            <path fill="#F2A35E" d="M109.83 68.852c6.183 0 12.838-15.677 12.838-38.972.322-10.534-1.434-21.028-5.169-30.88H109.424c5.102 3.386 8.785 15.61 8.785 30.812 0 17.776-5.034 31.726-11.454 31.726-.337.034-.676.034-1.013 0v5.113c1.006 1.262 2.483 2.057 4.088 2.201z"/>
            <path fill="#F2A35E" d="M112.938 77.69c8.548 0 15.778-21.874 15.778-47.81.109-10.42-1.187-20.807-3.852-30.88h-5.372c3.573 9.891 5.269 20.364 5.001 30.88 0 22.889-6.42 40.8-14.663 40.8-1.497-.05-2.935-.598-4.088-1.557v3.149c2.196 3.42 4.628 5.417 7.196 5.417zM110.506 29.88c0-9.988-2.197-17.336-4.764-20.045v40.09c2.567-2.675 4.764-10.022 4.764-20.045z"/>
            <path fill="#E2DAD5" d="M109.526 147c-.238-6.187-1.517-12.288-3.784-18.047V147h3.784zM115.641 147c-.182-8.618-1.886-17.136-5.034-25.158h-.811c-2.118.014-3.862 1.673-3.987 3.793 3.344 6.634 5.168 13.934 5.338 21.365h4.494zM121.688 147c-.26-8.502-1.508-16.945-3.716-25.158H112.6c3.003 8.059 4.658 16.559 4.899 25.158h4.189zM127.804 147c-.265-8.458-1.271-16.876-3.007-25.158h-4.629c2.156 8.221 3.369 16.662 3.615 25.158h4.021zM137.399 146.39s0 .305-.203.44h18.109v-21.094c.009-1.074-.411-2.108-1.166-2.871-.755-.763-1.783-1.192-2.855-1.192h-1.013c.904 7.616 1.209 15.292.912 22.957-.009.152-.078.295-.192.397-.114.102-.264.154-.416.144-.309-.034-.543-.297-.541-.609.311-7.639.04-15.291-.811-22.889h-5.067c.905 7.628 1.199 15.316.878 22.99-.036.623-.561 1.103-1.182 1.084-.64-.036-1.135-.577-1.115-1.219.277-7.631-.028-15.271-.913-22.855h-5.54c1.096 8.19 1.469 16.461 1.115 24.717zM135.304 147c-.121-.169-.192-.368-.203-.576.31-8.212-.074-16.435-1.149-24.582h-6.757c1.715 8.283 2.699 16.702 2.94 25.158h5.169zM263.755 20.298c-.032.628-.524 1.135-1.149 1.185-.634 0-1.149-.516-1.149-1.151-.16-7.154-.861-14.284-2.094-21.332h-5.102c1.498 7.7 2.312 15.519 2.433 23.363-.017.635-.517 1.15-1.149 1.185-.634 0-1.149-.515-1.149-1.151-.16-7.856-.996-15.685-2.5-23.397h-6.149c2.117 10.155 3.148 20.506 3.075 30.88 0 5.113-.237 10.158-.676 14.729 3.818-11.41 9.291-18.487 15.44-18.487 1.168.044 2.317.32 3.378.812V3.03c0-1.074-.428-2.104-1.189-2.86-.761-.757-1.793-1.178-2.865-1.169h-1.284c1.273 7.031 1.985 14.153 2.129 21.298z"/>
            <path fill="#E2DAD5" d="M244.801 85.105c-.054 10.434 1.011 20.843 3.176 31.049h4.629c-2.632-10.135-3.904-20.577-3.784-31.05 0-27.967 7.838-49.84 17.872-49.84h.338v-5.79c-1.016-.637-2.181-.999-3.378-1.05-10.237.068-18.853 25.97-18.853 56.68zM217.469 3.03v5.146c3.581 2.506 6.149 11.14 6.149 21.806 0 10.665-2.568 19.333-6.149 21.839v8.059c.311.128.643.197.98.203 4.764 0 9.865-12.088 9.865-30.101 0-17.235-4.696-29.018-9.257-30-.961.724-1.544 1.844-1.588 3.047z"/>
            <path fill="#E2DAD5" d="M256.964 85.105c-.333 10.596 1.447 21.151 5.237 31.049h.777c2.112.004 3.861-1.645 3.986-3.759-3.378-5.485-5.54-15.541-5.54-27.29 0-11.75 2.229-21.907 5.608-27.359v-10.53c-5.271 3.792-10.068 18.047-10.068 37.889z"/>
            <path fill="#E2DAD5" d="M250.883 85.105c-.11 10.48 1.208 20.926 3.919 31.049h5.372c-3.62-9.939-5.339-20.472-5.068-31.05 0-20.315 5.068-36.601 11.926-40.089v-7.652h-.338c-8.581-.068-15.811 21.84-15.811 47.742z"/>
            <path fill="#E2DAD5" d="M267.032 109.043V61.166c-2.903 7.635-4.27 15.771-4.02 23.939-.253 8.167 1.113 16.304 4.02 23.938zM221.591 93.231c.067-.273.331-.45.608-.406.152.009.295.078.397.192.101.115.153.265.144.417-.304 7.583-.033 15.178.81 22.72h5.068c-.905-7.616-1.199-15.293-.878-22.957.008-.309.143-.6.374-.806.23-.205.535-.305.842-.277.621.036 1.101.562 1.081 1.185-.278 7.631.027 15.271.912 22.855h5.44c-1.077-8.18-1.45-16.439-1.115-24.683.036-.642.576-1.137 1.216-1.118.305.018.59.156.793.385.203.228.307.529.288.834-.309 8.213.087 16.437 1.183 24.582h6.757c-2.131-10.21-3.173-20.618-3.108-31.049 0-5.113.236-10.158.675-14.729-3.817 11.41-9.291 18.487-15.44 18.487-3.75 0-7.263-2.64-10.135-7.246v30.474c0 2.225 1.8 4.029 4.02 4.029h1.014c-.913-7.593-1.23-15.246-.946-22.889z"/>
            <path fill="#E2DAD5" d="M227.74 86.56c10.135 0 18.784-25.936 18.784-56.68.048-10.376-1.005-20.727-3.142-30.88h-4.628c2.617 10.08 3.879 20.465 3.75 30.88 0 28.002-7.838 49.909-17.839 49.909-2.894-.2-5.542-1.708-7.196-4.097v1.286c2.973 6.027 6.521 9.583 10.271 9.583z"/>
            <path fill="#E2DAD5" d="M221.557 68.852c6.183 0 12.805-15.677 12.805-38.972.313-10.53-1.431-21.02-5.136-30.88h-8.074c5.067 3.386 8.75 15.61 8.75 30.812 0 17.776-5 31.726-11.453 31.726-.326.033-.654.033-.98 0v5.113c1.001 1.268 2.481 2.064 4.088 2.201z"/>
            <path fill="#E2DAD5" d="M224.665 77.69c8.548 0 15.778-21.874 15.778-47.81.092-10.42-1.203-20.804-3.851-30.88h-5.372c3.572 9.89 5.268 20.364 5 30.88 0 22.889-6.453 40.8-14.663 40.8-1.497-.05-2.935-.598-4.088-1.557v3.149c2.162 3.42 4.629 5.417 7.196 5.417zM222.233 29.88c0-9.988-2.196-17.336-4.764-20.045v40.09c2.703-2.675 4.764-10.022 4.764-20.045z"/>
            <path fill="#F2A35E" d="M221.253 147c-.254-6.185-1.533-12.284-3.784-18.047V147h3.784zM227.368 147c-.207-8.619-1.922-17.134-5.068-25.158h-.777c-2.125-.002-3.878 1.666-3.986 3.793 3.343 6.634 5.167 13.934 5.338 21.365h4.493zM233.416 147c-.278-8.501-1.525-16.941-3.717-25.158h-5.371c3.002 8.059 4.658 16.559 4.898 25.158h4.19zM239.531 147c-.258-8.46-1.276-16.88-3.041-25.158h-4.595c2.138 8.225 3.351 16.663 3.615 25.158h4.021zM249.126 146.39c-.045.163-.126.314-.237.44h18.143v-21.094c0-2.244-1.815-4.063-4.054-4.063h-.98c.885 7.618 1.189 15.292.912 22.957-.034.309-.297.543-.608.541-.309-.034-.542-.297-.54-.609.232-7.645-.118-15.297-1.048-22.889h-5.068c.906 7.628 1.2 15.316.879 22.99-.018.306-.156.592-.384.795-.228.204-.528.307-.832.289-.305-.017-.591-.156-.793-.385-.203-.228-.307-.529-.289-.834.278-7.631-.027-15.271-.912-22.855h-5.304c1.078 8.192 1.451 16.461 1.115 24.717zM247.2 147c-.137-.16-.209-.365-.203-.576.309-8.213-.086-16.437-1.182-24.582h-6.757c1.674 8.286 2.601 16.706 2.77 25.158h5.372z"/>
            <path fill="#F26666" d="M164.899 125.533c0-.642.509-1.167 1.149-1.185.635 0 1.149.515 1.149 1.151.141 7.154.841 14.287 2.095 21.331h5.067c-1.479-7.703-2.293-15.519-2.432-23.363.032-.628.523-1.134 1.148-1.185.641 0 1.165.51 1.183 1.152.131 7.914.967 15.801 2.5 23.566h6.25c-2.1-10.157-3.131-20.507-3.074-30.88 0-5.113.27-10.158.676-14.729-3.818 11.411-9.258 18.487-15.44 18.487-1.169-.044-2.317-.32-3.379-.812v23.905c-.002 2.16 1.698 3.938 3.852 4.029h1.284c-1.238-7.091-1.916-14.269-2.028-21.467z"/>
            <path fill="#F26666" d="M183.819 60.726c.055-10.434-1.01-20.843-3.175-31.05h-4.629c2.661 10.131 3.945 20.575 3.818 31.05 0 27.968-7.872 49.875-17.873 49.875h-.337v5.925c1.013.645 2.179 1.007 3.378 1.05 10.237-.169 18.818-26.14 18.818-56.85zM211.151 142.801v-5.045c-3.378-2.505-6.148-11.139-6.148-21.805s2.601-19.334 6.148-21.84v-8.058c-.309-.135-.642-.204-.979-.203-4.764 0-9.832 12.088-9.832 30.101 0 17.234 4.663 29.017 9.224 29.999.988-.746 1.574-1.909 1.587-3.149z"/>
            <path fill="#F26666" d="M171.691 60.726c.333-10.596-1.448-21.152-5.237-31.05h-.811c-2.106.014-3.845 1.653-3.987 3.76 3.379 5.484 5.575 15.54 5.575 27.29s-2.23 21.941-5.608 27.359v10.53c5.236-3.792 10.068-18.047 10.068-37.889z"/>
            <path fill="#F26666" d="M177.738 60.726c.103-10.478-1.204-20.921-3.885-31.05h-5.406c3.62 9.94 5.339 20.473 5.068 31.05 0 20.316-5.034 36.602-11.892 40.09v7.652h.337c8.548.068 15.778-21.84 15.778-47.742z"/>
            <path fill="#F26666" d="M161.623 36.787v47.878c2.873-7.643 4.227-15.775 3.986-23.939.245-8.164-1.11-16.297-3.986-23.939zM207.063 52.6c-.065.274-.31.467-.591.467-.281 0-.525-.193-.591-.467.316-7.642.011-15.297-.912-22.89h-5.068c.888 7.618 1.193 15.293.912 22.957-.097.57-.589.986-1.165.986-.577 0-1.069-.416-1.166-.986.317-7.63.012-15.274-.912-22.855h-5.44c1.055 8.137 1.394 16.352 1.014 24.548 0 .412-.219.792-.574.997-.356.206-.794.206-1.149 0-.355-.205-.574-.585-.574-.997.338-8.243-.024-16.5-1.082-24.683h-6.757c2.119 10.211 3.149 20.62 3.075 31.049 0 5.113-.237 10.158-.642 14.729 3.818-11.41 9.257-18.487 15.406-18.487 3.75 0 7.264 2.64 10.136 7.246V33.74c0-2.225-1.8-4.03-4.021-4.03h-.98c.939 7.592 1.301 15.244 1.081 22.89z"/>
            <path fill="#F26666" d="M200.881 59.27c-10.136 0-18.751 25.936-18.751 56.681-.077 10.433.977 20.844 3.142 31.049h4.494c-2.618-10.08-3.879-20.465-3.751-30.88 0-27.968 7.839-49.909 17.873-49.909 2.884.206 5.519 1.713 7.162 4.097v-1.286c-2.872-6.197-6.385-9.752-10.169-9.752z"/>
            <path fill="#F26666" d="M207.064 76.978c-6.183 0-12.805 15.678-12.805 38.973-.344 10.59 1.413 21.144 5.169 31.049h8.041c-5.068-3.386-8.75-15.609-8.75-30.812 0-17.776 5.034-31.727 11.453-31.727.326-.035.654-.035.98 0v-5.18c-.977-1.312-2.462-2.149-4.088-2.303z"/>
            <path fill="#F26666" d="M203.989 68.141c-8.581 0-15.811 21.873-15.811 47.81-.115 10.478 1.192 20.923 3.885 31.049h5.372c-3.602-9.884-5.31-20.361-5.034-30.88 0-22.889 6.453-40.631 14.662-40.631 1.505.044 2.949.606 4.088 1.591v-3.149c-2.162-3.792-4.493-5.79-7.162-5.79zM206.388 115.951c0 10.157 2.23 17.336 4.764 20.044v-40.09c-2.534 2.676-4.764 10.023-4.764 20.046z"/>
            <path fill="#EFE6DF" d="M207.367-1c.254 6.184 1.533 12.283 3.784 18.047V-1h-3.784zM201.252-1c.207 8.619 1.923 17.134 5.068 25.158h.811c2.112-.031 3.846-1.68 3.987-3.793-3.36-6.628-5.185-13.932-5.338-21.365h-4.528zM195.205-1c.277 8.5 1.524 16.941 3.716 25.158h5.406C201.308 16.104 199.652 7.6 199.428-1h-4.223zM189.09-1c.258 8.46 1.275 16.88 3.041 25.158h4.628C194.603 15.937 193.39 7.496 193.144-1h-4.054zM179.63-.56c0-.17 0-.305.202-.44h-18.21v21.095c-.009 1.074.411 2.108 1.166 2.87.755.764 1.783 1.193 2.855 1.193h.979c-.884-7.618-1.189-15.293-.912-22.957.066-.274.31-.467.592-.467.281 0 .525.193.591.467-.317 7.642-.012 15.297.912 22.889h5.068c-.908-7.628-1.213-15.315-.912-22.99.017-.306.155-.592.383-.796.228-.203.528-.307.833-.288.64.036 1.134.577 1.115 1.219-.317 7.63-.012 15.274.912 22.855h5.439c-1.058-8.171-1.398-16.42-1.013-24.65zM181.623-1c.121.168.192.368.203.576-.299 8.212.097 16.436 1.182 24.582h6.757c-1.733-8.28-2.716-16.7-2.939-25.158h-5.203z"/>
            <path fill="#F2A35E" d="M322.995 20.298c-.032.628-.523 1.135-1.148 1.185-.635 0-1.149-.516-1.149-1.152-.141-7.154-.842-14.286-2.095-21.331h-5.169c1.498 7.7 2.312 15.519 2.433 23.363 0 .642-.509 1.167-1.149 1.185-.635 0-1.149-.515-1.149-1.151-.16-7.857-.996-15.685-2.5-23.397h-6.047c2.088 10.158 3.107 20.508 3.04 30.88 0 5.113-.236 10.158-.642 14.729 3.818-11.41 9.257-18.488 15.406-18.488 1.169.045 2.317.321 3.379.813V3.03c0-2.225-1.8-4.029-4.021-4.029h-1.283c1.251 7.034 1.951 14.155 2.094 21.298z"/>
            <path fill="#F2A35E" d="M304.075 85.105c-.054 10.434 1.011 20.843 3.176 31.049h4.595c-2.632-10.135-3.904-20.577-3.784-31.05 0-27.967 7.838-49.84 17.872-49.84h.338v-5.79c-1.016-.637-2.18-.999-3.378-1.05-10.237.068-18.819 25.97-18.819 56.68zM276.71 3.03v5.146c3.581 2.506 6.148 11.14 6.148 21.806 0 10.665-2.567 19.333-6.148 21.839v8.059c.321.132.665.2 1.013.203 4.73 0 9.832-12.088 9.832-30.101 0-17.235-4.663-29.018-9.258-30-.96.724-1.544 1.844-1.587 3.047z"/>
            <path fill="#F2A35E" d="M316.204 85.105c-.333 10.596 1.448 21.151 5.237 31.049h.811c2.106.003 3.845-1.65 3.953-3.759-3.379-5.485-5.541-15.541-5.541-27.29 0-11.75 2.23-21.907 5.608-27.359v-10.53c-5.236 3.792-10.068 18.047-10.068 37.889z"/>
            <path fill="#F2A35E" d="M310.056 85.105c-.094 10.479 1.225 20.923 3.919 31.049h5.372c-3.62-9.939-5.34-20.472-5.068-31.05 0-20.315 5.068-36.601 11.926-40.089v-7.652h-.338c-8.514-.068-15.811 21.84-15.811 47.742z"/>
            <path fill="#F2A35E" d="M326.272 109.043V61.166c-2.889 7.638-4.244 15.774-3.986 23.939-.262 8.165 1.093 16.301 3.986 23.938zM280.831 93.231c.079-.264.334-.434.608-.406.156-.001.305.065.408.182.104.117.152.272.133.427-.226 7.589.124 15.184 1.047 22.72h5.068c-.905-7.616-1.199-15.293-.879-22.957.008-.309.144-.6.374-.806.231-.205.536-.305.843-.277.302.008.587.14.791.363.204.223.308.52.29.822-.278 7.631.027 15.271.912 22.855h5.439c-1.077-8.18-1.45-16.439-1.115-24.683.037-.642.576-1.137 1.217-1.118.305.018.59.156.793.385.203.228.306.529.288.834-.309 8.213.086 16.437 1.182 24.582h6.757c-2.13-10.21-3.172-20.618-3.108-31.049 0-5.113.27-10.158.676-14.729-3.818 11.41-9.257 18.487-15.44 18.487-3.75 0-7.23-2.64-10.136-7.246v30.474c0 1.075.429 2.105 1.19 2.861.761.757 1.793 1.177 2.865 1.168h.979c-.972-7.588-1.367-15.24-1.182-22.889z"/>
            <path fill="#F2A35E" d="M286.98 86.56c10.136 0 18.785-25.936 18.785-56.68.048-10.376-1.006-20.727-3.142-30.88h-4.629c2.631 10.078 3.903 20.463 3.784 30.88 0 28.002-7.872 49.909-17.872 49.909-2.892-.21-5.536-1.715-7.196-4.097v1.287c2.939 6.026 6.52 9.582 10.27 9.582z"/>
            <path fill="#F2A35E" d="M280.798 68.852c6.182 0 12.838-15.677 12.838-38.972.322-10.534-1.435-21.028-5.169-30.88H280.392c5.102 3.386 8.784 15.61 8.784 30.812 0 17.776-5.034 31.726-11.453 31.726-.337.034-.676.034-1.013 0v5.113c1.006 1.262 2.483 2.057 4.088 2.201z"/>
            <path fill="#F2A35E" d="M283.906 77.69c8.547 0 15.777-21.874 15.777-47.81.11-10.42-1.186-20.807-3.851-30.88h-5.372c3.573 9.891 5.269 20.364 5 30.88 0 22.889-6.419 40.8-14.662 40.8-1.498-.05-2.936-.598-4.088-1.557v3.149c2.196 3.42 4.628 5.417 7.196 5.417zM281.473 29.88c0-9.988-2.196-17.336-4.763-20.045v40.09c2.567-2.675 4.763-10.022 4.763-20.045z"/>
            <path fill="#E2DAD5" d="M280.494 147c-.238-6.187-1.517-12.288-3.784-18.047V147h3.784zM286.609 147c-.182-8.618-1.886-17.136-5.034-25.158h-.811c-2.118.014-3.862 1.673-3.987 3.793 3.344 6.634 5.167 13.934 5.338 21.365h4.494zM292.656 147c-.261-8.502-1.508-16.945-3.716-25.158h-5.372c3.003 8.059 4.658 16.559 4.899 25.158h4.189zM298.771 147c-.264-8.458-1.27-16.876-3.007-25.158h-4.628c2.156 8.221 3.369 16.662 3.615 25.158h4.02zM308.366 146.39s0 .305-.202.44h18.108v-21.094c.01-1.074-.41-2.108-1.165-2.871-.755-.763-1.783-1.192-2.855-1.192h-1.013c.904 7.616 1.209 15.292.912 22.957-.009.152-.078.295-.192.397-.114.102-.264.154-.416.144-.31-.034-.543-.297-.541-.609.311-7.639.04-15.291-.811-22.889h-5.068c.906 7.628 1.2 15.316.879 22.99-.036.623-.561 1.103-1.183 1.084-.639-.036-1.134-.577-1.115-1.219.278-7.631-.027-15.271-.912-22.855h-5.541c1.097 8.19 1.47 16.461 1.115 24.717zM306.272 147c-.122-.169-.192-.368-.203-.576.31-8.212-.074-16.435-1.149-24.582h-6.757c1.715 8.283 2.699 16.702 2.939 25.158h5.17zM434.723 20.298c-.032.628-.524 1.135-1.149 1.185-.635 0-1.149-.516-1.149-1.151-.161-7.154-.861-14.284-2.095-21.332h-5.101c1.498 7.7 2.312 15.519 2.432 23.363-.016.635-.516 1.15-1.148 1.185-.635 0-1.149-.515-1.149-1.151-.16-7.856-.996-15.685-2.5-23.397h-6.149c2.117 10.155 3.148 20.506 3.074 30.88 0 5.113-.236 10.158-.675 14.729 3.817-11.41 9.291-18.487 15.44-18.487 1.168.044 2.317.32 3.378.812V3.03c0-1.074-.428-2.104-1.189-2.86-.762-.757-1.793-1.178-2.865-1.169h-1.284c1.273 7.031 1.984 14.153 2.129 21.298z"/>
            <path fill="#E2DAD5" d="M415.769 85.105c-.054 10.434 1.01 20.843 3.176 31.049h4.629c-2.632-10.135-3.905-20.577-3.784-31.05 0-27.967 7.838-49.84 17.872-49.84H438v-5.79c-1.017-.637-2.181-.999-3.379-1.05-10.237.068-18.852 25.97-18.852 56.68zM388.437 3.03v5.146c3.581 2.506 6.149 11.14 6.149 21.806 0 10.665-2.568 19.333-6.149 21.839v8.059c.311.128.643.197.98.203 4.763 0 9.865-12.088 9.865-30.101 0-17.235-4.696-29.018-9.257-30-.961.724-1.544 1.844-1.588 3.047z"/>
            <path fill="#E2DAD5" d="M427.932 85.105c-.333 10.596 1.447 21.151 5.236 31.049h.777c2.113.004 3.862-1.645 3.987-3.759-3.378-5.485-5.541-15.541-5.541-27.29 0-11.75 2.23-21.907 5.609-27.359v-10.53c-5.271 3.792-10.068 18.047-10.068 37.889z"/>
            <path fill="#E2DAD5" d="M421.851 85.105c-.11 10.48 1.208 20.926 3.919 31.049h5.372c-3.62-9.939-5.34-20.472-5.068-31.05 0-20.315 5.068-36.601 11.926-40.089v-7.652h-.338c-8.581-.068-15.811 21.84-15.811 47.742z"/>
            <path fill="#E2DAD5" d="M438 109.043V61.166c-2.904 7.635-4.27 15.771-4.02 23.939-.254 8.167 1.113 16.304 4.02 23.938zM392.559 93.231c.067-.273.331-.45.608-.406.152.009.295.078.396.192.102.115.154.265.144.417-.303 7.583-.032 15.178.811 22.72h5.068c-.905-7.616-1.199-15.293-.878-22.957.008-.309.143-.6.373-.806.231-.205.536-.305.843-.277.621.036 1.1.562 1.081 1.185-.278 7.631.027 15.271.912 22.855h5.44c-1.077-8.18-1.45-16.439-1.115-24.683.036-.642.575-1.137 1.216-1.118.305.018.59.156.793.385.203.228.307.529.288.834-.309 8.213.087 16.437 1.183 24.582h6.757c-2.131-10.21-3.173-20.618-3.109-31.049 0-5.113.237-10.158.676-14.729-3.818 11.41-9.291 18.487-15.44 18.487-3.75 0-7.264-2.64-10.135-7.246v30.474c0 2.225 1.8 4.029 4.02 4.029h1.014c-.913-7.593-1.23-15.246-.946-22.889z"/>
            <path fill="#E2DAD5" d="M398.708 86.56c10.135 0 18.784-25.936 18.784-56.68.048-10.376-1.006-20.727-3.142-30.88h-4.629c2.618 10.08 3.879 20.465 3.751 30.88 0 28.002-7.839 49.909-17.839 49.909-2.895-.2-5.542-1.708-7.196-4.097v1.286c2.973 6.027 6.52 9.583 10.271 9.583z"/>
            <path fill="#E2DAD5" d="M392.525 68.852c6.183 0 12.804-15.677 12.804-38.972.314-10.53-1.431-21.02-5.135-30.88h-8.075c5.068 3.386 8.751 15.61 8.751 30.812 0 17.776-5 31.726-11.453 31.726-.326.033-.654.033-.98 0v5.113c1.001 1.268 2.481 2.064 4.088 2.201z"/>
            <path fill="#E2DAD5" d="M395.633 77.69c8.548 0 15.778-21.874 15.778-47.81.092-10.42-1.203-20.804-3.852-30.88h-5.372c3.573 9.89 5.269 20.364 5.001 30.88 0 22.889-6.453 40.8-14.663 40.8-1.497-.05-2.935-.598-4.088-1.557v3.149c2.162 3.42 4.628 5.417 7.196 5.417zM393.201 29.88c0-9.988-2.197-17.336-4.764-20.045v40.09c2.703-2.675 4.764-10.022 4.764-20.045z"/>
            <path fill="#F2A35E" d="M392.221 147c-.254-6.185-1.533-12.284-3.784-18.047V147h3.784zM398.336 147c-.207-8.619-1.922-17.134-5.068-25.158h-.777c-2.125-.002-3.878 1.666-3.986 3.793 3.343 6.634 5.167 13.934 5.338 21.365h4.493zM404.384 147c-.278-8.501-1.525-16.941-3.717-25.158h-5.372c3.003 8.059 4.658 16.559 4.899 25.158h4.19zM410.499 147c-.258-8.46-1.276-16.88-3.041-25.158h-4.595c2.138 8.225 3.351 16.663 3.615 25.158h4.021zM420.094 146.39c-.045.163-.126.314-.237.44H438v-21.094c0-2.244-1.815-4.063-4.054-4.063h-.98c.884 7.618 1.189 15.292.912 22.957-.035.309-.297.543-.608.541-.309-.034-.543-.297-.541-.609.233-7.645-.117-15.297-1.047-22.889h-5.068c.906 7.628 1.2 15.316.879 22.99-.018.306-.156.592-.384.795-.228.204-.528.307-.833.289-.304-.017-.59-.156-.793-.385-.203-.228-.306-.529-.288-.834.278-7.631-.027-15.271-.912-22.855h-5.304c1.077 8.192 1.45 16.461 1.115 24.717zM418.168 147c-.137-.16-.209-.365-.203-.576.309-8.213-.087-16.437-1.182-24.582h-6.757c1.674 8.286 2.601 16.706 2.77 25.158h5.372z"/>
            <path fill="#F26666" d="M335.867 125.533c0-.642.509-1.167 1.149-1.185.634 0 1.149.515 1.149 1.151.141 7.154.841 14.287 2.094 21.331h5.068c-1.479-7.703-2.293-15.519-2.432-23.363.031-.628.523-1.134 1.148-1.185.64 0 1.164.51 1.183 1.152.13 7.914.967 15.801 2.5 23.566h6.25c-2.1-10.157-3.131-20.507-3.074-30.88 0-5.113.27-10.158.675-14.729-3.817 11.411-9.257 18.487-15.439 18.487-1.169-.044-2.317-.32-3.379-.812v23.905c-.002 2.16 1.697 3.938 3.852 4.029h1.283c-1.237-7.091-1.915-14.269-2.027-21.467z"/>
            <path fill="#F26666" d="M354.787 60.726c.055-10.434-1.01-20.843-3.176-31.05h-4.628c2.661 10.131 3.945 20.575 3.818 31.05 0 27.968-7.872 49.875-17.873 49.875h-.338v5.925c1.014.645 2.18 1.007 3.379 1.05 10.237-.169 18.818-26.14 18.818-56.85zM382.119 142.801v-5.045c-3.378-2.505-6.149-11.139-6.149-21.805s2.602-19.334 6.149-21.84v-8.058c-.309-.135-.642-.204-.98-.203-4.763 0-9.831 12.088-9.831 30.101 0 17.234 4.662 29.017 9.223 29.999.988-.746 1.575-1.909 1.588-3.149z"/>
            <path fill="#F26666" d="M342.658 60.726c.333-10.596-1.447-21.152-5.236-31.05h-.811c-2.106.014-3.845 1.653-3.987 3.76 3.379 5.484 5.575 15.54 5.575 27.29s-2.23 21.941-5.609 27.359v10.53c5.237-3.792 10.068-18.047 10.068-37.889z"/>
            <path fill="#F26666" d="M348.706 60.726c.103-10.478-1.204-20.921-3.885-31.05h-5.406c3.62 9.94 5.339 20.473 5.068 31.05 0 20.316-5.034 36.602-11.893 40.09v7.652h.338c8.548.068 15.778-21.84 15.778-47.742z"/>
            <path fill="#F26666" d="M332.59 36.787v47.878c2.874-7.643 4.228-15.775 3.987-23.939.244-8.164-1.11-16.297-3.987-23.939zM378.031 52.6c-.066.274-.31.467-.591.467-.281 0-.525-.193-.591-.467.316-7.642.011-15.297-.912-22.89h-5.068c.888 7.618 1.193 15.293.912 22.957-.097.57-.589.986-1.166.986-.576 0-1.068-.416-1.165-.986.317-7.63.012-15.274-.912-22.855h-5.44c1.054 8.137 1.394 16.352 1.014 24.548 0 .412-.219.792-.575.997-.355.206-.793.206-1.148 0-.356-.205-.575-.585-.575-.997.338-8.243-.023-16.5-1.081-24.683h-6.757c2.119 10.211 3.149 20.62 3.075 31.049 0 5.113-.237 10.158-.642 14.729 3.817-11.41 9.257-18.487 15.406-18.487 3.75 0 7.264 2.64 10.135 7.246V33.74c0-2.225-1.8-4.03-4.02-4.03h-.98c.939 7.592 1.3 15.244 1.081 22.89z"/>
            <path fill="#F26666" d="M371.849 59.27c-10.136 0-18.751 25.936-18.751 56.681-.077 10.433.977 20.844 3.142 31.049h4.493c-2.617-10.08-3.879-20.465-3.75-30.88 0-27.968 7.838-49.909 17.873-49.909 2.884.206 5.519 1.713 7.162 4.097v-1.286c-2.872-6.197-6.385-9.752-10.169-9.752z"/>
            <path fill="#F26666" d="M378.031 76.978c-6.182 0-12.804 15.678-12.804 38.973-.345 10.59 1.412 21.144 5.169 31.049h8.041c-5.068-3.386-8.75-15.609-8.75-30.812 0-17.776 5.034-31.727 11.453-31.727.325-.035.654-.035.979 0v-5.18c-.976-1.312-2.461-2.149-4.088-2.303z"/>
            <path fill="#F26666" d="M374.957 68.141c-8.582 0-15.812 21.873-15.812 47.81-.114 10.478 1.193 20.923 3.886 31.049h5.371c-3.602-9.884-5.31-20.361-5.033-30.88 0-22.889 6.452-40.631 14.662-40.631 1.505.044 2.948.606 4.088 1.591v-3.149c-2.162-3.792-4.493-5.79-7.162-5.79zM377.356 115.951c0 10.157 2.229 17.336 4.763 20.044v-40.09c-2.534 2.676-4.763 10.023-4.763 20.046z"/>
            <path fill="#EFE6DF" d="M378.335-1c.254 6.184 1.533 12.283 3.784 18.047V-1h-3.784zM372.22-1c.207 8.619 1.922 17.134 5.068 25.158h.811c2.111-.031 3.846-1.68 3.986-3.793-3.359-6.628-5.184-13.932-5.338-21.365h-4.527zM366.173-1c.277 8.5 1.524 16.941 3.716 25.158h5.406C372.275 16.104 370.62 7.6 370.396-1h-4.223zM360.058-1c.257 8.46 1.275 16.88 3.04 25.158h4.629c-2.156-8.221-3.369-16.662-3.615-25.158h-4.054zM350.598-.56c0-.17 0-.305.202-.44h-18.21v21.095c-.009 1.074.411 2.108 1.166 2.87.755.764 1.782 1.193 2.854 1.193h.98c-.884-7.618-1.189-15.293-.912-22.957.066-.274.31-.467.591-.467.281 0 .526.193.592.467-.317 7.642-.012 15.297.912 22.889h5.067c-.907-7.628-1.212-15.315-.912-22.99.018-.306.156-.592.384-.796.228-.203.528-.307.833-.288.639.036 1.134.577 1.114 1.219-.316 7.63-.011 15.274.913 22.855h5.439c-1.059-8.171-1.398-16.42-1.013-24.65zM352.591-1c.121.168.191.368.203.576-.299 8.212.096 16.436 1.182 24.582h6.757C359 15.878 358.016 7.458 357.794-1h-5.203z"/>
        </g>
    </g>
    <g opacity=".8">
        <mask id="wta8so7s3b" width="445" height="150" x="445" y="0" maskUnits="userSpaceOnUse">
            <path fill="#fff" d="M445 0H890V150H445z"/>
        </mask>
        <g mask="url(#wta8so7s3b)">
            <path fill="#E2DAD5" d="M541.013 20.298c-.032.628-.523 1.135-1.149 1.185-.634 0-1.148-.516-1.148-1.151-.161-7.154-.861-14.284-2.095-21.332h-5.102c1.498 7.7 2.312 15.519 2.433 23.363-.017.635-.517 1.15-1.149 1.185-.634 0-1.149-.515-1.149-1.151-.16-7.856-.996-15.685-2.5-23.397h-6.149c2.117 10.155 3.148 20.506 3.075 30.88 0 5.113-.237 10.158-.676 14.729 3.818-11.41 9.291-18.487 15.44-18.487 1.169.044 2.317.32 3.378.812V3.03c.001-1.074-.428-2.104-1.189-2.86-.761-.757-1.793-1.178-2.865-1.169h-1.284c1.273 7.031 1.985 14.153 2.129 21.298z"/>
            <path fill="#E2DAD5" d="M522.06 85.105c-.055 10.434 1.01 20.843 3.175 31.049h4.629c-2.632-10.135-3.904-20.577-3.784-31.05 0-27.967 7.838-49.84 17.872-49.84h.338v-5.79c-1.016-.637-2.18-.999-3.378-1.05-10.237.068-18.852 25.97-18.852 56.68zM494.727 3.03v5.146c3.582 2.506 6.149 11.14 6.149 21.806 0 10.665-2.567 19.333-6.149 21.839v8.059c.311.128.644.197.98.203 4.764 0 9.865-12.088 9.865-30.101 0-17.235-4.696-29.018-9.257-30-.96.724-1.544 1.844-1.588 3.047z"/>
            <path fill="#E2DAD5" d="M534.222 85.105c-.333 10.596 1.447 21.151 5.237 31.049h.777c2.113.004 3.861-1.645 3.987-3.759-3.379-5.485-5.541-15.541-5.541-27.29 0-11.75 2.23-21.907 5.608-27.359v-10.53c-5.27 3.792-10.068 18.047-10.068 37.889z"/>
            <path fill="#E2DAD5" d="M528.141 85.105c-.11 10.48 1.209 20.926 3.919 31.049h5.372c-3.62-9.939-5.339-20.472-5.068-31.05 0-20.315 5.068-36.601 11.926-40.089v-7.652h-.338c-8.581-.068-15.811 21.84-15.811 47.742z"/>
            <path fill="#E2DAD5" d="M544.29 109.043V61.166c-2.903 7.635-4.27 15.771-4.02 23.939-.253 8.167 1.113 16.304 4.02 23.938zM498.849 93.231c.067-.273.331-.45.608-.406.153.009.295.078.397.192.101.115.153.265.144.417-.304 7.583-.033 15.178.811 22.72h5.067c-.905-7.616-1.199-15.293-.878-22.957.008-.309.143-.6.374-.806.23-.205.535-.305.842-.277.621.036 1.101.562 1.081 1.185-.277 7.631.027 15.271.913 22.855h5.439c-1.077-8.18-1.45-16.439-1.115-24.683.036-.642.576-1.137 1.216-1.118.305.018.591.156.793.385.203.228.307.529.288.834-.309 8.213.087 16.437 1.183 24.582h6.757c-2.131-10.21-3.173-20.618-3.108-31.049 0-5.113.236-10.158.675-14.729-3.817 11.41-9.29 18.487-15.439 18.487-3.75 0-7.264-2.64-10.136-7.246v30.474c0 2.225 1.8 4.029 4.021 4.029h1.013c-.913-7.593-1.229-15.246-.946-22.889z"/>
            <path fill="#E2DAD5" d="M504.998 86.56c10.136 0 18.785-25.936 18.785-56.68.047-10.376-1.006-20.727-3.143-30.88h-4.628c2.618 10.08 3.879 20.465 3.75 30.88 0 28.002-7.838 49.909-17.838 49.909-2.895-.2-5.543-1.708-7.197-4.097v1.286c2.973 6.027 6.521 9.583 10.271 9.583z"/>
            <path fill="#E2DAD5" d="M498.815 68.852c6.183 0 12.805-15.677 12.805-38.972.313-10.53-1.431-21.02-5.135-30.88h-8.075c5.068 3.386 8.75 15.61 8.75 30.812 0 17.776-5 31.726-11.453 31.726-.326.033-.654.033-.98 0v5.113c1.002 1.268 2.481 2.064 4.088 2.201z"/>
            <path fill="#E2DAD5" d="M501.924 77.69c8.547 0 15.777-21.874 15.777-47.81.093-10.42-1.203-20.804-3.851-30.88h-5.372c3.573 9.89 5.269 20.364 5 30.88 0 22.889-6.453 40.8-14.663 40.8-1.497-.05-2.935-.598-4.088-1.557v3.149c2.163 3.42 4.629 5.417 7.197 5.417zM499.491 29.88c0-9.988-2.196-17.336-4.764-20.045v40.09c2.703-2.675 4.764-10.022 4.764-20.045z"/>
            <path fill="#F2A35E" d="M498.511 147c-.254-6.185-1.532-12.284-3.784-18.047V147h3.784zM504.626 147c-.207-8.619-1.922-17.134-5.067-25.158h-.777c-2.125-.002-3.879 1.666-3.987 3.793 3.344 6.634 5.167 13.934 5.338 21.365h4.493zM510.674 147c-.278-8.501-1.525-16.941-3.716-25.158h-5.372c3.003 8.059 4.658 16.559 4.899 25.158h4.189zM516.789 147c-.258-8.46-1.275-16.88-3.041-25.158h-4.594c2.138 8.225 3.35 16.663 3.615 25.158h4.02zM526.384 146.39c-.045.163-.125.314-.236.44h18.142v-21.094c0-2.244-1.815-4.063-4.054-4.063h-.98c.885 7.618 1.19 15.292.912 22.957-.034.309-.297.543-.608.541-.309-.034-.542-.297-.54-.609.232-7.645-.118-15.297-1.048-22.889h-5.067c.905 7.628 1.199 15.316.878 22.99-.017.306-.155.592-.384.795-.228.204-.527.307-.832.289-.305-.017-.59-.156-.793-.385-.203-.228-.307-.529-.288-.834.277-7.631-.028-15.271-.913-22.855h-5.304c1.078 8.192 1.451 16.461 1.115 24.717zM524.458 147c-.136-.16-.209-.365-.202-.576.308-8.213-.087-16.437-1.183-24.582h-6.757c1.674 8.286 2.601 16.706 2.77 25.158h5.372z"/>
            <path fill="#F26666" d="M442.158 125.533c-.001-.642.509-1.167 1.148-1.185.635 0 1.149.515 1.149 1.151.141 7.154.842 14.287 2.095 21.331h5.068c-1.48-7.703-2.293-15.519-2.433-23.363.032-.628.523-1.134 1.149-1.185.64 0 1.164.51 1.182 1.152.131 7.914.967 15.801 2.5 23.566h6.251c-2.101-10.157-3.131-20.507-3.075-30.88 0-5.113.27-10.158.676-14.729-3.818 11.411-9.257 18.487-15.44 18.487-1.169-.044-2.317-.32-3.379-.812v23.905c-.001 2.16 1.698 3.938 3.852 4.029h1.284c-1.238-7.091-1.915-14.269-2.027-21.467z"/>
            <path fill="#F26666" d="M461.078 60.726c.054-10.434-1.011-20.843-3.176-31.05h-4.629c2.661 10.131 3.945 20.575 3.818 31.05 0 27.968-7.872 49.875-17.872 49.875h-.338v5.925c1.013.645 2.179 1.007 3.378 1.05 10.237-.169 18.819-26.14 18.819-56.85zM488.41 142.801v-5.045c-3.379-2.505-6.149-11.139-6.149-21.805s2.601-19.334 6.149-21.84v-8.058c-.309-.135-.643-.204-.98-.203-4.764 0-9.832 12.088-9.832 30.101 0 17.234 4.663 29.017 9.224 29.999.988-.746 1.574-1.909 1.588-3.149z"/>
            <path fill="#F26666" d="M448.949 60.726c.333-10.596-1.448-21.152-5.237-31.05h-.811c-2.106.014-3.845 1.653-3.986 3.76 3.378 5.484 5.574 15.54 5.574 27.29s-2.23 21.941-5.608 27.359v10.53c5.236-3.792 10.068-18.047 10.068-37.889z"/>
            <path fill="#F26666" d="M454.996 60.726c.103-10.478-1.204-20.921-3.885-31.05h-5.406c3.62 9.94 5.339 20.473 5.068 31.05 0 20.316-5.034 36.602-11.892 40.09v7.652h.338c8.547.068 15.777-21.84 15.777-47.742zM484.322 52.6c-.066.274-.311.467-.592.467-.281 0-.525-.193-.591-.467.317-7.642.012-15.297-.912-22.89h-5.068c.888 7.618 1.193 15.293.912 22.957-.097.57-.589.986-1.165.986-.576 0-1.069-.416-1.166-.986.317-7.63.012-15.274-.912-22.855h-5.439c1.054 8.137 1.393 16.352 1.013 24.548 0 .412-.219.792-.574.997-.356.206-.793.206-1.149 0-.355-.205-.574-.585-.574-.997.338-8.243-.024-16.5-1.081-24.683h-6.757c2.118 10.211 3.149 20.62 3.074 31.049 0 5.113-.236 10.158-.642 14.729 3.818-11.41 9.257-18.487 15.406-18.487 3.75 0 7.264 2.64 10.136 7.246V33.74c0-2.225-1.8-4.03-4.021-4.03h-.98c.939 7.592 1.301 15.244 1.082 22.89z"/>
            <path fill="#F26666" d="M478.139 59.27c-10.135 0-18.751 25.936-18.751 56.681-.076 10.433.977 20.844 3.142 31.049h4.494c-2.618-10.08-3.879-20.465-3.75-30.88 0-27.968 7.838-49.909 17.872-49.909 2.884.206 5.519 1.713 7.162 4.097v-1.286c-2.871-6.197-6.385-9.752-10.169-9.752z"/>
            <path fill="#F26666" d="M484.322 76.978c-6.183 0-12.805 15.678-12.805 38.973-.344 10.59 1.413 21.144 5.169 31.049h8.041c-5.067-3.386-8.75-15.609-8.75-30.812 0-17.776 5.034-31.727 11.453-31.727.326-.035.654-.035.98 0v-5.18c-.977-1.312-2.462-2.149-4.088-2.303z"/>
            <path fill="#F26666" d="M481.247 68.141c-8.581 0-15.811 21.873-15.811 47.81-.115 10.478 1.192 20.923 3.885 31.049h5.372c-3.602-9.884-5.31-20.361-5.034-30.88 0-22.889 6.453-40.631 14.663-40.631 1.504.044 2.948.606 4.088 1.591v-3.149c-2.163-3.792-4.494-5.79-7.163-5.79zM483.646 115.951c0 10.157 2.23 17.336 4.764 20.044v-40.09c-2.534 2.676-4.764 10.023-4.764 20.046z"/>
            <path fill="#EFE6DF" d="M484.626-1c.253 6.184 1.532 12.283 3.783 18.047V-1h-3.783zM478.511-1c.207 8.619 1.922 17.134 5.067 25.158h.811c2.112-.031 3.846-1.68 3.987-3.793-3.36-6.628-5.185-13.932-5.338-21.365h-4.527zM472.463-1c.278 8.5 1.525 16.941 3.716 25.158h5.406C478.566 16.104 476.91 7.6 476.686-1h-4.223zM466.348-1c.258 8.46 1.276 16.88 3.041 25.158h4.628c-2.156-8.221-3.368-16.662-3.615-25.158h-4.054zM456.888-.56c0-.17 0-.305.203-.44H438.88v21.095c-.009 1.074.411 2.108 1.166 2.87.755.764 1.783 1.193 2.855 1.193h.98c-.885-7.618-1.19-15.293-.913-22.957.066-.274.311-.467.592-.467.281 0 .525.193.591.467-.316 7.642-.011 15.297.912 22.889h5.068c-.908-7.628-1.213-15.315-.912-22.99.017-.306.155-.592.383-.796.229-.203.528-.307.833-.288.64.036 1.134.577 1.115 1.219-.317 7.63-.012 15.274.912 22.855h5.439c-1.058-8.171-1.397-16.42-1.013-24.65zM458.881-1c.122.168.192.368.203.576-.299 8.212.097 16.436 1.182 24.582h6.758c-1.733-8.28-2.717-16.7-2.94-25.158h-5.203z"/>
            <path fill="#F2A35E" d="M597.028 20.298c-.032.628-.524 1.135-1.149 1.185-.635 0-1.149-.516-1.149-1.152-.141-7.154-.841-14.286-2.095-21.331h-5.169c1.498 7.7 2.312 15.519 2.433 23.363 0 .642-.509 1.167-1.149 1.185-.634 0-1.149-.515-1.149-1.151-.159-7.857-.996-15.685-2.5-23.397h-6.047c2.088 10.158 3.107 20.508 3.04 30.88 0 5.113-.236 10.158-.641 14.729 3.817-11.41 9.257-18.488 15.406-18.488 1.168.045 2.317.321 3.378.813V3.03c0-2.225-1.8-4.029-4.02-4.029h-1.284c1.251 7.034 1.952 14.155 2.095 21.298z"/>
            <path fill="#F2A35E" d="M578.108 85.105c-.055 10.434 1.01 20.843 3.176 31.049h4.594c-2.631-10.135-3.904-20.577-3.784-31.05 0-27.967 7.839-49.84 17.873-49.84h.338v-5.79c-1.017-.637-2.181-.999-3.379-1.05-10.237.068-18.818 25.97-18.818 56.68zM550.742 3.03v5.146c3.581 2.506 6.149 11.14 6.149 21.806 0 10.665-2.568 19.333-6.149 21.839v8.059c.321.132.666.2 1.013.203 4.73 0 9.832-12.088 9.832-30.101 0-17.235-4.662-29.018-9.257-30-.961.724-1.544 1.844-1.588 3.047z"/>
            <path fill="#F2A35E" d="M590.237 85.105c-.333 10.596 1.447 21.151 5.236 31.049h.811c2.107.003 3.845-1.65 3.953-3.759-3.378-5.485-5.541-15.541-5.541-27.29 0-11.75 2.23-21.907 5.609-27.359v-10.53c-5.237 3.792-10.068 18.047-10.068 37.889z"/>
            <path fill="#F2A35E" d="M584.088 85.105c-.093 10.479 1.225 20.923 3.919 31.049h5.372c-3.62-9.939-5.339-20.472-5.068-31.05 0-20.315 5.068-36.601 11.926-40.089v-7.652h-.338c-8.514-.068-15.811 21.84-15.811 47.742z"/>
            <path fill="#F2A35E" d="M600.305 109.043V61.166c-2.89 7.638-4.245 15.774-3.987 23.939-.261 8.165 1.093 16.301 3.987 23.938zM554.863 93.231c.08-.264.335-.434.608-.406.156-.001.305.065.409.182.103.117.151.272.132.427-.225 7.589.125 15.184 1.047 22.72h5.068c-.905-7.616-1.199-15.293-.878-22.957.008-.309.143-.6.373-.806.231-.205.536-.305.843-.277.302.008.587.14.791.363.204.223.308.52.29.822-.278 7.631.027 15.271.912 22.855h5.44c-1.077-8.18-1.45-16.439-1.115-24.683.036-.642.575-1.137 1.216-1.118.305.018.59.156.793.385.203.228.307.529.288.834-.309 8.213.087 16.437 1.183 24.582h6.757c-2.131-10.21-3.173-20.618-3.109-31.049 0-5.113.271-10.158.676-14.729-3.818 11.41-9.257 18.487-15.44 18.487-3.75 0-7.23-2.64-10.135-7.246v30.474c0 1.075.428 2.105 1.189 2.861.761.757 1.793 1.177 2.865 1.168h.98c-.973-7.588-1.368-15.24-1.183-22.889z"/>
            <path fill="#F2A35E" d="M561.013 86.56c10.135 0 18.784-25.936 18.784-56.68.048-10.376-1.006-20.727-3.142-30.88h-4.629c2.631 10.078 3.903 20.463 3.784 30.88 0 28.002-7.872 49.909-17.872 49.909-2.892-.21-5.535-1.715-7.196-4.097v1.287c2.939 6.026 6.52 9.582 10.271 9.582z"/>
            <path fill="#F2A35E" d="M554.83 68.852c6.183 0 12.838-15.677 12.838-38.972.322-10.534-1.434-21.028-5.169-30.88H554.424c5.102 3.386 8.785 15.61 8.785 30.812 0 17.776-5.034 31.726-11.454 31.726-.337.034-.676.034-1.013 0v5.113c1.006 1.262 2.483 2.057 4.088 2.201z"/>
            <path fill="#F2A35E" d="M557.938 77.69c8.548 0 15.778-21.874 15.778-47.81.109-10.42-1.187-20.807-3.852-30.88h-5.372c3.573 9.891 5.269 20.364 5.001 30.88 0 22.889-6.42 40.8-14.663 40.8-1.497-.05-2.935-.598-4.088-1.557v3.149c2.196 3.42 4.628 5.417 7.196 5.417zM555.506 29.88c0-9.988-2.197-17.336-4.764-20.045v40.09c2.567-2.675 4.764-10.022 4.764-20.045z"/>
            <path fill="#E2DAD5" d="M554.526 147c-.238-6.187-1.517-12.288-3.784-18.047V147h3.784zM560.641 147c-.182-8.618-1.886-17.136-5.034-25.158h-.811c-2.118.014-3.862 1.673-3.987 3.793 3.344 6.634 5.168 13.934 5.338 21.365h4.494zM566.688 147c-.26-8.502-1.508-16.945-3.716-25.158H557.6c3.003 8.059 4.658 16.559 4.899 25.158h4.189zM572.804 147c-.265-8.458-1.271-16.876-3.007-25.158h-4.629c2.156 8.221 3.369 16.662 3.615 25.158h4.021zM582.399 146.39s0 .305-.203.44h18.109v-21.094c.009-1.074-.411-2.108-1.166-2.871-.755-.763-1.783-1.192-2.855-1.192h-1.013c.904 7.616 1.209 15.292.912 22.957-.009.152-.078.295-.192.397-.114.102-.264.154-.416.144-.309-.034-.543-.297-.541-.609.311-7.639.04-15.291-.811-22.889h-5.067c.905 7.628 1.199 15.316.878 22.99-.036.623-.561 1.103-1.182 1.084-.64-.036-1.135-.577-1.115-1.219.277-7.631-.028-15.271-.913-22.855h-5.54c1.096 8.19 1.469 16.461 1.115 24.717zM580.304 147c-.121-.169-.192-.368-.203-.576.31-8.212-.074-16.435-1.149-24.582h-6.757c1.715 8.283 2.699 16.702 2.94 25.158h5.169zM708.755 20.298c-.032.628-.524 1.135-1.149 1.185-.634 0-1.149-.516-1.149-1.151-.16-7.154-.86-14.284-2.094-21.332h-5.102c1.498 7.7 2.312 15.519 2.433 23.363-.017.635-.517 1.15-1.149 1.185-.634 0-1.149-.515-1.149-1.151-.16-7.856-.996-15.685-2.5-23.397h-6.149c2.117 10.155 3.148 20.506 3.075 30.88 0 5.113-.237 10.158-.676 14.729 3.818-11.41 9.291-18.487 15.44-18.487 1.169.044 2.317.32 3.378.812V3.03c0-1.074-.428-2.104-1.189-2.86-.761-.757-1.793-1.178-2.865-1.169h-1.284c1.273 7.031 1.985 14.153 2.129 21.298z"/>
            <path fill="#E2DAD5" d="M689.802 85.105c-.055 10.434 1.01 20.843 3.175 31.049h4.629c-2.632-10.135-3.904-20.577-3.784-31.05 0-27.967 7.838-49.84 17.872-49.84h.338v-5.79c-1.016-.637-2.18-.999-3.378-1.05-10.237.068-18.852 25.97-18.852 56.68zM662.469 3.03v5.146c3.581 2.506 6.149 11.14 6.149 21.806 0 10.665-2.568 19.333-6.149 21.839v8.059c.311.128.643.197.98.203 4.764 0 9.865-12.088 9.865-30.101 0-17.235-4.696-29.018-9.257-30-.961.724-1.544 1.844-1.588 3.047z"/>
            <path fill="#E2DAD5" d="M701.964 85.105c-.333 10.596 1.447 21.151 5.237 31.049h.777c2.112.004 3.861-1.645 3.986-3.759-3.378-5.485-5.54-15.541-5.54-27.29 0-11.75 2.229-21.907 5.608-27.359v-10.53c-5.271 3.792-10.068 18.047-10.068 37.889z"/>
            <path fill="#E2DAD5" d="M695.883 85.105c-.11 10.48 1.208 20.926 3.919 31.049h5.372c-3.62-9.939-5.339-20.472-5.068-31.05 0-20.315 5.068-36.601 11.926-40.089v-7.652h-.338c-8.581-.068-15.811 21.84-15.811 47.742z"/>
            <path fill="#E2DAD5" d="M712.032 109.043V61.166c-2.903 7.635-4.27 15.771-4.02 23.939-.253 8.167 1.113 16.304 4.02 23.938zM666.591 93.231c.067-.273.331-.45.608-.406.152.009.295.078.397.192.101.115.153.265.144.417-.304 7.583-.033 15.178.81 22.72h5.068c-.905-7.616-1.199-15.293-.878-22.957.008-.309.143-.6.374-.806.23-.205.535-.305.842-.277.621.036 1.101.562 1.081 1.185-.278 7.631.027 15.271.912 22.855h5.44c-1.077-8.18-1.45-16.439-1.115-24.683.036-.642.576-1.137 1.216-1.118.305.018.59.156.793.385.203.228.307.529.288.834-.309 8.213.087 16.437 1.183 24.582h6.757c-2.131-10.21-3.173-20.618-3.108-31.049 0-5.113.236-10.158.675-14.729-3.817 11.41-9.291 18.487-15.44 18.487-3.75 0-7.263-2.64-10.135-7.246v30.474c0 2.225 1.8 4.029 4.02 4.029h1.014c-.913-7.593-1.23-15.246-.946-22.889z"/>
            <path fill="#E2DAD5" d="M672.74 86.56c10.135 0 18.784-25.936 18.784-56.68.048-10.376-1.005-20.727-3.142-30.88h-4.628c2.617 10.08 3.879 20.465 3.75 30.88 0 28.002-7.838 49.909-17.839 49.909-2.894-.2-5.542-1.708-7.196-4.097v1.286c2.973 6.027 6.521 9.583 10.271 9.583z"/>
            <path fill="#E2DAD5" d="M666.557 68.852c6.183 0 12.805-15.677 12.805-38.972.313-10.53-1.431-21.02-5.136-30.88h-8.074c5.067 3.386 8.75 15.61 8.75 30.812 0 17.776-5 31.726-11.453 31.726-.326.033-.654.033-.98 0v5.113c1.001 1.268 2.481 2.064 4.088 2.201z"/>
            <path fill="#E2DAD5" d="M669.665 77.69c8.548 0 15.778-21.874 15.778-47.81.092-10.42-1.203-20.804-3.851-30.88h-5.372c3.572 9.89 5.268 20.364 5 30.88 0 22.889-6.453 40.8-14.663 40.8-1.497-.05-2.935-.598-4.088-1.557v3.149c2.162 3.42 4.629 5.417 7.196 5.417zM667.233 29.88c0-9.988-2.196-17.336-4.764-20.045v40.09c2.703-2.675 4.764-10.022 4.764-20.045z"/>
            <path fill="#F2A35E" d="M666.253 147c-.254-6.185-1.533-12.284-3.784-18.047V147h3.784zM672.368 147c-.207-8.619-1.922-17.134-5.068-25.158h-.777c-2.125-.002-3.878 1.666-3.986 3.793 3.343 6.634 5.167 13.934 5.338 21.365h4.493zM678.416 147c-.278-8.501-1.525-16.941-3.717-25.158h-5.371c3.002 8.059 4.658 16.559 4.898 25.158h4.19zM684.531 147c-.258-8.46-1.276-16.88-3.041-25.158h-4.594c2.138 8.225 3.35 16.663 3.615 25.158h4.02zM694.126 146.39c-.045.163-.126.314-.237.44h18.143v-21.094c0-2.244-1.815-4.063-4.054-4.063h-.98c.885 7.618 1.189 15.292.912 22.957-.034.309-.297.543-.608.541-.309-.034-.542-.297-.54-.609.232-7.645-.118-15.297-1.048-22.889h-5.068c.906 7.628 1.2 15.316.879 22.99-.018.306-.156.592-.384.795-.228.204-.528.307-.832.289-.305-.017-.591-.156-.793-.385-.203-.228-.307-.529-.289-.834.278-7.631-.027-15.271-.912-22.855h-5.304c1.078 8.192 1.451 16.461 1.115 24.717zM692.2 147c-.137-.16-.209-.365-.203-.576.309-8.213-.086-16.437-1.182-24.582h-6.757c1.674 8.286 2.601 16.706 2.77 25.158h5.372z"/>
            <path fill="#F26666" d="M609.899 125.533c0-.642.509-1.167 1.149-1.185.635 0 1.149.515 1.149 1.151.141 7.154.841 14.287 2.095 21.331h5.067c-1.479-7.703-2.293-15.519-2.432-23.363.032-.628.523-1.134 1.148-1.185.641 0 1.165.51 1.183 1.152.131 7.914.967 15.801 2.5 23.566h6.25c-2.1-10.157-3.131-20.507-3.074-30.88 0-5.113.27-10.158.676-14.729-3.818 11.411-9.258 18.487-15.44 18.487-1.169-.044-2.317-.32-3.379-.812v23.905c-.002 2.16 1.698 3.938 3.852 4.029h1.284c-1.238-7.091-1.916-14.269-2.028-21.467z"/>
            <path fill="#F26666" d="M628.819 60.726c.055-10.434-1.01-20.843-3.175-31.05h-4.629c2.661 10.131 3.945 20.575 3.818 31.05 0 27.968-7.872 49.875-17.873 49.875h-.337v5.925c1.013.645 2.179 1.007 3.378 1.05 10.237-.169 18.818-26.14 18.818-56.85zM656.151 142.801v-5.045c-3.378-2.505-6.148-11.139-6.148-21.805s2.601-19.334 6.148-21.84v-8.058c-.309-.135-.642-.204-.979-.203-4.764 0-9.832 12.088-9.832 30.101 0 17.234 4.663 29.017 9.224 29.999.988-.746 1.574-1.909 1.587-3.149z"/>
            <path fill="#F26666" d="M616.691 60.726c.333-10.596-1.448-21.152-5.237-31.05h-.811c-2.106.014-3.845 1.653-3.987 3.76 3.379 5.484 5.575 15.54 5.575 27.29s-2.23 21.941-5.608 27.359v10.53c5.236-3.792 10.068-18.047 10.068-37.889z"/>
            <path fill="#F26666" d="M622.738 60.726c.103-10.478-1.204-20.921-3.885-31.05h-5.406c3.62 9.94 5.339 20.473 5.068 31.05 0 20.316-5.034 36.602-11.892 40.09v7.652h.337c8.548.068 15.778-21.84 15.778-47.742z"/>
            <path fill="#F26666" d="M606.623 36.787v47.878c2.873-7.643 4.227-15.775 3.986-23.939.245-8.164-1.11-16.297-3.986-23.939zM652.063 52.6c-.065.274-.31.467-.591.467-.281 0-.525-.193-.591-.467.316-7.642.011-15.297-.912-22.89h-5.068c.888 7.618 1.193 15.293.912 22.957-.097.57-.589.986-1.165.986-.577 0-1.069-.416-1.166-.986.317-7.63.012-15.274-.912-22.855h-5.44c1.055 8.137 1.394 16.352 1.014 24.548 0 .412-.219.792-.574.997-.356.206-.794.206-1.149 0-.355-.205-.574-.585-.574-.997.338-8.243-.024-16.5-1.082-24.683h-6.757c2.119 10.211 3.149 20.62 3.075 31.049 0 5.113-.237 10.158-.642 14.729 3.818-11.41 9.257-18.487 15.406-18.487 3.75 0 7.264 2.64 10.136 7.246V33.74c0-2.225-1.8-4.03-4.021-4.03h-.98c.939 7.592 1.301 15.244 1.081 22.89z"/>
            <path fill="#F26666" d="M645.881 59.27c-10.136 0-18.751 25.936-18.751 56.681-.077 10.433.977 20.844 3.142 31.049h4.494c-2.618-10.08-3.879-20.465-3.751-30.88 0-27.968 7.839-49.909 17.873-49.909 2.884.206 5.519 1.713 7.162 4.097v-1.286c-2.872-6.197-6.385-9.752-10.169-9.752z"/>
            <path fill="#F26666" d="M652.064 76.978c-6.183 0-12.805 15.678-12.805 38.973-.344 10.59 1.413 21.144 5.169 31.049h8.041c-5.068-3.386-8.75-15.609-8.75-30.812 0-17.776 5.034-31.727 11.453-31.727.326-.035.654-.035.98 0v-5.18c-.977-1.312-2.462-2.149-4.088-2.303z"/>
            <path fill="#F26666" d="M648.989 68.141c-8.581 0-15.811 21.873-15.811 47.81-.115 10.478 1.192 20.923 3.885 31.049h5.372c-3.602-9.884-5.31-20.361-5.034-30.88 0-22.889 6.453-40.631 14.662-40.631 1.505.044 2.949.606 4.088 1.591v-3.149c-2.162-3.792-4.493-5.79-7.162-5.79zM651.388 115.951c0 10.157 2.23 17.336 4.764 20.044v-40.09c-2.534 2.676-4.764 10.023-4.764 20.046z"/>
            <path fill="#EFE6DF" d="M652.367-1c.254 6.184 1.533 12.283 3.784 18.047V-1h-3.784zM646.252-1c.207 8.619 1.923 17.134 5.068 25.158h.811c2.112-.031 3.846-1.68 3.987-3.793-3.36-6.628-5.185-13.932-5.338-21.365h-4.528zM640.205-1c.277 8.5 1.524 16.941 3.716 25.158h5.406C646.308 16.104 644.652 7.6 644.428-1h-4.223zM634.09-1c.258 8.46 1.275 16.88 3.041 25.158h4.628C639.603 15.937 638.39 7.496 638.144-1h-4.054zM624.63-.56c0-.17 0-.305.203-.44h-18.211v21.095c-.009 1.074.411 2.108 1.166 2.87.755.764 1.783 1.193 2.855 1.193h.98c-.885-7.618-1.19-15.293-.913-22.957.066-.274.311-.467.592-.467.281 0 .525.193.591.467-.317 7.642-.011 15.297.912 22.889h5.068c-.908-7.628-1.213-15.315-.912-22.99.017-.306.155-.592.383-.796.228-.203.528-.307.833-.288.64.036 1.134.577 1.115 1.219-.317 7.63-.012 15.274.912 22.855h5.439c-1.058-8.171-1.397-16.42-1.013-24.65zM626.623-1c.121.168.192.368.203.576-.299 8.212.097 16.436 1.182 24.582h6.757c-1.733-8.28-2.716-16.7-2.939-25.158h-5.203z"/>
            <path fill="#F2A35E" d="M767.995 20.298c-.032.628-.523 1.135-1.149 1.185-.634 0-1.148-.516-1.148-1.152-.141-7.154-.842-14.286-2.095-21.331h-5.169c1.498 7.7 2.312 15.519 2.433 23.363 0 .642-.509 1.167-1.149 1.185-.635 0-1.149-.515-1.149-1.151-.16-7.857-.996-15.685-2.5-23.397h-6.048c2.089 10.158 3.108 20.508 3.041 30.88 0 5.113-.236 10.158-.642 14.729 3.818-11.41 9.257-18.488 15.406-18.488 1.169.045 2.317.321 3.379.813V3.03c0-2.225-1.8-4.029-4.021-4.029H765.9c1.252 7.034 1.952 14.155 2.095 21.298z"/>
            <path fill="#F2A35E" d="M749.075 85.105c-.054 10.434 1.011 20.843 3.176 31.049h4.595c-2.632-10.135-3.904-20.577-3.784-31.05 0-27.967 7.838-49.84 17.872-49.84h.338v-5.79c-1.016-.637-2.18-.999-3.378-1.05-10.237.068-18.819 25.97-18.819 56.68zM721.71 3.03v5.146c3.581 2.506 6.148 11.14 6.148 21.806 0 10.665-2.567 19.333-6.148 21.839v8.059c.321.132.665.2 1.013.203 4.73 0 9.832-12.088 9.832-30.101 0-17.235-4.663-29.018-9.258-30-.96.724-1.544 1.844-1.587 3.047z"/>
            <path fill="#F2A35E" d="M761.204 85.105c-.333 10.596 1.448 21.151 5.237 31.049h.811c2.106.003 3.845-1.65 3.953-3.759-3.379-5.485-5.541-15.541-5.541-27.29 0-11.75 2.23-21.907 5.608-27.359v-10.53c-5.236 3.792-10.068 18.047-10.068 37.889z"/>
            <path fill="#F2A35E" d="M755.056 85.105c-.094 10.479 1.224 20.923 3.919 31.049h5.371c-3.619-9.939-5.339-20.472-5.067-31.05 0-20.315 5.067-36.601 11.926-40.089v-7.652h-.338c-8.514-.068-15.811 21.84-15.811 47.742z"/>
            <path fill="#F2A35E" d="M771.272 109.043V61.166c-2.889 7.638-4.244 15.774-3.986 23.939-.262 8.165 1.093 16.301 3.986 23.938zM725.831 93.231c.079-.264.334-.434.608-.406.156-.001.305.065.408.182.104.117.152.272.133.427-.226 7.589.124 15.184 1.047 22.72h5.068c-.905-7.616-1.199-15.293-.879-22.957.008-.309.144-.6.374-.806.231-.205.536-.305.843-.277.302.008.587.14.791.363.204.223.308.52.29.822-.278 7.631.027 15.271.912 22.855h5.439c-1.077-8.18-1.45-16.439-1.115-24.683.037-.642.576-1.137 1.217-1.118.305.018.59.156.793.385.203.228.306.529.288.834-.309 8.213.086 16.437 1.182 24.582h6.757c-2.13-10.21-3.172-20.618-3.108-31.049 0-5.113.27-10.158.676-14.729-3.818 11.41-9.257 18.487-15.44 18.487-3.75 0-7.23-2.64-10.136-7.246v30.474c0 1.075.429 2.105 1.19 2.861.761.757 1.793 1.177 2.865 1.168h.979c-.972-7.588-1.367-15.24-1.182-22.889z"/>
            <path fill="#F2A35E" d="M731.98 86.56c10.136 0 18.785-25.936 18.785-56.68.048-10.376-1.006-20.727-3.142-30.88h-4.629c2.631 10.078 3.903 20.463 3.784 30.88 0 28.002-7.872 49.909-17.872 49.909-2.892-.21-5.536-1.715-7.196-4.097v1.287c2.939 6.026 6.52 9.582 10.27 9.582z"/>
            <path fill="#F2A35E" d="M725.798 68.852c6.182 0 12.838-15.677 12.838-38.972.322-10.534-1.435-21.028-5.169-30.88H725.392c5.102 3.386 8.784 15.61 8.784 30.812 0 17.776-5.034 31.726-11.453 31.726-.337.034-.676.034-1.013 0v5.113c1.006 1.262 2.483 2.057 4.088 2.201z"/>
            <path fill="#F2A35E" d="M728.906 77.69c8.547 0 15.777-21.874 15.777-47.81.11-10.42-1.186-20.807-3.851-30.88h-5.372c3.573 9.891 5.269 20.364 5 30.88 0 22.889-6.419 40.8-14.662 40.8-1.498-.05-2.936-.598-4.088-1.557v3.149c2.196 3.42 4.628 5.417 7.196 5.417zM726.473 29.88c0-9.988-2.196-17.336-4.763-20.045v40.09c2.567-2.675 4.763-10.022 4.763-20.045z"/>
            <path fill="#E2DAD5" d="M725.494 147c-.238-6.187-1.517-12.288-3.784-18.047V147h3.784zM731.609 147c-.182-8.618-1.886-17.136-5.034-25.158h-.811c-2.118.014-3.862 1.673-3.987 3.793 3.344 6.634 5.168 13.934 5.338 21.365h4.494zM737.656 147c-.261-8.502-1.508-16.945-3.716-25.158h-5.372c3.003 8.059 4.658 16.559 4.899 25.158h4.189zM743.771 147c-.264-8.458-1.27-16.876-3.007-25.158h-4.628c2.156 8.221 3.369 16.662 3.615 25.158h4.02zM753.366 146.39s0 .305-.202.44h18.108v-21.094c.01-1.074-.41-2.108-1.165-2.871-.755-.763-1.783-1.192-2.855-1.192h-1.013c.904 7.616 1.209 15.292.912 22.957-.009.152-.078.295-.192.397-.114.102-.264.154-.416.144-.31-.034-.543-.297-.541-.609.311-7.639.04-15.291-.811-22.889h-5.068c.906 7.628 1.2 15.316.879 22.99-.036.623-.561 1.103-1.183 1.084-.639-.036-1.134-.577-1.115-1.219.278-7.631-.027-15.271-.912-22.855h-5.541c1.097 8.19 1.47 16.461 1.115 24.717zM751.272 147c-.122-.169-.192-.368-.203-.576.31-8.212-.074-16.435-1.149-24.582h-6.757c1.715 8.283 2.699 16.702 2.939 25.158h5.17zM879.722 20.298c-.031.628-.523 1.135-1.148 1.185-.635 0-1.149-.516-1.149-1.151-.161-7.154-.861-14.284-2.095-21.332h-5.101c1.498 7.7 2.312 15.519 2.432 23.363-.016.635-.516 1.15-1.148 1.185-.635 0-1.149-.515-1.149-1.151-.16-7.856-.996-15.685-2.5-23.397h-6.149c2.117 10.155 3.148 20.506 3.074 30.88 0 5.113-.236 10.158-.675 14.729 3.817-11.41 9.291-18.487 15.44-18.487 1.168.044 2.316.32 3.378.812V3.03c0-1.074-.428-2.104-1.189-2.86-.762-.757-1.793-1.178-2.865-1.169h-1.284c1.273 7.031 1.984 14.153 2.128 21.298z"/>
            <path fill="#E2DAD5" d="M860.769 85.105c-.054 10.434 1.01 20.843 3.176 31.049h4.629c-2.632-10.135-3.905-20.577-3.784-31.05 0-27.967 7.838-49.84 17.872-49.84H883v-5.79c-1.017-.637-2.181-.999-3.379-1.05-10.237.068-18.852 25.97-18.852 56.68zM833.437 3.03v5.146c3.581 2.506 6.149 11.14 6.149 21.806 0 10.665-2.568 19.333-6.149 21.839v8.059c.311.128.643.197.98.203 4.763 0 9.865-12.088 9.865-30.101 0-17.235-4.696-29.018-9.257-30-.961.724-1.544 1.844-1.588 3.047z"/>
            <path fill="#E2DAD5" d="M872.932 85.105c-.333 10.596 1.447 21.151 5.236 31.049h.777c2.113.004 3.862-1.645 3.987-3.759-3.378-5.485-5.541-15.541-5.541-27.29 0-11.75 2.23-21.907 5.609-27.359v-10.53c-5.271 3.792-10.068 18.047-10.068 37.889z"/>
            <path fill="#E2DAD5" d="M866.851 85.105c-.11 10.48 1.208 20.926 3.919 31.049h5.372c-3.62-9.939-5.34-20.472-5.068-31.05 0-20.315 5.068-36.601 11.926-40.089v-7.652h-.338c-8.581-.068-15.811 21.84-15.811 47.742z"/>
            <path fill="#E2DAD5" d="M883 109.043V61.166c-2.904 7.635-4.27 15.771-4.02 23.939-.254 8.167 1.113 16.304 4.02 23.938zM837.559 93.231c.067-.273.331-.45.608-.406.152.009.295.078.396.192.102.115.154.265.144.417-.303 7.583-.032 15.178.811 22.72h5.068c-.905-7.616-1.199-15.293-.878-22.957.008-.309.143-.6.373-.806.231-.205.536-.305.843-.277.621.036 1.1.562 1.081 1.185-.278 7.631.027 15.271.912 22.855h5.44c-1.077-8.18-1.45-16.439-1.115-24.683.036-.642.575-1.137 1.216-1.118.305.018.59.156.793.385.203.228.307.529.288.834-.309 8.213.087 16.437 1.183 24.582h6.757c-2.131-10.21-3.173-20.618-3.109-31.049 0-5.113.237-10.158.676-14.729-3.818 11.41-9.291 18.487-15.44 18.487-3.75 0-7.264-2.64-10.135-7.246v30.474c0 2.225 1.8 4.029 4.02 4.029h1.014c-.913-7.593-1.23-15.246-.946-22.889z"/>
            <path fill="#E2DAD5" d="M843.708 86.56c10.135 0 18.784-25.936 18.784-56.68.048-10.376-1.005-20.727-3.142-30.88h-4.628c2.617 10.08 3.878 20.465 3.75 30.88 0 28.002-7.838 49.909-17.839 49.909-2.895-.2-5.542-1.708-7.196-4.097v1.286c2.973 6.027 6.52 9.583 10.271 9.583z"/>
            <path fill="#E2DAD5" d="M837.525 68.852c6.183 0 12.804-15.677 12.804-38.972.314-10.53-1.43-21.02-5.135-30.88h-8.075c5.068 3.386 8.751 15.61 8.751 30.812 0 17.776-5 31.726-11.453 31.726-.326.033-.654.033-.98 0v5.113c1.001 1.268 2.481 2.064 4.088 2.201z"/>
            <path fill="#E2DAD5" d="M840.633 77.69c8.548 0 15.778-21.874 15.778-47.81.092-10.42-1.203-20.804-3.852-30.88h-5.372c3.573 9.89 5.269 20.364 5.001 30.88 0 22.889-6.453 40.8-14.663 40.8-1.497-.05-2.935-.598-4.088-1.557v3.149c2.162 3.42 4.628 5.417 7.196 5.417zM838.201 29.88c0-9.988-2.196-17.336-4.764-20.045v40.09c2.703-2.675 4.764-10.022 4.764-20.045z"/>
            <path fill="#F2A35E" d="M837.221 147c-.254-6.185-1.533-12.284-3.784-18.047V147h3.784zM843.336 147c-.207-8.619-1.922-17.134-5.068-25.158h-.777c-2.125-.002-3.878 1.666-3.986 3.793 3.343 6.634 5.167 13.934 5.338 21.365h4.493zM849.383 147c-.277-8.501-1.524-16.941-3.716-25.158h-5.372c3.003 8.059 4.658 16.559 4.899 25.158h4.189zM855.499 147c-.258-8.46-1.276-16.88-3.041-25.158h-4.595c2.138 8.225 3.351 16.663 3.615 25.158h4.021zM865.094 146.39c-.045.163-.126.314-.237.44H883v-21.094c0-2.244-1.815-4.063-4.054-4.063h-.98c.884 7.618 1.189 15.292.912 22.957-.035.309-.297.543-.608.541-.309-.034-.543-.297-.541-.609.233-7.645-.117-15.297-1.047-22.889h-5.068c.906 7.628 1.2 15.316.879 22.99-.018.306-.156.592-.384.795-.228.204-.528.307-.833.289-.304-.017-.59-.156-.793-.385-.203-.228-.306-.529-.288-.834.278-7.631-.027-15.271-.912-22.855h-5.304c1.077 8.192 1.45 16.461 1.115 24.717zM863.168 147c-.137-.16-.209-.365-.203-.576.309-8.213-.087-16.437-1.182-24.582h-6.757c1.674 8.286 2.601 16.706 2.77 25.158h5.372z"/>
            <path fill="#F26666" d="M780.867 125.533c0-.642.509-1.167 1.149-1.185.634 0 1.149.515 1.149 1.151.141 7.154.841 14.287 2.094 21.331h5.068c-1.479-7.703-2.293-15.519-2.432-23.363.031-.628.523-1.134 1.148-1.185.64 0 1.164.51 1.183 1.152.13 7.914.967 15.801 2.5 23.566h6.25c-2.1-10.157-3.131-20.507-3.074-30.88 0-5.113.27-10.158.675-14.729-3.817 11.411-9.257 18.487-15.439 18.487-1.169-.044-2.317-.32-3.379-.812v23.905c-.002 2.16 1.697 3.938 3.852 4.029h1.283c-1.237-7.091-1.915-14.269-2.027-21.467z"/>
            <path fill="#F26666" d="M799.787 60.726c.055-10.434-1.01-20.843-3.176-31.05h-4.628c2.661 10.131 3.945 20.575 3.818 31.05 0 27.968-7.872 49.875-17.873 49.875h-.338v5.925c1.014.645 2.18 1.007 3.379 1.05 10.237-.169 18.818-26.14 18.818-56.85zM827.119 142.801v-5.045c-3.378-2.505-6.149-11.139-6.149-21.805s2.602-19.334 6.149-21.84v-8.058c-.309-.135-.642-.204-.98-.203-4.763 0-9.831 12.088-9.831 30.101 0 17.234 4.662 29.017 9.223 29.999.988-.746 1.575-1.909 1.588-3.149z"/>
            <path fill="#F26666" d="M787.658 60.726c.333-10.596-1.447-21.152-5.236-31.05h-.811c-2.106.014-3.845 1.653-3.987 3.76 3.379 5.484 5.575 15.54 5.575 27.29s-2.23 21.941-5.609 27.359v10.53c5.237-3.792 10.068-18.047 10.068-37.889z"/>
            <path fill="#F26666" d="M793.706 60.726c.103-10.478-1.204-20.921-3.885-31.05h-5.406c3.62 9.94 5.339 20.473 5.068 31.05 0 20.316-5.034 36.602-11.893 40.09v7.652h.338c8.548.068 15.778-21.84 15.778-47.742z"/>
            <path fill="#F26666" d="M777.59 36.787v47.878c2.874-7.643 4.228-15.775 3.987-23.939.244-8.164-1.11-16.297-3.987-23.939zM823.031 52.6c-.066.274-.31.467-.591.467-.281 0-.525-.193-.591-.467.316-7.642.011-15.297-.912-22.89h-5.068c.888 7.618 1.193 15.293.912 22.957-.097.57-.589.986-1.166.986-.576 0-1.068-.416-1.165-.986.317-7.63.012-15.274-.912-22.855h-5.44c1.054 8.137 1.394 16.352 1.014 24.548 0 .412-.219.792-.575.997-.355.206-.793.206-1.148 0-.356-.205-.575-.585-.575-.997.338-8.243-.023-16.5-1.081-24.683h-6.757c2.119 10.211 3.149 20.62 3.075 31.049 0 5.113-.237 10.158-.642 14.729 3.817-11.41 9.257-18.487 15.406-18.487 3.75 0 7.264 2.64 10.135 7.246V33.74c0-2.225-1.8-4.03-4.02-4.03h-.98c.939 7.592 1.3 15.244 1.081 22.89z"/>
            <path fill="#F26666" d="M816.849 59.27c-10.136 0-18.751 25.936-18.751 56.681-.077 10.433.977 20.844 3.142 31.049h4.493c-2.617-10.08-3.879-20.465-3.75-30.88 0-27.968 7.838-49.909 17.873-49.909 2.884.206 5.519 1.713 7.162 4.097v-1.286c-2.872-6.197-6.385-9.752-10.169-9.752z"/>
            <path fill="#F26666" d="M823.031 76.978c-6.182 0-12.804 15.678-12.804 38.973-.345 10.59 1.412 21.144 5.169 31.049h8.041c-5.068-3.386-8.75-15.609-8.75-30.812 0-17.776 5.034-31.727 11.453-31.727.325-.035.654-.035.979 0v-5.18c-.976-1.312-2.461-2.149-4.088-2.303z"/>
            <path fill="#F26666" d="M819.957 68.141c-8.582 0-15.812 21.873-15.812 47.81-.114 10.478 1.193 20.923 3.886 31.049h5.371c-3.602-9.884-5.31-20.361-5.033-30.88 0-22.889 6.452-40.631 14.662-40.631 1.505.044 2.948.606 4.088 1.591v-3.149c-2.162-3.792-4.493-5.79-7.162-5.79zM822.356 115.951c0 10.157 2.229 17.336 4.763 20.044v-40.09c-2.534 2.676-4.763 10.023-4.763 20.046z"/>
            <path fill="#EFE6DF" d="M823.335-1c.254 6.184 1.533 12.283 3.784 18.047V-1h-3.784zM817.22-1c.207 8.619 1.922 17.134 5.068 25.158h.811c2.111-.031 3.846-1.68 3.986-3.793-3.359-6.628-5.184-13.932-5.338-21.365h-4.527zM811.173-1c.277 8.5 1.524 16.941 3.716 25.158h5.406C817.275 16.104 815.62 7.6 815.396-1h-4.223zM805.058-1c.258 8.46 1.275 16.88 3.04 25.158h4.629c-2.156-8.221-3.369-16.662-3.615-25.158h-4.054zM795.598-.56c0-.17 0-.305.202-.44h-18.21v21.095c-.009 1.074.411 2.108 1.166 2.87.755.764 1.782 1.193 2.855 1.193h.979c-.884-7.618-1.189-15.293-.912-22.957.066-.274.31-.467.591-.467.281 0 .526.193.592.467-.317 7.642-.012 15.297.912 22.889h5.068c-.908-7.628-1.213-15.315-.913-22.99.018-.306.156-.592.384-.796.228-.203.528-.307.833-.288.639.036 1.134.577 1.115 1.219-.317 7.63-.012 15.274.912 22.855h5.439c-1.059-8.171-1.398-16.42-1.013-24.65zM797.591-1c.121.168.191.368.203.576-.299 8.212.096 16.436 1.182 24.582h6.757C804 15.878 803.016 7.458 802.794-1h-5.203z"/>
        </g>
    </g>
    <g opacity=".8">
        <mask id="hm1vju7d1c" width="136" height="150" x="890" y="0" maskUnits="userSpaceOnUse">
            <path fill="#fff" d="M890 0H1026V150H890z"/>
        </mask>
        <g mask="url(#hm1vju7d1c)">
            <path fill="#E2DAD5" d="M986.013 20.298c-.032.628-.523 1.135-1.149 1.185-.634 0-1.148-.516-1.148-1.151-.161-7.154-.861-14.284-2.095-21.332h-5.102c1.498 7.7 2.312 15.519 2.433 23.363-.017.635-.516 1.15-1.149 1.185-.634 0-1.149-.515-1.149-1.151-.159-7.856-.996-15.685-2.5-23.397h-6.149c2.118 10.155 3.148 20.506 3.075 30.88 0 5.113-.237 10.158-.676 14.729 3.818-11.41 9.291-18.487 15.44-18.487 1.169.044 2.317.32 3.379.812V3.03c0-1.074-.429-2.104-1.19-2.86-.761-.757-1.793-1.178-2.865-1.169h-1.283c1.272 7.031 1.984 14.153 2.128 21.298z"/>
            <path fill="#E2DAD5" d="M967.06 85.105c-.055 10.434 1.01 20.843 3.175 31.049h4.629c-2.632-10.135-3.904-20.577-3.784-31.05 0-27.967 7.838-49.84 17.872-49.84h.338v-5.79c-1.016-.637-2.18-.999-3.378-1.05-10.237.068-18.852 25.97-18.852 56.68zM939.727 3.03v5.146c3.582 2.506 6.149 11.14 6.149 21.806 0 10.665-2.567 19.333-6.149 21.839v8.059c.311.128.644.197.98.203 4.764 0 9.865-12.088 9.865-30.101 0-17.235-4.696-29.018-9.257-30-.96.724-1.544 1.844-1.588 3.047z"/>
            <path fill="#E2DAD5" d="M979.222 85.105c-.333 10.596 1.447 21.151 5.237 31.049h.777c2.113.004 3.861-1.645 3.987-3.759-3.379-5.485-5.541-15.541-5.541-27.29 0-11.75 2.23-21.907 5.608-27.359v-10.53c-5.27 3.792-10.068 18.047-10.068 37.889z"/>
            <path fill="#E2DAD5" d="M973.141 85.105c-.11 10.48 1.209 20.926 3.919 31.049h5.372c-3.62-9.939-5.339-20.472-5.068-31.05 0-20.315 5.068-36.601 11.926-40.089v-7.652h-.338c-8.581-.068-15.811 21.84-15.811 47.742z"/>
            <path fill="#E2DAD5" d="M989.29 109.043V61.166c-2.903 7.635-4.27 15.771-4.02 23.939-.253 8.167 1.113 16.304 4.02 23.938zM943.849 93.231c.067-.273.331-.45.608-.406.153.009.295.078.397.192.101.115.153.265.144.417-.304 7.583-.033 15.178.811 22.72h5.067c-.905-7.616-1.199-15.293-.878-22.957.008-.309.143-.6.374-.806.23-.205.535-.305.842-.277.621.036 1.101.562 1.081 1.185-.277 7.631.027 15.271.913 22.855h5.439c-1.077-8.18-1.45-16.439-1.115-24.683.036-.642.576-1.137 1.216-1.118.305.018.591.156.793.385.203.228.307.529.288.834-.309 8.213.087 16.437 1.183 24.582h6.757c-2.131-10.21-3.173-20.618-3.108-31.049 0-5.113.236-10.158.675-14.729-3.817 11.41-9.29 18.487-15.439 18.487-3.75 0-7.264-2.64-10.136-7.246v30.474c0 2.225 1.8 4.029 4.021 4.029h1.013c-.913-7.593-1.229-15.246-.946-22.889z"/>
            <path fill="#E2DAD5" d="M949.998 86.56c10.136 0 18.785-25.936 18.785-56.68.047-10.376-1.006-20.727-3.143-30.88h-4.628c2.618 10.08 3.879 20.465 3.75 30.88 0 28.002-7.838 49.909-17.838 49.909-2.895-.2-5.543-1.708-7.197-4.097v1.286c2.973 6.027 6.521 9.583 10.271 9.583z"/>
            <path fill="#E2DAD5" d="M943.815 68.852c6.183 0 12.805-15.677 12.805-38.972.313-10.53-1.431-21.02-5.135-30.88h-8.075c5.068 3.386 8.75 15.61 8.75 30.812 0 17.776-5 31.726-11.453 31.726-.326.033-.654.033-.98 0v5.113c1.002 1.268 2.481 2.064 4.088 2.201z"/>
            <path fill="#E2DAD5" d="M946.924 77.69c8.547 0 15.777-21.874 15.777-47.81.093-10.42-1.203-20.804-3.851-30.88h-5.372c3.573 9.89 5.269 20.364 5 30.88 0 22.889-6.453 40.8-14.663 40.8-1.497-.05-2.935-.598-4.088-1.557v3.149c2.163 3.42 4.629 5.417 7.197 5.417zM944.491 29.88c0-9.988-2.196-17.336-4.764-20.045v40.09c2.703-2.675 4.764-10.022 4.764-20.045z"/>
            <path fill="#F2A35E" d="M943.511 147c-.254-6.185-1.532-12.284-3.784-18.047V147h3.784zM949.626 147c-.207-8.619-1.922-17.134-5.067-25.158h-.777c-2.125-.002-3.879 1.666-3.987 3.793 3.344 6.634 5.167 13.934 5.338 21.365h4.493zM955.674 147c-.278-8.501-1.525-16.941-3.716-25.158h-5.372c3.003 8.059 4.658 16.559 4.899 25.158h4.189zM961.789 147c-.258-8.46-1.275-16.88-3.041-25.158h-4.594c2.138 8.225 3.35 16.663 3.615 25.158h4.02zM971.384 146.39c-.045.163-.125.314-.236.44h18.142v-21.094c0-2.244-1.815-4.063-4.054-4.063h-.98c.885 7.618 1.19 15.292.912 22.957-.034.309-.297.543-.608.541-.309-.034-.542-.297-.54-.609.232-7.645-.118-15.297-1.048-22.889h-5.067c.905 7.628 1.199 15.316.878 22.99-.017.306-.155.592-.384.795-.228.204-.527.307-.832.289-.305-.017-.59-.156-.793-.385-.203-.228-.307-.529-.288-.834.277-7.631-.028-15.271-.913-22.855h-5.304c1.078 8.192 1.451 16.461 1.115 24.717zM969.458 147c-.136-.16-.209-.365-.202-.576.308-8.213-.087-16.437-1.183-24.582h-6.757c1.674 8.286 2.601 16.706 2.77 25.158h5.372z"/>
            <path fill="#F26666" d="M887.158 125.533c-.001-.642.509-1.167 1.148-1.185.635 0 1.149.515 1.149 1.151.141 7.154.842 14.287 2.095 21.331h5.068c-1.48-7.703-2.293-15.519-2.433-23.363.032-.628.523-1.134 1.149-1.185.64 0 1.164.51 1.182 1.152.131 7.914.967 15.801 2.5 23.566h6.251c-2.101-10.157-3.131-20.507-3.075-30.88 0-5.113.27-10.158.676-14.729-3.818 11.411-9.257 18.487-15.44 18.487-1.169-.044-2.317-.32-3.379-.812v23.905c-.001 2.16 1.698 3.938 3.852 4.029h1.284c-1.238-7.091-1.915-14.269-2.027-21.467z"/>
            <path fill="#F26666" d="M906.078 60.726c.054-10.434-1.011-20.843-3.176-31.05h-4.629c2.661 10.131 3.945 20.575 3.818 31.05 0 27.968-7.872 49.875-17.872 49.875h-.338v5.925c1.013.645 2.179 1.007 3.378 1.05 10.237-.169 18.819-26.14 18.819-56.85zM933.41 142.801v-5.045c-3.379-2.505-6.149-11.139-6.149-21.805s2.601-19.334 6.149-21.84v-8.058c-.309-.135-.643-.204-.98-.203-4.764 0-9.832 12.088-9.832 30.101 0 17.234 4.663 29.017 9.224 29.999.988-.746 1.574-1.909 1.588-3.149z"/>
            <path fill="#F26666" d="M893.949 60.726c.333-10.596-1.448-21.152-5.237-31.05h-.811c-2.106.014-3.845 1.653-3.986 3.76 3.378 5.484 5.574 15.54 5.574 27.29s-2.23 21.941-5.608 27.359v10.53c5.236-3.792 10.068-18.047 10.068-37.889z"/>
            <path fill="#F26666" d="M899.996 60.726c.103-10.478-1.204-20.921-3.885-31.05h-5.406c3.62 9.94 5.339 20.473 5.068 31.05 0 20.316-5.034 36.602-11.892 40.09v7.652h.338c8.547.068 15.777-21.84 15.777-47.742zM929.322 52.6c-.066.274-.311.467-.592.467-.281 0-.525-.193-.591-.467.317-7.642.012-15.297-.912-22.89h-5.068c.888 7.618 1.193 15.293.912 22.957-.097.57-.589.986-1.165.986-.576 0-1.069-.416-1.166-.986.317-7.63.012-15.274-.912-22.855h-5.439c1.054 8.137 1.393 16.352 1.013 24.548 0 .412-.219.792-.574.997-.356.206-.793.206-1.149 0-.355-.205-.574-.585-.574-.997.338-8.243-.024-16.5-1.081-24.683h-6.757c2.118 10.211 3.149 20.62 3.074 31.049 0 5.113-.236 10.158-.642 14.729 3.818-11.41 9.257-18.487 15.406-18.487 3.75 0 7.264 2.64 10.136 7.246V33.74c0-2.225-1.8-4.03-4.021-4.03h-.98c.939 7.592 1.301 15.244 1.082 22.89z"/>
            <path fill="#F26666" d="M923.139 59.27c-10.135 0-18.751 25.936-18.751 56.681-.076 10.433.977 20.844 3.142 31.049h4.494c-2.618-10.08-3.879-20.465-3.75-30.88 0-27.968 7.838-49.909 17.872-49.909 2.884.206 5.519 1.713 7.162 4.097v-1.286c-2.871-6.197-6.385-9.752-10.169-9.752z"/>
            <path fill="#F26666" d="M929.322 76.978c-6.183 0-12.805 15.678-12.805 38.973-.344 10.59 1.413 21.144 5.169 31.049h8.041c-5.067-3.386-8.75-15.609-8.75-30.812 0-17.776 5.034-31.727 11.453-31.727.326-.035.654-.035.98 0v-5.18c-.977-1.312-2.462-2.149-4.088-2.303z"/>
            <path fill="#F26666" d="M926.247 68.141c-8.581 0-15.811 21.873-15.811 47.81-.115 10.478 1.192 20.923 3.885 31.049h5.372c-3.602-9.884-5.31-20.361-5.034-30.88 0-22.889 6.453-40.631 14.663-40.631 1.504.044 2.948.606 4.088 1.591v-3.149c-2.163-3.792-4.494-5.79-7.163-5.79zM928.646 115.951c0 10.157 2.23 17.336 4.764 20.044v-40.09c-2.534 2.676-4.764 10.023-4.764 20.046z"/>
            <path fill="#EFE6DF" d="M929.626-1c.253 6.184 1.532 12.283 3.784 18.047V-1h-3.784zM923.511-1c.207 8.619 1.922 17.134 5.067 25.158h.811c2.112-.031 3.846-1.68 3.987-3.793-3.36-6.628-5.185-13.932-5.338-21.365h-4.527zM917.463-1c.278 8.5 1.525 16.941 3.716 25.158h5.406C923.566 16.104 921.91 7.6 921.686-1h-4.223zM911.348-1c.258 8.46 1.276 16.88 3.041 25.158h4.628c-2.155-8.221-3.368-16.662-3.615-25.158h-4.054zM901.888-.56c0-.17 0-.305.203-.44h-18.21v21.095c-.009 1.074.41 2.108 1.165 2.87.755.764 1.783 1.193 2.855 1.193h.98c-.885-7.618-1.19-15.293-.912-22.957.065-.274.31-.467.591-.467.281 0 .525.193.591.467-.316 7.642-.011 15.297.912 22.889h5.068c-.908-7.628-1.213-15.315-.912-22.99.017-.306.155-.592.383-.796.229-.203.528-.307.833-.288.64.036 1.134.577 1.115 1.219-.317 7.63-.011 15.274.912 22.855h5.44c-1.059-8.171-1.398-16.42-1.014-24.65zM903.881-1c.122.168.192.368.203.576-.299 8.212.097 16.436 1.183 24.582h6.757c-1.733-8.28-2.717-16.7-2.94-25.158h-5.203z"/>
            <path fill="#F2A35E" d="M1023.11 85.105c-.06 10.434 1.01 20.843 3.17 31.049h4.6c-2.63-10.135-3.91-20.577-3.79-31.05 0-27.967 7.84-49.84 17.88-49.84h.33v-5.79c-1.01-.637-2.18-.999-3.37-1.05-10.24.068-18.82 25.97-18.82 56.68zM995.742 3.03v5.146c3.581 2.506 6.148 11.14 6.148 21.806 0 10.665-2.567 19.333-6.148 21.839v8.059c.321.132.666.2 1.013.203 4.735 0 9.835-12.088 9.835-30.101 0-17.235-4.67-29.018-9.26-30-.961.724-1.544 1.844-1.588 3.047zM999.863 93.231c.08-.264.337-.434.607-.406.16-.001.31.065.41.182.1.117.15.272.13.427-.22 7.589.13 15.184 1.05 22.72h5.07c-.91-7.616-1.2-15.293-.88-22.957.01-.309.14-.6.37-.806.23-.205.54-.305.84-.277.31.008.59.14.8.363.2.223.3.52.29.822-.28 7.631.02 15.271.91 22.855h5.44c-1.08-8.18-1.45-16.439-1.12-24.683.04-.642.58-1.137 1.22-1.118.3.018.59.156.79.385.2.228.31.529.29.834-.31 8.213.09 16.437 1.18 24.582h6.76c-2.13-10.21-3.17-20.618-3.11-31.049 0-5.113.27-10.158.68-14.729-3.82 11.41-9.26 18.487-15.44 18.487-3.75 0-7.233-2.64-10.138-7.246v30.474c0 1.075.428 2.105 1.189 2.861.761.757 1.793 1.177 2.869 1.168h.98c-.98-7.588-1.372-15.24-1.187-22.889z"/>
            <path fill="#F2A35E" d="M1006.01 86.56c10.14 0 18.79-25.936 18.79-56.68.04-10.376-1.01-20.727-3.14-30.88h-4.63c2.63 10.078 3.9 20.463 3.78 30.88 0 28.002-7.87 49.909-17.87 49.909-2.89-.21-5.537-1.715-7.198-4.097v1.287c2.939 6.026 6.518 9.582 10.268 9.582z"/>
            <path fill="#F2A35E" d="M999.83 68.852c6.18 0 12.84-15.677 12.84-38.972.32-10.534-1.44-21.028-5.17-30.88h-8.076c5.106 3.386 8.786 15.61 8.786 30.812 0 17.776-5.04 31.726-11.455 31.726-.337.034-.676.034-1.013 0v5.113c1.006 1.262 2.483 2.057 4.088 2.201z"/>
            <path fill="#F2A35E" d="M1002.94 77.69c8.55 0 15.78-21.874 15.78-47.81.1-10.42-1.19-20.807-3.86-30.88h-5.37c3.58 9.891 5.27 20.364 5 30.88 0 22.889-6.42 40.8-14.66 40.8-1.497-.05-2.935-.598-4.088-1.557v3.149c2.196 3.42 4.628 5.417 7.198 5.417zM1000.51 29.88c0-9.988-2.201-17.336-4.768-20.045v40.09c2.567-2.675 4.768-10.022 4.768-20.045z"/>
            <path fill="#E2DAD5" d="M999.526 147c-.238-6.187-1.517-12.288-3.784-18.047V147h3.784zM1005.64 147c-.18-8.618-1.88-17.136-5.03-25.158h-.814c-2.118.014-3.862 1.673-3.987 3.793 3.344 6.634 5.171 13.934 5.341 21.365h4.49zM1011.69 147c-.26-8.502-1.51-16.945-3.72-25.158h-5.37c3 8.059 4.66 16.559 4.9 25.158h4.19zM1017.8 147c-.26-8.458-1.27-16.876-3-25.158h-4.63c2.15 8.221 3.37 16.662 3.61 25.158h4.02zM1025.3 147c-.12-.169-.19-.368-.2-.576.31-8.212-.07-16.435-1.15-24.582h-6.75c1.71 8.283 2.69 16.702 2.93 25.158h5.17z"/>
        </g>
    </g>
</svg>
